<?xml version="1.0" encoding="UTF-8" standalone="no"?>
<!DOCTYPE svg PUBLIC "-//W3C//DTD SVG 1.1//EN"
 "http://www.w3.org/Graphics/SVG/1.1/DTD/svg11.dtd">
<!-- Generated by graphviz version 2.30.1 (20201013.1554)
 -->
<!-- Title: snakemake_dag Pages: 1 -->
<svg width="947pt" height="620pt"
 viewBox="0.00 0.00 946.77 620.00" xmlns="http://www.w3.org/2000/svg" xmlns:xlink="http://www.w3.org/1999/xlink">
<g id="graph0" class="graph" transform="scale(1 1) rotate(0) translate(4 616)">
<title>snakemake_dag</title>
<polygon fill="white" stroke="white" points="-4,5 -4,-616 943.775,-616 943.775,5 -4,5"/>
<!-- 0 -->
<g id="node1" class="node"><title>0</title>
<path fill="none" stroke="#d89556" stroke-width="2" d="M519,-36C519,-36 489,-36 489,-36 483,-36 477,-30 477,-24 477,-24 477,-12 477,-12 477,-6 483,-0 489,-0 489,-0 519,-0 519,-0 525,-0 531,-6 531,-12 531,-12 531,-24 531,-24 531,-30 525,-36 519,-36"/>
<text text-anchor="middle" x="504" y="-15.5" font-family="sans" font-size="10.00">all</text>
</g>
<!-- 1 -->
<g id="node2" class="node"><title>1</title>
<path fill="none" stroke="#59d856" stroke-width="2" d="M256,-180C256,-180 226,-180 226,-180 220,-180 214,-174 214,-168 214,-168 214,-156 214,-156 214,-150 220,-144 226,-144 226,-144 256,-144 256,-144 262,-144 268,-150 268,-156 268,-156 268,-168 268,-168 268,-174 262,-180 256,-180"/>
<text text-anchor="middle" x="241" y="-159.5" font-family="sans" font-size="10.00">fastqc</text>
</g>
<!-- 1&#45;&gt;0 -->
<g id="edge10" class="edge"><title>1&#45;&gt;0</title>
<path fill="none" stroke="grey" stroke-width="2" d="M253.493,-143.705C268.856,-123.646 296.767,-90.9193 328,-72 371.785,-45.4779 429.805,-31.3836 467.027,-24.5562"/>
<polygon fill="grey" stroke="grey" points="467.699,-27.9919 476.945,-22.8189 466.491,-21.0968 467.699,-27.9919"/>
</g>
<!-- 14 -->
<g id="node15" class="node"><title>14</title>
<path fill="none" stroke="#d88556" stroke-width="2" d="M248,-108C248,-108 218,-108 218,-108 212,-108 206,-102 206,-96 206,-96 206,-84 206,-84 206,-78 212,-72 218,-72 218,-72 248,-72 248,-72 254,-72 260,-78 260,-84 260,-84 260,-96 260,-96 260,-102 254,-108 248,-108"/>
<text text-anchor="middle" x="233" y="-87.5" font-family="sans" font-size="10.00">multiqc</text>
</g>
<!-- 1&#45;&gt;14 -->
<g id="edge34" class="edge"><title>1&#45;&gt;14</title>
<path fill="none" stroke="grey" stroke-width="2" d="M239.022,-143.697C238.141,-135.983 237.081,-126.712 236.099,-118.112"/>
<polygon fill="grey" stroke="grey" points="239.568,-117.642 234.955,-108.104 232.613,-118.437 239.568,-117.642"/>
</g>
<!-- 2 -->
<g id="node3" class="node"><title>2</title>
<path fill="none" stroke="#97d856" stroke-width="2" d="M353.25,-180C353.25,-180 298.75,-180 298.75,-180 292.75,-180 286.75,-174 286.75,-168 286.75,-168 286.75,-156 286.75,-156 286.75,-150 292.75,-144 298.75,-144 298.75,-144 353.25,-144 353.25,-144 359.25,-144 365.25,-150 365.25,-156 365.25,-156 365.25,-168 365.25,-168 365.25,-174 359.25,-180 353.25,-180"/>
<text text-anchor="middle" x="326" y="-159.5" font-family="sans" font-size="10.00">fastq_screen</text>
</g>
<!-- 2&#45;&gt;0 -->
<g id="edge7" class="edge"><title>2&#45;&gt;0</title>
<path fill="none" stroke="grey" stroke-width="2" d="M326.035,-143.997C326.992,-124.22 331.538,-91.7638 350,-72 380.349,-39.5118 431.512,-26.9383 466.473,-22.0722"/>
<polygon fill="grey" stroke="grey" points="467.268,-25.5004 476.761,-20.7959 466.406,-18.5537 467.268,-25.5004"/>
</g>
<!-- 2&#45;&gt;14 -->
<g id="edge35" class="edge"><title>2&#45;&gt;14</title>
<path fill="none" stroke="grey" stroke-width="2" d="M303.011,-143.697C291.186,-134.796 276.608,-123.823 263.821,-114.199"/>
<polygon fill="grey" stroke="grey" points="265.819,-111.322 255.724,-108.104 261.609,-116.915 265.819,-111.322"/>
</g>
<!-- 3 -->
<g id="node4" class="node"><title>3</title>
<path fill="none" stroke="#c6d856" stroke-width="2" d="M490,-252C490,-252 446,-252 446,-252 440,-252 434,-246 434,-240 434,-240 434,-228 434,-228 434,-222 440,-216 446,-216 446,-216 490,-216 490,-216 496,-216 502,-222 502,-228 502,-228 502,-240 502,-240 502,-246 496,-252 490,-252"/>
<text text-anchor="middle" x="468" y="-231.5" font-family="sans" font-size="10.00">consensus</text>
</g>
<!-- 3&#45;&gt;0 -->
<g id="edge5" class="edge"><title>3&#45;&gt;0</title>
<path fill="none" stroke="grey" stroke-width="2" d="M483.61,-215.774C491.373,-206.03 499.946,-193.184 504,-180 517.877,-134.874 513.442,-79.2082 508.818,-46.5553"/>
<polygon fill="grey" stroke="grey" points="512.239,-45.7694 507.269,-36.4124 505.319,-46.8262 512.239,-45.7694"/>
</g>
<!-- 15 -->
<g id="node16" class="node"><title>15</title>
<path fill="none" stroke="#56c1d8" stroke-width="2" d="M612,-180C612,-180 582,-180 582,-180 576,-180 570,-174 570,-168 570,-168 570,-156 570,-156 570,-150 576,-144 582,-144 582,-144 612,-144 612,-144 618,-144 624,-150 624,-156 624,-156 624,-168 624,-168 624,-174 618,-180 612,-180"/>
<text text-anchor="middle" x="597" y="-159.5" font-family="sans" font-size="10.00">deseq2</text>
</g>
<!-- 3&#45;&gt;15 -->
<g id="edge38" class="edge"><title>3&#45;&gt;15</title>
<path fill="none" stroke="grey" stroke-width="2" d="M499.557,-215.876C518.102,-205.813 541.614,-193.055 560.895,-182.592"/>
<polygon fill="grey" stroke="grey" points="562.582,-185.659 569.702,-177.813 559.243,-179.506 562.582,-185.659"/>
</g>
<!-- 17 -->
<g id="node18" class="node"><title>17</title>
<path fill="none" stroke="#d6d856" stroke-width="2" d="M483,-180C483,-180 453,-180 453,-180 447,-180 441,-174 441,-168 441,-168 441,-156 441,-156 441,-150 447,-144 453,-144 453,-144 483,-144 483,-144 489,-144 495,-150 495,-156 495,-156 495,-168 495,-168 495,-174 489,-180 483,-180"/>
<text text-anchor="middle" x="468" y="-159.5" font-family="sans" font-size="10.00">diffbind</text>
</g>
<!-- 3&#45;&gt;17 -->
<g id="edge40" class="edge"><title>3&#45;&gt;17</title>
<path fill="none" stroke="grey" stroke-width="2" d="M468,-215.697C468,-207.983 468,-198.712 468,-190.112"/>
<polygon fill="grey" stroke="grey" points="471.5,-190.104 468,-180.104 464.5,-190.104 471.5,-190.104"/>
</g>
<!-- 4 -->
<g id="node5" class="node"><title>4</title>
<path fill="none" stroke="#569ad8" stroke-width="2" d="M487.25,-324C487.25,-324 448.75,-324 448.75,-324 442.75,-324 436.75,-318 436.75,-312 436.75,-312 436.75,-300 436.75,-300 436.75,-294 442.75,-288 448.75,-288 448.75,-288 487.25,-288 487.25,-288 493.25,-288 499.25,-294 499.25,-300 499.25,-300 499.25,-312 499.25,-312 499.25,-318 493.25,-324 487.25,-324"/>
<text text-anchor="middle" x="468" y="-303.5" font-family="sans" font-size="10.00">callpeaks</text>
</g>
<!-- 4&#45;&gt;0 -->
<g id="edge18" class="edge"><title>4&#45;&gt;0</title>
<path fill="none" stroke="grey" stroke-width="2" d="M450.932,-287.638C442.122,-277.855 431.82,-265.014 425,-252 405.934,-215.619 360.525,-106.38 383,-72 401.441,-43.7907 438.582,-30.5033 466.877,-24.3018"/>
<polygon fill="grey" stroke="grey" points="467.723,-27.7024 476.851,-22.3232 466.361,-20.8362 467.723,-27.7024"/>
</g>
<!-- 4&#45;&gt;3 -->
<g id="edge20" class="edge"><title>4&#45;&gt;3</title>
<path fill="none" stroke="grey" stroke-width="2" d="M468,-287.697C468,-279.983 468,-270.712 468,-262.112"/>
<polygon fill="grey" stroke="grey" points="471.5,-262.104 468,-252.104 464.5,-262.104 471.5,-262.104"/>
</g>
<!-- 13 -->
<g id="node14" class="node"><title>13</title>
<path fill="none" stroke="#80d856" stroke-width="2" d="M184,-180C184,-180 154,-180 154,-180 148,-180 142,-174 142,-168 142,-168 142,-156 142,-156 142,-150 148,-144 154,-144 154,-144 184,-144 184,-144 190,-144 196,-150 196,-156 196,-156 196,-168 196,-168 196,-174 190,-180 184,-180"/>
<text text-anchor="middle" x="169" y="-159.5" font-family="sans" font-size="10.00">frip</text>
</g>
<!-- 4&#45;&gt;13 -->
<g id="edge32" class="edge"><title>4&#45;&gt;13</title>
<path fill="none" stroke="grey" stroke-width="2" d="M436.567,-290.072C380.749,-263.563 264.646,-208.424 205.434,-180.303"/>
<polygon fill="grey" stroke="grey" points="206.628,-176.996 196.094,-175.867 203.625,-183.319 206.628,-176.996"/>
</g>
<!-- 22 -->
<g id="node23" class="node"><title>22</title>
<path fill="none" stroke="#56a9d8" stroke-width="2" d="M639.25,-252C639.25,-252 532.75,-252 532.75,-252 526.75,-252 520.75,-246 520.75,-240 520.75,-240 520.75,-228 520.75,-228 520.75,-222 526.75,-216 532.75,-216 532.75,-216 639.25,-216 639.25,-216 645.25,-216 651.25,-222 651.25,-228 651.25,-228 651.25,-240 651.25,-240 651.25,-246 645.25,-252 639.25,-252"/>
<text text-anchor="middle" x="586" y="-231.5" font-family="sans" font-size="10.00">make_high_conf_peaks</text>
</g>
<!-- 4&#45;&gt;22 -->
<g id="edge45" class="edge"><title>4&#45;&gt;22</title>
<path fill="none" stroke="grey" stroke-width="2" d="M496.866,-287.876C512.295,-278.724 531.481,-267.342 548.097,-257.485"/>
<polygon fill="grey" stroke="grey" points="550.208,-260.302 557.023,-252.19 546.637,-254.282 550.208,-260.302"/>
</g>
<!-- 5 -->
<g id="node6" class="node"><title>5</title>
<path fill="none" stroke="#566bd8" stroke-width="2" d="M505,-468C505,-468 469,-468 469,-468 463,-468 457,-462 457,-456 457,-456 457,-444 457,-444 457,-438 463,-432 469,-432 469,-432 505,-432 505,-432 511,-432 517,-438 517,-444 517,-444 517,-456 517,-456 517,-462 511,-468 505,-468"/>
<text text-anchor="middle" x="487" y="-447.5" font-family="sans" font-size="10.00">markdup</text>
</g>
<!-- 5&#45;&gt;0 -->
<g id="edge19" class="edge"><title>5&#45;&gt;0</title>
<path fill="none" stroke="grey" stroke-width="2" d="M456.903,-446.8C350.727,-438.226 0,-402.665 0,-307 0,-307 0,-307 0,-161 0,-106.913 34.8451,-96.6279 83,-72 149.796,-37.8386 376.815,-24.4862 466.81,-20.4555"/>
<polygon fill="grey" stroke="grey" points="466.998,-23.9508 476.837,-20.0199 466.695,-16.9573 466.998,-23.9508"/>
</g>
<!-- 5&#45;&gt;4 -->
<g id="edge22" class="edge"><title>5&#45;&gt;4</title>
<path fill="none" stroke="grey" stroke-width="2" d="M484.708,-431.871C481.47,-407.67 475.521,-363.211 471.665,-334.393"/>
<polygon fill="grey" stroke="grey" points="475.095,-333.637 470.3,-324.189 468.157,-334.565 475.095,-333.637"/>
</g>
<!-- 8 -->
<g id="node9" class="node"><title>8</title>
<path fill="none" stroke="#5682d8" stroke-width="2" d="M576,-396C576,-396 546,-396 546,-396 540,-396 534,-390 534,-384 534,-384 534,-372 534,-372 534,-366 540,-360 546,-360 546,-360 576,-360 576,-360 582,-360 588,-366 588,-372 588,-372 588,-384 588,-384 588,-390 582,-396 576,-396"/>
<text text-anchor="middle" x="561" y="-375.5" font-family="sans" font-size="10.00">index</text>
</g>
<!-- 5&#45;&gt;8 -->
<g id="edge25" class="edge"><title>5&#45;&gt;8</title>
<path fill="none" stroke="grey" stroke-width="2" d="M505.292,-431.697C514.433,-423.05 525.64,-412.449 535.6,-403.027"/>
<polygon fill="grey" stroke="grey" points="538.059,-405.519 542.918,-396.104 533.248,-400.434 538.059,-405.519"/>
</g>
<!-- 9 -->
<g id="node10" class="node"><title>9</title>
<path fill="none" stroke="#d8ac56" stroke-width="2" d="M899.25,-180C899.25,-180 856.75,-180 856.75,-180 850.75,-180 844.75,-174 844.75,-168 844.75,-168 844.75,-156 844.75,-156 844.75,-150 850.75,-144 856.75,-144 856.75,-144 899.25,-144 899.25,-144 905.25,-144 911.25,-150 911.25,-156 911.25,-156 911.25,-168 911.25,-168 911.25,-174 905.25,-180 899.25,-180"/>
<text text-anchor="middle" x="878" y="-159.5" font-family="sans" font-size="10.00">fraglength</text>
</g>
<!-- 5&#45;&gt;9 -->
<g id="edge26" class="edge"><title>5&#45;&gt;9</title>
<path fill="none" stroke="grey" stroke-width="2" d="M517.018,-440.599C545.528,-431.875 588.97,-416.611 623,-396 721.713,-336.213 816.117,-234.644 856.906,-187.897"/>
<polygon fill="grey" stroke="grey" points="859.765,-189.942 863.663,-180.09 854.472,-185.361 859.765,-189.942"/>
</g>
<!-- 10 -->
<g id="node11" class="node"><title>10</title>
<path fill="none" stroke="#68d856" stroke-width="2" d="M576,-324C576,-324 546,-324 546,-324 540,-324 534,-318 534,-312 534,-312 534,-300 534,-300 534,-294 540,-288 546,-288 546,-288 576,-288 576,-288 582,-288 588,-294 588,-300 588,-300 588,-312 588,-312 588,-318 582,-324 576,-324"/>
<text text-anchor="middle" x="561" y="-303.5" font-family="sans" font-size="10.00">tracks</text>
</g>
<!-- 5&#45;&gt;10 -->
<g id="edge28" class="edge"><title>5&#45;&gt;10</title>
<path fill="none" stroke="grey" stroke-width="2" d="M493.202,-431.812C500.053,-413.542 511.868,-384.032 525,-360 530.067,-350.727 536.331,-341.038 542.206,-332.518"/>
<polygon fill="grey" stroke="grey" points="545.218,-334.319 548.12,-324.129 539.497,-330.285 545.218,-334.319"/>
</g>
<!-- 11 -->
<g id="node12" class="node"><title>11</title>
<path fill="none" stroke="#56d86b" stroke-width="2" d="M111.25,-180C111.25,-180 40.75,-180 40.75,-180 34.75,-180 28.75,-174 28.75,-168 28.75,-168 28.75,-156 28.75,-156 28.75,-150 34.75,-144 40.75,-144 40.75,-144 111.25,-144 111.25,-144 117.25,-144 123.25,-150 123.25,-156 123.25,-156 123.25,-168 123.25,-168 123.25,-174 117.25,-180 111.25,-180"/>
<text text-anchor="middle" x="76" y="-159.5" font-family="sans" font-size="10.00">preseq_lcextrap</text>
</g>
<!-- 5&#45;&gt;11 -->
<g id="edge29" class="edge"><title>5&#45;&gt;11</title>
<path fill="none" stroke="grey" stroke-width="2" d="M456.557,-434.415C436.379,-424.375 409.567,-410.311 387,-396 278.027,-326.892 158.285,-230.986 104.696,-186.903"/>
<polygon fill="grey" stroke="grey" points="106.616,-183.95 96.6749,-180.285 102.161,-189.349 106.616,-183.95"/>
</g>
<!-- 12 -->
<g id="node13" class="node"><title>12</title>
<path fill="none" stroke="#56d8c1" stroke-width="2" d="M659.25,-324C659.25,-324 618.75,-324 618.75,-324 612.75,-324 606.75,-318 606.75,-312 606.75,-312 606.75,-300 606.75,-300 606.75,-294 612.75,-288 618.75,-288 618.75,-288 659.25,-288 659.25,-288 665.25,-288 671.25,-294 671.25,-300 671.25,-300 671.25,-312 671.25,-312 671.25,-318 665.25,-324 659.25,-324"/>
<text text-anchor="middle" x="639" y="-303.5" font-family="sans" font-size="10.00">plotFinger</text>
</g>
<!-- 5&#45;&gt;12 -->
<g id="edge31" class="edge"><title>5&#45;&gt;12</title>
<path fill="none" stroke="grey" stroke-width="2" d="M517.417,-440.553C541.592,-432.508 574.905,-418.274 597,-396 614.135,-378.726 625.203,-353.13 631.652,-333.816"/>
<polygon fill="grey" stroke="grey" points="635.047,-334.684 634.689,-324.096 628.366,-332.596 635.047,-334.684"/>
</g>
<!-- 5&#45;&gt;13 -->
<g id="edge33" class="edge"><title>5&#45;&gt;13</title>
<path fill="none" stroke="grey" stroke-width="2" d="M468.06,-431.966C413.949,-383.3 258.539,-243.529 195.773,-187.079"/>
<polygon fill="grey" stroke="grey" points="198.019,-184.391 188.243,-180.306 193.338,-189.596 198.019,-184.391"/>
</g>
<!-- 6 -->
<g id="node7" class="node"><title>6</title>
<path fill="none" stroke="#d8c356" stroke-width="2" d="M502,-540C502,-540 472,-540 472,-540 466,-540 460,-534 460,-528 460,-528 460,-516 460,-516 460,-510 466,-504 472,-504 472,-504 502,-504 502,-504 508,-504 514,-510 514,-516 514,-516 514,-528 514,-528 514,-534 508,-540 502,-540"/>
<text text-anchor="middle" x="487" y="-519.5" font-family="sans" font-size="10.00">sort</text>
</g>
<!-- 6&#45;&gt;5 -->
<g id="edge23" class="edge"><title>6&#45;&gt;5</title>
<path fill="none" stroke="grey" stroke-width="2" d="M487,-503.697C487,-495.983 487,-486.712 487,-478.112"/>
<polygon fill="grey" stroke="grey" points="490.5,-478.104 487,-468.104 483.5,-478.104 490.5,-478.104"/>
</g>
<!-- 7 -->
<g id="node8" class="node"><title>7</title>
<path fill="none" stroke="#d86e56" stroke-width="2" d="M503,-612C503,-612 471,-612 471,-612 465,-612 459,-606 459,-600 459,-600 459,-588 459,-588 459,-582 465,-576 471,-576 471,-576 503,-576 503,-576 509,-576 515,-582 515,-588 515,-588 515,-600 515,-600 515,-606 509,-612 503,-612"/>
<text text-anchor="middle" x="487" y="-591.5" font-family="sans" font-size="10.00">bowtie2</text>
</g>
<!-- 7&#45;&gt;6 -->
<g id="edge24" class="edge"><title>7&#45;&gt;6</title>
<path fill="none" stroke="grey" stroke-width="2" d="M487,-575.697C487,-567.983 487,-558.712 487,-550.112"/>
<polygon fill="grey" stroke="grey" points="490.5,-550.104 487,-540.104 483.5,-550.104 490.5,-550.104"/>
</g>
<!-- 8&#45;&gt;4 -->
<g id="edge21" class="edge"><title>8&#45;&gt;4</title>
<path fill="none" stroke="grey" stroke-width="2" d="M538.011,-359.697C526.186,-350.796 511.608,-339.823 498.821,-330.199"/>
<polygon fill="grey" stroke="grey" points="500.819,-327.322 490.724,-324.104 496.609,-332.915 500.819,-327.322"/>
</g>
<!-- 8&#45;&gt;10 -->
<g id="edge27" class="edge"><title>8&#45;&gt;10</title>
<path fill="none" stroke="grey" stroke-width="2" d="M561,-359.697C561,-351.983 561,-342.712 561,-334.112"/>
<polygon fill="grey" stroke="grey" points="564.5,-334.104 561,-324.104 557.5,-334.104 564.5,-334.104"/>
</g>
<!-- 8&#45;&gt;12 -->
<g id="edge30" class="edge"><title>8&#45;&gt;12</title>
<path fill="none" stroke="grey" stroke-width="2" d="M580.281,-359.697C589.915,-351.05 601.729,-340.449 612.227,-331.027"/>
<polygon fill="grey" stroke="grey" points="614.836,-333.388 619.941,-324.104 610.161,-328.179 614.836,-333.388"/>
</g>
<!-- 9&#45;&gt;0 -->
<g id="edge3" class="edge"><title>9&#45;&gt;0</title>
<path fill="none" stroke="grey" stroke-width="2" d="M901.105,-143.728C923.607,-124.858 951.748,-94.3445 932,-72 906.256,-42.8714 640.597,-26.1229 541.233,-20.8384"/>
<polygon fill="grey" stroke="grey" points="541.223,-17.3332 531.053,-20.3064 540.857,-24.3236 541.223,-17.3332"/>
</g>
<!-- 19 -->
<g id="node20" class="node"><title>19</title>
<path fill="none" stroke="#56d8d8" stroke-width="2" d="M911.25,-108C911.25,-108 844.75,-108 844.75,-108 838.75,-108 832.75,-102 832.75,-96 832.75,-96 832.75,-84 832.75,-84 832.75,-78 838.75,-72 844.75,-72 844.75,-72 911.25,-72 911.25,-72 917.25,-72 923.25,-78 923.25,-84 923.25,-84 923.25,-96 923.25,-96 923.25,-102 917.25,-108 911.25,-108"/>
<text text-anchor="middle" x="878" y="-87.5" font-family="sans" font-size="10.00">fraglength_plot</text>
</g>
<!-- 9&#45;&gt;19 -->
<g id="edge42" class="edge"><title>9&#45;&gt;19</title>
<path fill="none" stroke="grey" stroke-width="2" d="M878,-143.697C878,-135.983 878,-126.712 878,-118.112"/>
<polygon fill="grey" stroke="grey" points="881.5,-118.104 878,-108.104 874.5,-118.104 881.5,-118.104"/>
</g>
<!-- 10&#45;&gt;0 -->
<g id="edge9" class="edge"><title>10&#45;&gt;0</title>
<path fill="none" stroke="grey" stroke-width="2" d="M588.273,-291.411C591.185,-290.174 594.131,-289.01 597,-288 661.672,-265.242 704.553,-305.84 747,-252 756.906,-239.435 748.746,-231.904 747,-216 739.846,-150.83 760.719,-118.99 715,-72 691.11,-47.4457 595.126,-31.0773 541.219,-23.623"/>
<polygon fill="grey" stroke="grey" points="541.41,-20.1173 531.032,-22.2513 540.476,-27.0546 541.41,-20.1173"/>
</g>
<!-- 21 -->
<g id="node22" class="node"><title>21</title>
<path fill="none" stroke="#d85656" stroke-width="2" d="M726,-252C726,-252 682,-252 682,-252 676,-252 670,-246 670,-240 670,-240 670,-228 670,-228 670,-222 676,-216 682,-216 682,-216 726,-216 726,-216 732,-216 738,-222 738,-228 738,-228 738,-240 738,-240 738,-246 732,-252 726,-252"/>
<text text-anchor="middle" x="704" y="-231.5" font-family="sans" font-size="10.00">merge_bw</text>
</g>
<!-- 10&#45;&gt;21 -->
<g id="edge44" class="edge"><title>10&#45;&gt;21</title>
<path fill="none" stroke="grey" stroke-width="2" d="M588.234,-291.669C608.694,-281.653 637.127,-267.735 660.694,-256.199"/>
<polygon fill="grey" stroke="grey" points="662.349,-259.285 669.792,-251.745 659.271,-252.998 662.349,-259.285"/>
</g>
<!-- 11&#45;&gt;0 -->
<g id="edge11" class="edge"><title>11&#45;&gt;0</title>
<path fill="none" stroke="grey" stroke-width="2" d="M77.6247,-143.875C80.5482,-123.345 88.6597,-89.5211 111,-72 165.799,-29.0218 379.43,-20.8725 466.625,-19.3446"/>
<polygon fill="grey" stroke="grey" points="466.911,-22.8407 476.855,-19.1859 466.802,-15.8415 466.911,-22.8407"/>
</g>
<!-- 11&#45;&gt;14 -->
<g id="edge36" class="edge"><title>11&#45;&gt;14</title>
<path fill="none" stroke="grey" stroke-width="2" d="M114.976,-143.96C138.483,-133.639 169.006,-120.162 196,-108 196.201,-107.909 196.403,-107.818 196.606,-107.727"/>
<polygon fill="grey" stroke="grey" points="198.285,-110.809 205.943,-103.487 195.391,-104.435 198.285,-110.809"/>
</g>
<!-- 12&#45;&gt;0 -->
<g id="edge14" class="edge"><title>12&#45;&gt;0</title>
<path fill="none" stroke="grey" stroke-width="2" d="M671.456,-301.195C701.183,-295.799 743.568,-282.856 764,-252 808.497,-184.802 799.722,-128.248 742,-72 713.829,-44.5481 601.134,-29.0225 541.481,-22.5746"/>
<polygon fill="grey" stroke="grey" points="541.65,-19.0732 531.339,-21.5108 540.919,-26.035 541.65,-19.0732"/>
</g>
<!-- 13&#45;&gt;0 -->
<g id="edge8" class="edge"><title>13&#45;&gt;0</title>
<path fill="none" stroke="grey" stroke-width="2" d="M148.276,-143.882C127.723,-124.872 101.858,-93.9734 121,-72 165.655,-20.7397 379.414,-17.4162 466.726,-18.2628"/>
<polygon fill="grey" stroke="grey" points="466.928,-21.7654 476.97,-18.3873 467.013,-14.766 466.928,-21.7654"/>
</g>
<!-- 13&#45;&gt;14 -->
<g id="edge37" class="edge"><title>13&#45;&gt;14</title>
<path fill="none" stroke="grey" stroke-width="2" d="M184.82,-143.697C192.57,-135.22 202.039,-124.864 210.524,-115.583"/>
<polygon fill="grey" stroke="grey" points="213.197,-117.846 217.362,-108.104 208.031,-113.123 213.197,-117.846"/>
</g>
<!-- 20 -->
<g id="node21" class="node"><title>20</title>
<path fill="none" stroke="#56d89a" stroke-width="2" d="M175.25,-108C175.25,-108 142.75,-108 142.75,-108 136.75,-108 130.75,-102 130.75,-96 130.75,-96 130.75,-84 130.75,-84 130.75,-78 136.75,-72 142.75,-72 142.75,-72 175.25,-72 175.25,-72 181.25,-72 187.25,-78 187.25,-84 187.25,-84 187.25,-96 187.25,-96 187.25,-102 181.25,-108 175.25,-108"/>
<text text-anchor="middle" x="159" y="-87.5" font-family="sans" font-size="10.00">frip_plot</text>
</g>
<!-- 13&#45;&gt;20 -->
<g id="edge43" class="edge"><title>13&#45;&gt;20</title>
<path fill="none" stroke="grey" stroke-width="2" d="M166.528,-143.697C165.426,-135.983 164.102,-126.712 162.873,-118.112"/>
<polygon fill="grey" stroke="grey" points="166.323,-117.509 161.443,-108.104 159.393,-118.499 166.323,-117.509"/>
</g>
<!-- 14&#45;&gt;0 -->
<g id="edge2" class="edge"><title>14&#45;&gt;0</title>
<path fill="none" stroke="grey" stroke-width="2" d="M260.111,-77.0175C264.699,-75.2044 269.45,-73.4564 274,-72 340.62,-50.6768 420.66,-34.225 466.602,-25.629"/>
<polygon fill="grey" stroke="grey" points="467.496,-29.023 476.694,-23.7647 466.225,-22.1395 467.496,-29.023"/>
</g>
<!-- 15&#45;&gt;0 -->
<g id="edge16" class="edge"><title>15&#45;&gt;0</title>
<path fill="none" stroke="grey" stroke-width="2" d="M591.058,-143.677C584.212,-125.033 571.84,-94.967 556,-72 548.924,-61.7409 539.776,-51.6716 531.131,-43.1119"/>
<polygon fill="grey" stroke="grey" points="533.367,-40.4071 523.727,-36.0115 528.522,-45.4593 533.367,-40.4071"/>
</g>
<!-- 16 -->
<g id="node17" class="node"><title>16</title>
<path fill="none" stroke="#56d8a9" stroke-width="2" d="M650,-108C650,-108 620,-108 620,-108 614,-108 608,-102 608,-96 608,-96 608,-84 608,-84 608,-78 614,-72 620,-72 620,-72 650,-72 650,-72 656,-72 662,-78 662,-84 662,-84 662,-96 662,-96 662,-102 656,-108 650,-108"/>
<text text-anchor="middle" x="635" y="-87.5" font-family="sans" font-size="10.00">homer</text>
</g>
<!-- 15&#45;&gt;16 -->
<g id="edge39" class="edge"><title>15&#45;&gt;16</title>
<path fill="none" stroke="grey" stroke-width="2" d="M606.393,-143.697C610.765,-135.644 616.057,-125.894 620.895,-116.982"/>
<polygon fill="grey" stroke="grey" points="624.02,-118.563 625.715,-108.104 617.868,-115.223 624.02,-118.563"/>
</g>
<!-- 16&#45;&gt;0 -->
<g id="edge13" class="edge"><title>16&#45;&gt;0</title>
<path fill="none" stroke="grey" stroke-width="2" d="M607.857,-74.496C588.184,-63.9839 561.384,-49.6634 539.936,-38.2027"/>
<polygon fill="grey" stroke="grey" points="541.578,-35.1115 531.109,-33.4855 538.279,-41.2853 541.578,-35.1115"/>
</g>
<!-- 17&#45;&gt;0 -->
<g id="edge4" class="edge"><title>17&#45;&gt;0</title>
<path fill="none" stroke="grey" stroke-width="2" d="M473.503,-143.903C476.746,-133.563 480.823,-120.084 484,-108 489.403,-87.4525 494.635,-63.999 498.393,-46.3282"/>
<polygon fill="grey" stroke="grey" points="501.9,-46.6564 500.53,-36.1505 495.049,-45.2179 501.9,-46.6564"/>
</g>
<!-- 18 -->
<g id="node19" class="node"><title>18</title>
<path fill="none" stroke="#afd856" stroke-width="2" d="M463.25,-108C463.25,-108 404.75,-108 404.75,-108 398.75,-108 392.75,-102 392.75,-96 392.75,-96 392.75,-84 392.75,-84 392.75,-78 398.75,-72 404.75,-72 404.75,-72 463.25,-72 463.25,-72 469.25,-72 475.25,-78 475.25,-84 475.25,-84 475.25,-96 475.25,-96 475.25,-102 469.25,-108 463.25,-108"/>
<text text-anchor="middle" x="434" y="-87.5" font-family="sans" font-size="10.00">diffbind_plots</text>
</g>
<!-- 17&#45;&gt;18 -->
<g id="edge41" class="edge"><title>17&#45;&gt;18</title>
<path fill="none" stroke="grey" stroke-width="2" d="M459.596,-143.697C455.725,-135.728 451.048,-126.1 446.757,-117.264"/>
<polygon fill="grey" stroke="grey" points="449.825,-115.57 442.308,-108.104 443.529,-118.629 449.825,-115.57"/>
</g>
<!-- 18&#45;&gt;0 -->
<g id="edge6" class="edge"><title>18&#45;&gt;0</title>
<path fill="none" stroke="grey" stroke-width="2" d="M451.303,-71.6966C459.865,-63.135 470.344,-52.6562 479.696,-43.3045"/>
<polygon fill="grey" stroke="grey" points="482.299,-45.6503 486.896,-36.1043 477.35,-40.7005 482.299,-45.6503"/>
</g>
<!-- 19&#45;&gt;0 -->
<g id="edge15" class="edge"><title>19&#45;&gt;0</title>
<path fill="none" stroke="grey" stroke-width="2" d="M832.596,-75.5741C827.689,-74.2909 822.753,-73.0711 818,-72 718.789,-49.6419 600.025,-32.0492 541.036,-23.9179"/>
<polygon fill="grey" stroke="grey" points="541.457,-20.4429 531.075,-22.5566 540.509,-27.3784 541.457,-20.4429"/>
</g>
<!-- 20&#45;&gt;0 -->
<g id="edge12" class="edge"><title>20&#45;&gt;0</title>
<path fill="none" stroke="grey" stroke-width="2" d="M187.34,-75.4059C190.556,-74.1389 193.82,-72.9692 197,-72 291.734,-43.1299 408.006,-28.4446 466.543,-22.4222"/>
<polygon fill="grey" stroke="grey" points="467.181,-25.8759 476.782,-21.397 466.483,-18.9107 467.181,-25.8759"/>
</g>
<!-- 21&#45;&gt;0 -->
<g id="edge1" class="edge"><title>21&#45;&gt;0</title>
<path fill="none" stroke="grey" stroke-width="2" d="M708.376,-215.645C715.398,-183.366 725.172,-113.607 691,-72 672.055,-48.9332 589.986,-32.4361 541.088,-24.4448"/>
<polygon fill="grey" stroke="grey" points="541.618,-20.9851 531.192,-22.8693 540.517,-27.8981 541.618,-20.9851"/>
</g>
<!-- 22&#45;&gt;0 -->
<g id="edge17" class="edge"><title>22&#45;&gt;0</title>
<path fill="none" stroke="grey" stroke-width="2" d="M607.388,-215.837C642.801,-185.332 706.372,-120.337 671,-72 641.401,-31.5519 580.718,-21.2156 541.229,-18.9851"/>
<polygon fill="grey" stroke="grey" points="541.325,-15.4862 531.188,-18.5657 541.033,-22.4801 541.325,-15.4862"/>
</g>
</g>
</svg>
