<?xml version="1.0" encoding="UTF-8" standalone="no"?>
<!DOCTYPE svg PUBLIC "-//W3C//DTD SVG 1.1//EN"
 "http://www.w3.org/Graphics/SVG/1.1/DTD/svg11.dtd">
<!-- Generated by graphviz version 2.30.1 (20180420.1509)
 -->
<!-- Title: snakemake_dag Pages: 1 -->
<svg width="913pt" height="692pt"
 viewBox="0.00 0.00 913.00 692.00" xmlns="http://www.w3.org/2000/svg" xmlns:xlink="http://www.w3.org/1999/xlink">
<g id="graph0" class="graph" transform="scale(1 1) rotate(0) translate(4 688)">
<title>snakemake_dag</title>
<polygon fill="white" stroke="white" points="-4,5 -4,-688 910,-688 910,5 -4,5"/>
<!-- 0 -->
<g id="node1" class="node"><title>0</title>
<path fill="none" stroke="#d86e56" stroke-width="2" d="M447,-36C447,-36 417,-36 417,-36 411,-36 405,-30 405,-24 405,-24 405,-12 405,-12 405,-6 411,-0 417,-0 417,-0 447,-0 447,-0 453,-0 459,-6 459,-12 459,-12 459,-24 459,-24 459,-30 453,-36 447,-36"/>
<text text-anchor="middle" x="432" y="-15.5" font-family="sans" font-size="10.00">all</text>
</g>
<!-- 1 -->
<g id="node2" class="node"><title>1</title>
<path fill="none" stroke="#d8c356" stroke-width="2" d="M339,-684C339,-684 309,-684 309,-684 303,-684 297,-678 297,-672 297,-672 297,-660 297,-660 297,-654 303,-648 309,-648 309,-648 339,-648 339,-648 345,-648 351,-654 351,-660 351,-660 351,-672 351,-672 351,-678 345,-684 339,-684"/>
<text text-anchor="middle" x="324" y="-663.5" font-family="sans" font-size="10.00">fastp</text>
</g>
<!-- 1&#45;&gt;0 -->
<g id="edge11" class="edge"><title>1&#45;&gt;0</title>
<path fill="none" stroke="grey" stroke-width="2" d="M296.933,-665.389C219.063,-664.964 0,-652.279 0,-523 0,-523 0,-523 0,-161 0,-112.279 22.3425,-97.2662 64,-72 119.186,-38.5286 312.724,-25.0086 394.779,-20.6945"/>
<polygon fill="grey" stroke="grey" points="395.096,-24.183 404.906,-20.1794 394.741,-17.192 395.096,-24.183"/>
</g>
<!-- 2 -->
<g id="node3" class="node"><title>2</title>
<path fill="none" stroke="#d88556" stroke-width="2" d="M893,-180C893,-180 863,-180 863,-180 857,-180 851,-174 851,-168 851,-168 851,-156 851,-156 851,-150 857,-144 863,-144 863,-144 893,-144 893,-144 899,-144 905,-150 905,-156 905,-156 905,-168 905,-168 905,-174 899,-180 893,-180"/>
<text text-anchor="middle" x="878" y="-159.5" font-family="sans" font-size="10.00">fastqc</text>
</g>
<!-- 1&#45;&gt;2 -->
<g id="edge19" class="edge"><title>1&#45;&gt;2</title>
<path fill="none" stroke="grey" stroke-width="2" d="M351.027,-663.858C460.996,-658.493 869,-631.288 869,-523 869,-523 869,-523 869,-305 869,-264.916 872.616,-218.594 875.264,-190.048"/>
<polygon fill="grey" stroke="grey" points="878.754,-190.315 876.222,-180.027 871.786,-189.649 878.754,-190.315"/>
</g>
<!-- 8 -->
<g id="node9" class="node"><title>8</title>
<path fill="none" stroke="#a7d856" stroke-width="2" d="M340,-612C340,-612 308,-612 308,-612 302,-612 296,-606 296,-600 296,-600 296,-588 296,-588 296,-582 302,-576 308,-576 308,-576 340,-576 340,-576 346,-576 352,-582 352,-588 352,-588 352,-600 352,-600 352,-606 346,-612 340,-612"/>
<text text-anchor="middle" x="324" y="-591.5" font-family="sans" font-size="10.00">bowtie2</text>
</g>
<!-- 1&#45;&gt;8 -->
<g id="edge25" class="edge"><title>1&#45;&gt;8</title>
<path fill="none" stroke="grey" stroke-width="2" d="M324,-647.697C324,-639.983 324,-630.712 324,-622.112"/>
<polygon fill="grey" stroke="grey" points="327.5,-622.104 324,-612.104 320.5,-622.104 327.5,-622.104"/>
</g>
<!-- 2&#45;&gt;0 -->
<g id="edge5" class="edge"><title>2&#45;&gt;0</title>
<path fill="none" stroke="grey" stroke-width="2" d="M875.19,-143.784C870.85,-123.163 860.427,-89.2469 837,-72 779.038,-29.3285 558.341,-21.0049 469.439,-19.3875"/>
<polygon fill="grey" stroke="grey" points="469.326,-15.8853 459.27,-19.2216 469.212,-22.8843 469.326,-15.8853"/>
</g>
<!-- 15 -->
<g id="node16" class="node"><title>15</title>
<path fill="none" stroke="#78d856" stroke-width="2" d="M720,-108C720,-108 690,-108 690,-108 684,-108 678,-102 678,-96 678,-96 678,-84 678,-84 678,-78 684,-72 690,-72 690,-72 720,-72 720,-72 726,-72 732,-78 732,-84 732,-84 732,-96 732,-96 732,-102 726,-108 720,-108"/>
<text text-anchor="middle" x="705" y="-87.5" font-family="sans" font-size="10.00">multiqc</text>
</g>
<!-- 2&#45;&gt;15 -->
<g id="edge37" class="edge"><title>2&#45;&gt;15</title>
<path fill="none" stroke="grey" stroke-width="2" d="M850.969,-150.062C821.601,-138.18 774.507,-119.124 741.785,-105.884"/>
<polygon fill="grey" stroke="grey" points="742.709,-102.482 732.126,-101.976 740.083,-108.971 742.709,-102.482"/>
</g>
<!-- 3 -->
<g id="node4" class="node"><title>3</title>
<path fill="none" stroke="#5682d8" stroke-width="2" d="M782.25,-180C782.25,-180 727.75,-180 727.75,-180 721.75,-180 715.75,-174 715.75,-168 715.75,-168 715.75,-156 715.75,-156 715.75,-150 721.75,-144 727.75,-144 727.75,-144 782.25,-144 782.25,-144 788.25,-144 794.25,-150 794.25,-156 794.25,-156 794.25,-168 794.25,-168 794.25,-174 788.25,-180 782.25,-180"/>
<text text-anchor="middle" x="755" y="-159.5" font-family="sans" font-size="10.00">fastq_screen</text>
</g>
<!-- 3&#45;&gt;0 -->
<g id="edge13" class="edge"><title>3&#45;&gt;0</title>
<path fill="none" stroke="grey" stroke-width="2" d="M757.68,-143.671C759.718,-123.579 759.562,-90.8205 741,-72 703.661,-34.1404 543.314,-23.1983 469.481,-20.1393"/>
<polygon fill="grey" stroke="grey" points="469.368,-16.6324 459.24,-19.7429 469.097,-23.6272 469.368,-16.6324"/>
</g>
<!-- 3&#45;&gt;15 -->
<g id="edge35" class="edge"><title>3&#45;&gt;15</title>
<path fill="none" stroke="grey" stroke-width="2" d="M742.64,-143.697C736.767,-135.474 729.631,-125.483 723.158,-116.421"/>
<polygon fill="grey" stroke="grey" points="725.878,-114.207 717.217,-108.104 720.182,-118.276 725.878,-114.207"/>
</g>
<!-- 4 -->
<g id="node5" class="node"><title>4</title>
<path fill="none" stroke="#56d87b" stroke-width="2" d="M396,-252C396,-252 352,-252 352,-252 346,-252 340,-246 340,-240 340,-240 340,-228 340,-228 340,-222 346,-216 352,-216 352,-216 396,-216 396,-216 402,-216 408,-222 408,-228 408,-228 408,-240 408,-240 408,-246 402,-252 396,-252"/>
<text text-anchor="middle" x="374" y="-231.5" font-family="sans" font-size="10.00">consensus</text>
</g>
<!-- 4&#45;&gt;0 -->
<g id="edge4" class="edge"><title>4&#45;&gt;0</title>
<path fill="none" stroke="grey" stroke-width="2" d="M387.557,-215.656C404.507,-192.628 432.351,-149.96 441,-108 445.206,-87.5943 442.532,-64.134 439.034,-46.4245"/>
<polygon fill="grey" stroke="grey" points="442.358,-45.2418 436.804,-36.2198 435.52,-46.7365 442.358,-45.2418"/>
</g>
<!-- 16 -->
<g id="node17" class="node"><title>16</title>
<path fill="none" stroke="#bed856" stroke-width="2" d="M389,-180C389,-180 359,-180 359,-180 353,-180 347,-174 347,-168 347,-168 347,-156 347,-156 347,-150 353,-144 359,-144 359,-144 389,-144 389,-144 395,-144 401,-150 401,-156 401,-156 401,-168 401,-168 401,-174 395,-180 389,-180"/>
<text text-anchor="middle" x="374" y="-159.5" font-family="sans" font-size="10.00">deseq2</text>
</g>
<!-- 4&#45;&gt;16 -->
<g id="edge39" class="edge"><title>4&#45;&gt;16</title>
<path fill="none" stroke="grey" stroke-width="2" d="M374,-215.697C374,-207.983 374,-198.712 374,-190.112"/>
<polygon fill="grey" stroke="grey" points="377.5,-190.104 374,-180.104 370.5,-190.104 377.5,-190.104"/>
</g>
<!-- 5 -->
<g id="node6" class="node"><title>5</title>
<path fill="none" stroke="#569ad8" stroke-width="2" d="M381.25,-324C381.25,-324 342.75,-324 342.75,-324 336.75,-324 330.75,-318 330.75,-312 330.75,-312 330.75,-300 330.75,-300 330.75,-294 336.75,-288 342.75,-288 342.75,-288 381.25,-288 381.25,-288 387.25,-288 393.25,-294 393.25,-300 393.25,-300 393.25,-312 393.25,-312 393.25,-318 387.25,-324 381.25,-324"/>
<text text-anchor="middle" x="362" y="-303.5" font-family="sans" font-size="10.00">callpeaks</text>
</g>
<!-- 5&#45;&gt;0 -->
<g id="edge7" class="edge"><title>5&#45;&gt;0</title>
<path fill="none" stroke="grey" stroke-width="2" d="M348.854,-287.908C342.077,-278.006 334.513,-264.964 331,-252 325.082,-230.16 336.989,-149.246 338,-144 344.307,-111.269 339.814,-99.2583 359,-72 368.613,-58.3422 382.885,-46.8663 396.265,-38.1243"/>
<polygon fill="grey" stroke="grey" points="398.224,-41.0283 404.872,-32.779 394.53,-35.0818 398.224,-41.0283"/>
</g>
<!-- 5&#45;&gt;4 -->
<g id="edge20" class="edge"><title>5&#45;&gt;4</title>
<path fill="none" stroke="grey" stroke-width="2" d="M364.966,-287.697C366.289,-279.983 367.878,-270.712 369.352,-262.112"/>
<polygon fill="grey" stroke="grey" points="372.828,-262.552 371.068,-252.104 365.928,-261.369 372.828,-262.552"/>
</g>
<!-- 14 -->
<g id="node15" class="node"><title>14</title>
<path fill="none" stroke="#d85656" stroke-width="2" d="M572,-180C572,-180 542,-180 542,-180 536,-180 530,-174 530,-168 530,-168 530,-156 530,-156 530,-150 536,-144 542,-144 542,-144 572,-144 572,-144 578,-144 584,-150 584,-156 584,-156 584,-168 584,-168 584,-174 578,-180 572,-180"/>
<text text-anchor="middle" x="557" y="-159.5" font-family="sans" font-size="10.00">frip</text>
</g>
<!-- 5&#45;&gt;14 -->
<g id="edge34" class="edge"><title>5&#45;&gt;14</title>
<path fill="none" stroke="grey" stroke-width="2" d="M393.494,-301.475C445.334,-294.954 545.013,-279.137 566,-252 579.592,-234.425 575.182,-208.698 568.646,-189.42"/>
<polygon fill="grey" stroke="grey" points="571.904,-188.14 565.118,-180.003 565.349,-190.596 571.904,-188.14"/>
</g>
<!-- 21 -->
<g id="node22" class="node"><title>21</title>
<path fill="none" stroke="#d8b456" stroke-width="2" d="M545.25,-252C545.25,-252 438.75,-252 438.75,-252 432.75,-252 426.75,-246 426.75,-240 426.75,-240 426.75,-228 426.75,-228 426.75,-222 432.75,-216 438.75,-216 438.75,-216 545.25,-216 545.25,-216 551.25,-216 557.25,-222 557.25,-228 557.25,-228 557.25,-240 557.25,-240 557.25,-246 551.25,-252 545.25,-252"/>
<text text-anchor="middle" x="492" y="-231.5" font-family="sans" font-size="10.00">make_high_conf_peaks</text>
</g>
<!-- 5&#45;&gt;21 -->
<g id="edge44" class="edge"><title>5&#45;&gt;21</title>
<path fill="none" stroke="grey" stroke-width="2" d="M393.469,-288.055C410.905,-278.666 432.774,-266.891 451.476,-256.821"/>
<polygon fill="grey" stroke="grey" points="453.224,-259.854 460.37,-252.032 449.906,-253.691 453.224,-259.854"/>
</g>
<!-- 6 -->
<g id="node7" class="node"><title>6</title>
<path fill="none" stroke="#56d892" stroke-width="2" d="M342,-468C342,-468 306,-468 306,-468 300,-468 294,-462 294,-456 294,-456 294,-444 294,-444 294,-438 300,-432 306,-432 306,-432 342,-432 342,-432 348,-432 354,-438 354,-444 354,-444 354,-456 354,-456 354,-462 348,-468 342,-468"/>
<text text-anchor="middle" x="324" y="-447.5" font-family="sans" font-size="10.00">markdup</text>
</g>
<!-- 6&#45;&gt;0 -->
<g id="edge6" class="edge"><title>6&#45;&gt;0</title>
<path fill="none" stroke="grey" stroke-width="2" d="M354.091,-447.005C461.975,-439.041 823,-405.065 823,-307 823,-307 823,-307 823,-161 823,-113.295 803.209,-97.6707 763,-72 714.745,-41.1927 545.156,-26.434 469.234,-21.2524"/>
<polygon fill="grey" stroke="grey" points="469.375,-17.7542 459.166,-20.5842 468.912,-24.7388 469.375,-17.7542"/>
</g>
<!-- 6&#45;&gt;5 -->
<g id="edge22" class="edge"><title>6&#45;&gt;5</title>
<path fill="none" stroke="grey" stroke-width="2" d="M328.584,-431.871C335.089,-407.564 347.063,-362.819 354.771,-334.013"/>
<polygon fill="grey" stroke="grey" points="358.196,-334.754 357.4,-324.189 351.434,-332.945 358.196,-334.754"/>
</g>
<!-- 9 -->
<g id="node10" class="node"><title>9</title>
<path fill="none" stroke="#8fd856" stroke-width="2" d="M234,-396C234,-396 204,-396 204,-396 198,-396 192,-390 192,-384 192,-384 192,-372 192,-372 192,-366 198,-360 204,-360 204,-360 234,-360 234,-360 240,-360 246,-366 246,-372 246,-372 246,-384 246,-384 246,-390 240,-396 234,-396"/>
<text text-anchor="middle" x="219" y="-375.5" font-family="sans" font-size="10.00">index</text>
</g>
<!-- 6&#45;&gt;9 -->
<g id="edge26" class="edge"><title>6&#45;&gt;9</title>
<path fill="none" stroke="grey" stroke-width="2" d="M298.314,-431.876C284.712,-422.808 267.828,-411.552 253.139,-401.759"/>
<polygon fill="grey" stroke="grey" points="255.047,-398.825 244.785,-396.19 251.164,-404.649 255.047,-398.825"/>
</g>
<!-- 10 -->
<g id="node11" class="node"><title>10</title>
<path fill="none" stroke="#56d8d0" stroke-width="2" d="M271.25,-180C271.25,-180 228.75,-180 228.75,-180 222.75,-180 216.75,-174 216.75,-168 216.75,-168 216.75,-156 216.75,-156 216.75,-150 222.75,-144 228.75,-144 228.75,-144 271.25,-144 271.25,-144 277.25,-144 283.25,-150 283.25,-156 283.25,-156 283.25,-168 283.25,-168 283.25,-174 277.25,-180 271.25,-180"/>
<text text-anchor="middle" x="250" y="-159.5" font-family="sans" font-size="10.00">fraglength</text>
</g>
<!-- 6&#45;&gt;10 -->
<g id="edge27" class="edge"><title>6&#45;&gt;10</title>
<path fill="none" stroke="grey" stroke-width="2" d="M319.593,-431.966C307.231,-384.192 272.154,-248.623 257.055,-190.266"/>
<polygon fill="grey" stroke="grey" points="260.371,-189.111 254.478,-180.306 253.594,-190.864 260.371,-189.111"/>
</g>
<!-- 11 -->
<g id="node12" class="node"><title>11</title>
<path fill="none" stroke="#56d863" stroke-width="2" d="M115,-324C115,-324 85,-324 85,-324 79,-324 73,-318 73,-312 73,-312 73,-300 73,-300 73,-294 79,-288 85,-288 85,-288 115,-288 115,-288 121,-288 127,-294 127,-300 127,-300 127,-312 127,-312 127,-318 121,-324 115,-324"/>
<text text-anchor="middle" x="100" y="-303.5" font-family="sans" font-size="10.00">tracks</text>
</g>
<!-- 6&#45;&gt;11 -->
<g id="edge29" class="edge"><title>6&#45;&gt;11</title>
<path fill="none" stroke="grey" stroke-width="2" d="M293.711,-444.167C260.382,-437.678 206.447,-423.619 168,-396 144.959,-379.449 126.095,-352.856 114.13,-333.044"/>
<polygon fill="grey" stroke="grey" points="117.037,-331.082 108.975,-324.207 110.991,-334.609 117.037,-331.082"/>
</g>
<!-- 12 -->
<g id="node13" class="node"><title>12</title>
<path fill="none" stroke="#56d8a2" stroke-width="2" d="M685.25,-180C685.25,-180 614.75,-180 614.75,-180 608.75,-180 602.75,-174 602.75,-168 602.75,-168 602.75,-156 602.75,-156 602.75,-150 608.75,-144 614.75,-144 614.75,-144 685.25,-144 685.25,-144 691.25,-144 697.25,-150 697.25,-156 697.25,-156 697.25,-168 697.25,-168 697.25,-174 691.25,-180 685.25,-180"/>
<text text-anchor="middle" x="650" y="-159.5" font-family="sans" font-size="10.00">preseq_lcextrap</text>
</g>
<!-- 6&#45;&gt;12 -->
<g id="edge30" class="edge"><title>6&#45;&gt;12</title>
<path fill="none" stroke="grey" stroke-width="2" d="M354.075,-442.239C386.191,-434.22 437.882,-418.972 478,-396 520.67,-371.566 530.905,-362.09 562,-324 585.15,-295.643 584.422,-284.11 602,-252 613.522,-230.951 626.424,-207.007 635.948,-189.26"/>
<polygon fill="grey" stroke="grey" points="639.221,-190.563 640.861,-180.096 633.051,-187.256 639.221,-190.563"/>
</g>
<!-- 13 -->
<g id="node14" class="node"><title>13</title>
<path fill="none" stroke="#56b1d8" stroke-width="2" d="M198.25,-324C198.25,-324 157.75,-324 157.75,-324 151.75,-324 145.75,-318 145.75,-312 145.75,-312 145.75,-300 145.75,-300 145.75,-294 151.75,-288 157.75,-288 157.75,-288 198.25,-288 198.25,-288 204.25,-288 210.25,-294 210.25,-300 210.25,-300 210.25,-312 210.25,-312 210.25,-318 204.25,-324 198.25,-324"/>
<text text-anchor="middle" x="178" y="-303.5" font-family="sans" font-size="10.00">plotFinger</text>
</g>
<!-- 6&#45;&gt;13 -->
<g id="edge32" class="edge"><title>6&#45;&gt;13</title>
<path fill="none" stroke="grey" stroke-width="2" d="M293.802,-446.962C260.671,-442.954 208.782,-431.088 183,-396 170.088,-378.427 169.875,-353.236 172.294,-334.137"/>
<polygon fill="grey" stroke="grey" points="175.754,-334.661 173.844,-324.24 168.838,-333.578 175.754,-334.661"/>
</g>
<!-- 6&#45;&gt;14 -->
<g id="edge33" class="edge"><title>6&#45;&gt;14</title>
<path fill="none" stroke="grey" stroke-width="2" d="M354.317,-437.09C411.97,-412.563 536.023,-350.33 585,-252 595.086,-231.751 585.834,-207.108 575.342,-188.892"/>
<polygon fill="grey" stroke="grey" points="578.081,-186.666 569.838,-180.009 572.13,-190.353 578.081,-186.666"/>
</g>
<!-- 7 -->
<g id="node8" class="node"><title>7</title>
<path fill="none" stroke="#56d8b9" stroke-width="2" d="M339,-540C339,-540 309,-540 309,-540 303,-540 297,-534 297,-528 297,-528 297,-516 297,-516 297,-510 303,-504 309,-504 309,-504 339,-504 339,-504 345,-504 351,-510 351,-516 351,-516 351,-528 351,-528 351,-534 345,-540 339,-540"/>
<text text-anchor="middle" x="324" y="-519.5" font-family="sans" font-size="10.00">sort</text>
</g>
<!-- 7&#45;&gt;6 -->
<g id="edge23" class="edge"><title>7&#45;&gt;6</title>
<path fill="none" stroke="grey" stroke-width="2" d="M324,-503.697C324,-495.983 324,-486.712 324,-478.112"/>
<polygon fill="grey" stroke="grey" points="327.5,-478.104 324,-468.104 320.5,-478.104 327.5,-478.104"/>
</g>
<!-- 8&#45;&gt;7 -->
<g id="edge24" class="edge"><title>8&#45;&gt;7</title>
<path fill="none" stroke="grey" stroke-width="2" d="M324,-575.697C324,-567.983 324,-558.712 324,-550.112"/>
<polygon fill="grey" stroke="grey" points="327.5,-550.104 324,-540.104 320.5,-550.104 327.5,-550.104"/>
</g>
<!-- 9&#45;&gt;5 -->
<g id="edge21" class="edge"><title>9&#45;&gt;5</title>
<path fill="none" stroke="grey" stroke-width="2" d="M246.234,-363.669C267.481,-353.268 297.326,-338.659 321.391,-326.878"/>
<polygon fill="grey" stroke="grey" points="323.192,-329.894 330.635,-322.353 320.115,-323.606 323.192,-329.894"/>
</g>
<!-- 9&#45;&gt;11 -->
<g id="edge28" class="edge"><title>9&#45;&gt;11</title>
<path fill="none" stroke="grey" stroke-width="2" d="M191.997,-361.116C175.53,-351.429 154.272,-338.924 136.339,-328.376"/>
<polygon fill="grey" stroke="grey" points="137.702,-325.117 127.308,-323.064 134.153,-331.151 137.702,-325.117"/>
</g>
<!-- 9&#45;&gt;13 -->
<g id="edge31" class="edge"><title>9&#45;&gt;13</title>
<path fill="none" stroke="grey" stroke-width="2" d="M208.865,-359.697C204.148,-351.644 198.438,-341.894 193.218,-332.982"/>
<polygon fill="grey" stroke="grey" points="196.092,-330.964 188.018,-324.104 190.052,-334.502 196.092,-330.964"/>
</g>
<!-- 10&#45;&gt;0 -->
<g id="edge18" class="edge"><title>10&#45;&gt;0</title>
<path fill="none" stroke="grey" stroke-width="2" d="M255.178,-143.977C262.006,-124.18 275.821,-91.7056 298,-72 325.604,-47.4746 365.921,-33.6116 395.116,-26.2688"/>
<polygon fill="grey" stroke="grey" points="396.018,-29.6519 404.939,-23.9367 394.401,-22.8412 396.018,-29.6519"/>
</g>
<!-- 18 -->
<g id="node19" class="node"><title>18</title>
<path fill="none" stroke="#566bd8" stroke-width="2" d="M233.25,-108C233.25,-108 166.75,-108 166.75,-108 160.75,-108 154.75,-102 154.75,-96 154.75,-96 154.75,-84 154.75,-84 154.75,-78 160.75,-72 166.75,-72 166.75,-72 233.25,-72 233.25,-72 239.25,-72 245.25,-78 245.25,-84 245.25,-84 245.25,-96 245.25,-96 245.25,-102 239.25,-108 233.25,-108"/>
<text text-anchor="middle" x="200" y="-87.5" font-family="sans" font-size="10.00">fraglength_plot</text>
</g>
<!-- 10&#45;&gt;18 -->
<g id="edge41" class="edge"><title>10&#45;&gt;18</title>
<path fill="none" stroke="grey" stroke-width="2" d="M237.64,-143.697C231.767,-135.474 224.631,-125.483 218.158,-116.421"/>
<polygon fill="grey" stroke="grey" points="220.878,-114.207 212.217,-108.104 215.182,-118.276 220.878,-114.207"/>
</g>
<!-- 11&#45;&gt;0 -->
<g id="edge17" class="edge"><title>11&#45;&gt;0</title>
<path fill="none" stroke="grey" stroke-width="2" d="M80.9609,-287.837C71.824,-278.3 61.8317,-265.624 57,-252 37.3066,-196.469 56.7583,-102.945 90,-72 133.666,-31.3506 315.382,-21.874 394.696,-19.6679"/>
<polygon fill="grey" stroke="grey" points="394.831,-23.1657 404.738,-19.4126 394.653,-16.168 394.831,-23.1657"/>
</g>
<!-- 20 -->
<g id="node21" class="node"><title>20</title>
<path fill="none" stroke="#56c9d8" stroke-width="2" d="M122,-252C122,-252 78,-252 78,-252 72,-252 66,-246 66,-240 66,-240 66,-228 66,-228 66,-222 72,-216 78,-216 78,-216 122,-216 122,-216 128,-216 134,-222 134,-228 134,-228 134,-240 134,-240 134,-246 128,-252 122,-252"/>
<text text-anchor="middle" x="100" y="-231.5" font-family="sans" font-size="10.00">merge_bw</text>
</g>
<!-- 11&#45;&gt;20 -->
<g id="edge43" class="edge"><title>11&#45;&gt;20</title>
<path fill="none" stroke="grey" stroke-width="2" d="M100,-287.697C100,-279.983 100,-270.712 100,-262.112"/>
<polygon fill="grey" stroke="grey" points="103.5,-262.104 100,-252.104 96.5001,-262.104 103.5,-262.104"/>
</g>
<!-- 12&#45;&gt;0 -->
<g id="edge10" class="edge"><title>12&#45;&gt;0</title>
<path fill="none" stroke="grey" stroke-width="2" d="M646.745,-143.682C642.076,-123.601 631.544,-90.8538 610,-72 570.241,-37.2061 508.455,-25.2397 469.128,-21.1331"/>
<polygon fill="grey" stroke="grey" points="469.435,-17.6466 459.155,-20.2098 468.789,-24.6168 469.435,-17.6466"/>
</g>
<!-- 12&#45;&gt;15 -->
<g id="edge38" class="edge"><title>12&#45;&gt;15</title>
<path fill="none" stroke="grey" stroke-width="2" d="M663.596,-143.697C670.123,-135.389 678.068,-125.277 685.247,-116.141"/>
<polygon fill="grey" stroke="grey" points="688.135,-118.13 691.561,-108.104 682.631,-113.805 688.135,-118.13"/>
</g>
<!-- 13&#45;&gt;0 -->
<g id="edge3" class="edge"><title>13&#45;&gt;0</title>
<path fill="none" stroke="grey" stroke-width="2" d="M172.42,-287.986C157.155,-239.993 117.624,-104.894 145,-72 176.369,-34.3075 324.379,-23.3142 394.71,-20.1938"/>
<polygon fill="grey" stroke="grey" points="395.054,-23.6827 404.901,-19.773 394.765,-16.6887 395.054,-23.6827"/>
</g>
<!-- 14&#45;&gt;0 -->
<g id="edge2" class="edge"><title>14&#45;&gt;0</title>
<path fill="none" stroke="grey" stroke-width="2" d="M573.203,-143.676C588.863,-124.762 608.039,-94.2092 592,-72 564.126,-33.4026 507.053,-22.4585 469.156,-19.6079"/>
<polygon fill="grey" stroke="grey" points="469.207,-16.1048 459.016,-19.0023 468.79,-23.0923 469.207,-16.1048"/>
</g>
<!-- 14&#45;&gt;15 -->
<g id="edge36" class="edge"><title>14&#45;&gt;15</title>
<path fill="none" stroke="grey" stroke-width="2" d="M584.145,-148.161C607.854,-136.947 642.464,-120.578 668.576,-108.227"/>
<polygon fill="grey" stroke="grey" points="670.233,-111.316 677.776,-103.876 667.24,-104.988 670.233,-111.316"/>
</g>
<!-- 19 -->
<g id="node20" class="node"><title>19</title>
<path fill="none" stroke="#d6d856" stroke-width="2" d="M571.25,-108C571.25,-108 538.75,-108 538.75,-108 532.75,-108 526.75,-102 526.75,-96 526.75,-96 526.75,-84 526.75,-84 526.75,-78 532.75,-72 538.75,-72 538.75,-72 571.25,-72 571.25,-72 577.25,-72 583.25,-78 583.25,-84 583.25,-84 583.25,-96 583.25,-96 583.25,-102 577.25,-108 571.25,-108"/>
<text text-anchor="middle" x="555" y="-87.5" font-family="sans" font-size="10.00">frip_plot</text>
</g>
<!-- 14&#45;&gt;19 -->
<g id="edge42" class="edge"><title>14&#45;&gt;19</title>
<path fill="none" stroke="grey" stroke-width="2" d="M556.506,-143.697C556.285,-135.983 556.02,-126.712 555.775,-118.112"/>
<polygon fill="grey" stroke="grey" points="559.273,-118 555.489,-108.104 552.276,-118.2 559.273,-118"/>
</g>
<!-- 15&#45;&gt;0 -->
<g id="edge12" class="edge"><title>15&#45;&gt;0</title>
<path fill="none" stroke="grey" stroke-width="2" d="M677.891,-77.0101C673.303,-75.1979 668.551,-73.4521 664,-72 596.485,-50.4606 515.291,-33.9915 469.058,-25.4681"/>
<polygon fill="grey" stroke="grey" points="469.654,-22.0192 459.189,-23.6718 468.4,-28.906 469.654,-22.0192"/>
</g>
<!-- 16&#45;&gt;0 -->
<g id="edge14" class="edge"><title>16&#45;&gt;0</title>
<path fill="none" stroke="grey" stroke-width="2" d="M368.377,-143.693C363.353,-125.063 358.288,-95.0091 369,-72 374.961,-59.196 385.706,-48.3801 396.654,-39.9252"/>
<polygon fill="grey" stroke="grey" points="398.918,-42.6082 404.99,-33.926 394.829,-36.9266 398.918,-42.6082"/>
</g>
<!-- 17 -->
<g id="node18" class="node"><title>17</title>
<path fill="none" stroke="#d89c56" stroke-width="2" d="M420,-108C420,-108 390,-108 390,-108 384,-108 378,-102 378,-96 378,-96 378,-84 378,-84 378,-78 384,-72 390,-72 390,-72 420,-72 420,-72 426,-72 432,-78 432,-84 432,-84 432,-96 432,-96 432,-102 426,-108 420,-108"/>
<text text-anchor="middle" x="405" y="-87.5" font-family="sans" font-size="10.00">homer</text>
</g>
<!-- 16&#45;&gt;17 -->
<g id="edge40" class="edge"><title>16&#45;&gt;17</title>
<path fill="none" stroke="grey" stroke-width="2" d="M381.663,-143.697C385.192,-135.728 389.456,-126.1 393.369,-117.264"/>
<polygon fill="grey" stroke="grey" points="396.576,-118.665 397.425,-108.104 390.176,-115.831 396.576,-118.665"/>
</g>
<!-- 17&#45;&gt;0 -->
<g id="edge8" class="edge"><title>17&#45;&gt;0</title>
<path fill="none" stroke="grey" stroke-width="2" d="M411.674,-71.6966C414.715,-63.8132 418.383,-54.3042 421.761,-45.5464"/>
<polygon fill="grey" stroke="grey" points="425.069,-46.6939 425.403,-36.1043 418.538,-44.1748 425.069,-46.6939"/>
</g>
<!-- 18&#45;&gt;0 -->
<g id="edge15" class="edge"><title>18&#45;&gt;0</title>
<path fill="none" stroke="grey" stroke-width="2" d="M245.283,-75.3371C289.046,-62.1326 354.525,-42.3759 395.181,-30.1092"/>
<polygon fill="grey" stroke="grey" points="396.391,-33.3999 404.954,-27.1604 394.369,-26.6983 396.391,-33.3999"/>
</g>
<!-- 19&#45;&gt;0 -->
<g id="edge16" class="edge"><title>19&#45;&gt;0</title>
<path fill="none" stroke="grey" stroke-width="2" d="M526.472,-72.7646C509.03,-62.838 486.563,-50.0523 467.916,-39.4399"/>
<polygon fill="grey" stroke="grey" points="469.529,-36.3311 459.107,-34.4268 466.067,-42.4149 469.529,-36.3311"/>
</g>
<!-- 20&#45;&gt;0 -->
<g id="edge1" class="edge"><title>20&#45;&gt;0</title>
<path fill="none" stroke="grey" stroke-width="2" d="M95.1915,-215.802C87.216,-183.161 75.5027,-111.929 112,-72 149.42,-31.0618 318.721,-21.7446 394.789,-19.6244"/>
<polygon fill="grey" stroke="grey" points="394.972,-23.121 404.88,-19.3705 394.796,-16.1232 394.972,-23.121"/>
</g>
<!-- 21&#45;&gt;0 -->
<g id="edge9" class="edge"><title>21&#45;&gt;0</title>
<path fill="none" stroke="grey" stroke-width="2" d="M489.564,-215.734C485.063,-185.879 474.294,-122.919 457,-72 453.99,-63.1374 449.915,-53.7998 445.928,-45.4733"/>
<polygon fill="grey" stroke="grey" points="448.935,-43.6583 441.359,-36.2521 442.663,-46.7664 448.935,-43.6583"/>
</g>
</g>
</svg>
