<?xml version="1.0" encoding="UTF-8" standalone="no"?>
<!DOCTYPE svg PUBLIC "-//W3C//DTD SVG 1.1//EN"
 "http://www.w3.org/Graphics/SVG/1.1/DTD/svg11.dtd">
<!-- Generated by graphviz version 2.30.1 (20201013.1554)
 -->
<!-- Title: snakemake_dag Pages: 1 -->
<svg width="1138pt" height="764pt"
 viewBox="0.00 0.00 1138.00 764.00" xmlns="http://www.w3.org/2000/svg" xmlns:xlink="http://www.w3.org/1999/xlink">
<g id="graph0" class="graph" transform="scale(1 1) rotate(0) translate(4 760)">
<title>snakemake_dag</title>
<polygon fill="white" stroke="white" points="-4,5 -4,-760 1135,-760 1135,5 -4,5"/>
<!-- 0 -->
<g id="node1" class="node"><title>0</title>
<path fill="none" stroke="#56d8a9" stroke-width="2" d="M548,-36C548,-36 518,-36 518,-36 512,-36 506,-30 506,-24 506,-24 506,-12 506,-12 506,-6 512,-0 518,-0 518,-0 548,-0 548,-0 554,-0 560,-6 560,-12 560,-12 560,-24 560,-24 560,-30 554,-36 548,-36"/>
<text text-anchor="middle" x="533" y="-15.5" font-family="sans" font-size="10.00">all</text>
</g>
<!-- 1 -->
<g id="node2" class="node"><title>1</title>
<path fill="none" stroke="#566bd8" stroke-width="2" d="M313,-756C313,-756 283,-756 283,-756 277,-756 271,-750 271,-744 271,-744 271,-732 271,-732 271,-726 277,-720 283,-720 283,-720 313,-720 313,-720 319,-720 325,-726 325,-732 325,-732 325,-744 325,-744 325,-750 319,-756 313,-756"/>
<text text-anchor="middle" x="298" y="-735.5" font-family="sans" font-size="10.00">fastp</text>
</g>
<!-- 1&#45;&gt;0 -->
<g id="edge22" class="edge"><title>1&#45;&gt;0</title>
<path fill="none" stroke="grey" stroke-width="2" d="M270.764,-736.479C197.2,-733.49 0,-714.347 0,-595 0,-595 0,-595 0,-161 0,-116.473 9.27779,-97.1813 46,-72 118.994,-21.9464 395.207,-18.2489 495.946,-18.6161"/>
<polygon fill="grey" stroke="grey" points="495.947,-22.1161 505.965,-18.6685 495.984,-15.1162 495.947,-22.1161"/>
</g>
<!-- 2 -->
<g id="node3" class="node"><title>2</title>
<path fill="none" stroke="#56d8d0" stroke-width="2" d="M1118,-252C1118,-252 1088,-252 1088,-252 1082,-252 1076,-246 1076,-240 1076,-240 1076,-228 1076,-228 1076,-222 1082,-216 1088,-216 1088,-216 1118,-216 1118,-216 1124,-216 1130,-222 1130,-228 1130,-228 1130,-240 1130,-240 1130,-246 1124,-252 1118,-252"/>
<text text-anchor="middle" x="1103" y="-231.5" font-family="sans" font-size="10.00">fastqc</text>
</g>
<!-- 1&#45;&gt;2 -->
<g id="edge23" class="edge"><title>1&#45;&gt;2</title>
<path fill="none" stroke="grey" stroke-width="2" d="M325.4,-735.081C465.369,-724.919 1094,-674.839 1094,-595 1094,-595 1094,-595 1094,-377 1094,-336.916 1097.62,-290.594 1100.26,-262.048"/>
<polygon fill="grey" stroke="grey" points="1103.75,-262.315 1101.22,-252.027 1096.79,-261.649 1103.75,-262.315"/>
</g>
<!-- 9 -->
<g id="node10" class="node"><title>9</title>
<path fill="none" stroke="#61d856" stroke-width="2" d="M314,-684C314,-684 282,-684 282,-684 276,-684 270,-678 270,-672 270,-672 270,-660 270,-660 270,-654 276,-648 282,-648 282,-648 314,-648 314,-648 320,-648 326,-654 326,-660 326,-660 326,-672 326,-672 326,-678 320,-684 314,-684"/>
<text text-anchor="middle" x="298" y="-663.5" font-family="sans" font-size="10.00">bowtie2</text>
</g>
<!-- 1&#45;&gt;9 -->
<g id="edge30" class="edge"><title>1&#45;&gt;9</title>
<path fill="none" stroke="grey" stroke-width="2" d="M298,-719.697C298,-711.983 298,-702.712 298,-694.112"/>
<polygon fill="grey" stroke="grey" points="301.5,-694.104 298,-684.104 294.5,-694.104 301.5,-694.104"/>
</g>
<!-- 2&#45;&gt;0 -->
<g id="edge17" class="edge"><title>2&#45;&gt;0</title>
<path fill="none" stroke="grey" stroke-width="2" d="M1104.4,-215.925C1106.1,-182.519 1104.52,-108.596 1062,-72 1024.82,-39.9967 684.513,-24.5948 570.23,-20.2933"/>
<polygon fill="grey" stroke="grey" points="570.327,-16.7946 560.204,-19.9227 570.068,-23.7898 570.327,-16.7946"/>
</g>
<!-- 16 -->
<g id="node17" class="node"><title>16</title>
<path fill="none" stroke="#bed856" stroke-width="2" d="M970,-180C970,-180 940,-180 940,-180 934,-180 928,-174 928,-168 928,-168 928,-156 928,-156 928,-150 934,-144 940,-144 940,-144 970,-144 970,-144 976,-144 982,-150 982,-156 982,-156 982,-168 982,-168 982,-174 976,-180 970,-180"/>
<text text-anchor="middle" x="955" y="-159.5" font-family="sans" font-size="10.00">multiqc</text>
</g>
<!-- 2&#45;&gt;16 -->
<g id="edge43" class="edge"><title>2&#45;&gt;16</title>
<path fill="none" stroke="grey" stroke-width="2" d="M1075.85,-220.161C1052.15,-208.947 1017.54,-192.578 991.424,-180.227"/>
<polygon fill="grey" stroke="grey" points="992.76,-176.988 982.224,-175.876 989.767,-183.316 992.76,-176.988"/>
</g>
<!-- 3 -->
<g id="node4" class="node"><title>3</title>
<path fill="none" stroke="#56b9d8" stroke-width="2" d="M1007.25,-252C1007.25,-252 952.75,-252 952.75,-252 946.75,-252 940.75,-246 940.75,-240 940.75,-240 940.75,-228 940.75,-228 940.75,-222 946.75,-216 952.75,-216 952.75,-216 1007.25,-216 1007.25,-216 1013.25,-216 1019.25,-222 1019.25,-228 1019.25,-228 1019.25,-240 1019.25,-240 1019.25,-246 1013.25,-252 1007.25,-252"/>
<text text-anchor="middle" x="980" y="-231.5" font-family="sans" font-size="10.00">fastq_screen</text>
</g>
<!-- 3&#45;&gt;0 -->
<g id="edge19" class="edge"><title>3&#45;&gt;0</title>
<path fill="none" stroke="grey" stroke-width="2" d="M985.556,-215.91C995.336,-182.14 1010.87,-107.095 969,-72 909.003,-21.71 664.749,-17.9968 570.421,-18.4968"/>
<polygon fill="grey" stroke="grey" points="570.176,-14.9984 560.202,-18.5709 570.227,-21.9982 570.176,-14.9984"/>
</g>
<!-- 3&#45;&gt;16 -->
<g id="edge41" class="edge"><title>3&#45;&gt;16</title>
<path fill="none" stroke="grey" stroke-width="2" d="M973.82,-215.697C971.005,-207.813 967.609,-198.304 964.481,-189.546"/>
<polygon fill="grey" stroke="grey" points="967.768,-188.345 961.109,-180.104 961.176,-190.699 967.768,-188.345"/>
</g>
<!-- 4 -->
<g id="node5" class="node"><title>4</title>
<path fill="none" stroke="#d8a456" stroke-width="2" d="M450,-252C450,-252 406,-252 406,-252 400,-252 394,-246 394,-240 394,-240 394,-228 394,-228 394,-222 400,-216 406,-216 406,-216 450,-216 450,-216 456,-216 462,-222 462,-228 462,-228 462,-240 462,-240 462,-246 456,-252 450,-252"/>
<text text-anchor="middle" x="428" y="-231.5" font-family="sans" font-size="10.00">consensus</text>
</g>
<!-- 4&#45;&gt;0 -->
<g id="edge5" class="edge"><title>4&#45;&gt;0</title>
<path fill="none" stroke="grey" stroke-width="2" d="M400.2,-215.872C388.229,-206.837 375.505,-194.587 369,-180 348.974,-135.092 358.936,-107.46 393,-72 420.256,-43.6269 464.234,-30.2768 495.626,-24.104"/>
<polygon fill="grey" stroke="grey" points="496.529,-27.4975 505.746,-22.2744 495.283,-20.6092 496.529,-27.4975"/>
</g>
<!-- 17 -->
<g id="node18" class="node"><title>17</title>
<path fill="none" stroke="#56d88a" stroke-width="2" d="M420,-180C420,-180 390,-180 390,-180 384,-180 378,-174 378,-168 378,-168 378,-156 378,-156 378,-150 384,-144 390,-144 390,-144 420,-144 420,-144 426,-144 432,-150 432,-156 432,-156 432,-168 432,-168 432,-174 426,-180 420,-180"/>
<text text-anchor="middle" x="405" y="-159.5" font-family="sans" font-size="10.00">deseq2</text>
</g>
<!-- 4&#45;&gt;17 -->
<g id="edge44" class="edge"><title>4&#45;&gt;17</title>
<path fill="none" stroke="grey" stroke-width="2" d="M422.315,-215.697C419.752,-207.898 416.667,-198.509 413.815,-189.829"/>
<polygon fill="grey" stroke="grey" points="417.067,-188.512 410.62,-180.104 410.416,-190.697 417.067,-188.512"/>
</g>
<!-- 19 -->
<g id="node20" class="node"><title>19</title>
<path fill="none" stroke="#d6d856" stroke-width="2" d="M492,-180C492,-180 462,-180 462,-180 456,-180 450,-174 450,-168 450,-168 450,-156 450,-156 450,-150 456,-144 462,-144 462,-144 492,-144 492,-144 498,-144 504,-150 504,-156 504,-156 504,-168 504,-168 504,-174 498,-180 492,-180"/>
<text text-anchor="middle" x="477" y="-159.5" font-family="sans" font-size="10.00">diffbind</text>
</g>
<!-- 4&#45;&gt;19 -->
<g id="edge46" class="edge"><title>4&#45;&gt;19</title>
<path fill="none" stroke="grey" stroke-width="2" d="M440.112,-215.697C445.868,-207.474 452.862,-197.483 459.206,-188.421"/>
<polygon fill="grey" stroke="grey" points="462.16,-190.304 465.027,-180.104 456.425,-186.29 462.16,-190.304"/>
</g>
<!-- 5 -->
<g id="node6" class="node"><title>5</title>
<path fill="none" stroke="#56d873" stroke-width="2" d="M557.25,-324C557.25,-324 480.75,-324 480.75,-324 474.75,-324 468.75,-318 468.75,-312 468.75,-312 468.75,-300 468.75,-300 468.75,-294 474.75,-288 480.75,-288 480.75,-288 557.25,-288 557.25,-288 563.25,-288 569.25,-294 569.25,-300 569.25,-300 569.25,-312 569.25,-312 569.25,-318 563.25,-324 557.25,-324"/>
<text text-anchor="middle" x="519" y="-303.5" font-family="sans" font-size="10.00">remove_blacklist</text>
</g>
<!-- 5&#45;&gt;0 -->
<g id="edge13" class="edge"><title>5&#45;&gt;0</title>
<path fill="none" stroke="grey" stroke-width="2" d="M551.204,-287.994C585.96,-267.603 639.369,-229.84 662,-180 682.456,-134.949 667.817,-109.028 635,-72 617.668,-52.4435 591.379,-39.0267 569.832,-30.5854"/>
<polygon fill="grey" stroke="grey" points="570.908,-27.2514 560.315,-27.0528 568.472,-33.8139 570.908,-27.2514"/>
</g>
<!-- 5&#45;&gt;4 -->
<g id="edge24" class="edge"><title>5&#45;&gt;4</title>
<path fill="none" stroke="grey" stroke-width="2" d="M496.506,-287.697C485.045,-278.881 470.942,-268.032 458.516,-258.474"/>
<polygon fill="grey" stroke="grey" points="460.296,-255.427 450.236,-252.104 456.028,-260.976 460.296,-255.427"/>
</g>
<!-- 24 -->
<g id="node25" class="node"><title>24</title>
<path fill="none" stroke="#d87d56" stroke-width="2" d="M641.25,-180C641.25,-180 534.75,-180 534.75,-180 528.75,-180 522.75,-174 522.75,-168 522.75,-168 522.75,-156 522.75,-156 522.75,-150 528.75,-144 534.75,-144 534.75,-144 641.25,-144 641.25,-144 647.25,-144 653.25,-150 653.25,-156 653.25,-156 653.25,-168 653.25,-168 653.25,-174 647.25,-180 641.25,-180"/>
<text text-anchor="middle" x="588" y="-159.5" font-family="sans" font-size="10.00">make_high_conf_peaks</text>
</g>
<!-- 5&#45;&gt;24 -->
<g id="edge51" class="edge"><title>5&#45;&gt;24</title>
<path fill="none" stroke="grey" stroke-width="2" d="M527.323,-287.871C539.238,-263.35 561.259,-218.032 575.24,-189.259"/>
<polygon fill="grey" stroke="grey" points="578.425,-190.713 579.647,-180.189 572.129,-187.654 578.425,-190.713"/>
</g>
<!-- 6 -->
<g id="node7" class="node"><title>6</title>
<path fill="none" stroke="#56d89a" stroke-width="2" d="M353.25,-396C353.25,-396 314.75,-396 314.75,-396 308.75,-396 302.75,-390 302.75,-384 302.75,-384 302.75,-372 302.75,-372 302.75,-366 308.75,-360 314.75,-360 314.75,-360 353.25,-360 353.25,-360 359.25,-360 365.25,-366 365.25,-372 365.25,-372 365.25,-384 365.25,-384 365.25,-390 359.25,-396 353.25,-396"/>
<text text-anchor="middle" x="334" y="-375.5" font-family="sans" font-size="10.00">callpeaks</text>
</g>
<!-- 6&#45;&gt;0 -->
<g id="edge15" class="edge"><title>6&#45;&gt;0</title>
<path fill="none" stroke="grey" stroke-width="2" d="M329.548,-359.646C323.12,-333.02 312,-280.403 312,-235 312,-235 312,-235 312,-161 312,-115.41 327.446,-100.536 363,-72 401.677,-40.958 458.635,-28.0084 495.776,-22.6659"/>
<polygon fill="grey" stroke="grey" points="496.241,-26.135 505.694,-21.352 495.321,-19.1956 496.241,-26.135"/>
</g>
<!-- 6&#45;&gt;5 -->
<g id="edge25" class="edge"><title>6&#45;&gt;5</title>
<path fill="none" stroke="grey" stroke-width="2" d="M365.383,-365.125C392.382,-354.909 431.956,-339.936 464.175,-327.745"/>
<polygon fill="grey" stroke="grey" points="465.802,-330.871 473.916,-324.059 463.324,-324.324 465.802,-330.871"/>
</g>
<!-- 15 -->
<g id="node16" class="node"><title>15</title>
<path fill="none" stroke="#d85656" stroke-width="2" d="M752,-252C752,-252 722,-252 722,-252 716,-252 710,-246 710,-240 710,-240 710,-228 710,-228 710,-222 716,-216 722,-216 722,-216 752,-216 752,-216 758,-216 764,-222 764,-228 764,-228 764,-240 764,-240 764,-246 758,-252 752,-252"/>
<text text-anchor="middle" x="737" y="-231.5" font-family="sans" font-size="10.00">frip</text>
</g>
<!-- 6&#45;&gt;15 -->
<g id="edge39" class="edge"><title>6&#45;&gt;15</title>
<path fill="none" stroke="grey" stroke-width="2" d="M365.272,-373.228C412.527,-366.862 504.423,-351.87 578,-324 623.638,-306.712 672.013,-277.94 703.252,-257.803"/>
<polygon fill="grey" stroke="grey" points="705.517,-260.504 711.983,-252.111 701.694,-254.64 705.517,-260.504"/>
</g>
<!-- 7 -->
<g id="node8" class="node"><title>7</title>
<path fill="none" stroke="#56d863" stroke-width="2" d="M316,-540C316,-540 280,-540 280,-540 274,-540 268,-534 268,-528 268,-528 268,-516 268,-516 268,-510 274,-504 280,-504 280,-504 316,-504 316,-504 322,-504 328,-510 328,-516 328,-516 328,-528 328,-528 328,-534 322,-540 316,-540"/>
<text text-anchor="middle" x="298" y="-519.5" font-family="sans" font-size="10.00">markdup</text>
</g>
<!-- 7&#45;&gt;0 -->
<g id="edge12" class="edge"><title>7&#45;&gt;0</title>
<path fill="none" stroke="grey" stroke-width="2" d="M328.33,-518.537C468.643,-506.745 1048,-453.543 1048,-379 1048,-379 1048,-379 1048,-161 1048,-114.962 1033.66,-96.9967 995,-72 924.996,-26.7382 667.299,-20.0111 570.276,-19.1017"/>
<polygon fill="grey" stroke="grey" points="570.087,-15.6003 560.06,-19.0223 570.033,-22.6001 570.087,-15.6003"/>
</g>
<!-- 7&#45;&gt;6 -->
<g id="edge26" class="edge"><title>7&#45;&gt;6</title>
<path fill="none" stroke="grey" stroke-width="2" d="M302.342,-503.871C308.505,-479.564 319.849,-434.819 327.152,-406.013"/>
<polygon fill="grey" stroke="grey" points="330.577,-406.743 329.642,-396.189 323.792,-405.022 330.577,-406.743"/>
</g>
<!-- 10 -->
<g id="node11" class="node"><title>10</title>
<path fill="none" stroke="#70d856" stroke-width="2" d="M234,-468C234,-468 204,-468 204,-468 198,-468 192,-462 192,-456 192,-456 192,-444 192,-444 192,-438 198,-432 204,-432 204,-432 234,-432 234,-432 240,-432 246,-438 246,-444 246,-444 246,-456 246,-456 246,-462 240,-468 234,-468"/>
<text text-anchor="middle" x="219" y="-447.5" font-family="sans" font-size="10.00">index</text>
</g>
<!-- 7&#45;&gt;10 -->
<g id="edge31" class="edge"><title>7&#45;&gt;10</title>
<path fill="none" stroke="grey" stroke-width="2" d="M278.472,-503.697C268.618,-494.965 256.514,-484.24 245.804,-474.75"/>
<polygon fill="grey" stroke="grey" points="248.109,-472.117 238.303,-468.104 243.467,-477.356 248.109,-472.117"/>
</g>
<!-- 11 -->
<g id="node12" class="node"><title>11</title>
<path fill="none" stroke="#56d8c1" stroke-width="2" d="M271.25,-180C271.25,-180 228.75,-180 228.75,-180 222.75,-180 216.75,-174 216.75,-168 216.75,-168 216.75,-156 216.75,-156 216.75,-150 222.75,-144 228.75,-144 228.75,-144 271.25,-144 271.25,-144 277.25,-144 283.25,-150 283.25,-156 283.25,-156 283.25,-168 283.25,-168 283.25,-174 277.25,-180 271.25,-180"/>
<text text-anchor="middle" x="250" y="-159.5" font-family="sans" font-size="10.00">fraglength</text>
</g>
<!-- 7&#45;&gt;11 -->
<g id="edge32" class="edge"><title>7&#45;&gt;11</title>
<path fill="none" stroke="grey" stroke-width="2" d="M293.143,-503.671C286.13,-477.079 274,-424.504 274,-379 274,-379 274,-379 274,-305 274,-264.65 264.462,-218.742 257.412,-190.319"/>
<polygon fill="grey" stroke="grey" points="260.726,-189.15 254.857,-180.329 253.944,-190.885 260.726,-189.15"/>
</g>
<!-- 12 -->
<g id="node13" class="node"><title>12</title>
<path fill="none" stroke="#d88d56" stroke-width="2" d="M115,-396C115,-396 85,-396 85,-396 79,-396 73,-390 73,-384 73,-384 73,-372 73,-372 73,-366 79,-360 85,-360 85,-360 115,-360 115,-360 121,-360 127,-366 127,-372 127,-372 127,-384 127,-384 127,-390 121,-396 115,-396"/>
<text text-anchor="middle" x="100" y="-375.5" font-family="sans" font-size="10.00">tracks</text>
</g>
<!-- 7&#45;&gt;12 -->
<g id="edge33" class="edge"><title>7&#45;&gt;12</title>
<path fill="none" stroke="grey" stroke-width="2" d="M267.818,-513.451C240.119,-505.458 198.96,-490.802 169,-468 146.437,-450.827 127.293,-424.547 114.936,-404.991"/>
<polygon fill="grey" stroke="grey" points="117.799,-402.964 109.589,-396.268 111.831,-406.623 117.799,-402.964"/>
</g>
<!-- 13 -->
<g id="node14" class="node"><title>13</title>
<path fill="none" stroke="#d86656" stroke-width="2" d="M910.25,-252C910.25,-252 839.75,-252 839.75,-252 833.75,-252 827.75,-246 827.75,-240 827.75,-240 827.75,-228 827.75,-228 827.75,-222 833.75,-216 839.75,-216 839.75,-216 910.25,-216 910.25,-216 916.25,-216 922.25,-222 922.25,-228 922.25,-228 922.25,-240 922.25,-240 922.25,-246 916.25,-252 910.25,-252"/>
<text text-anchor="middle" x="875" y="-231.5" font-family="sans" font-size="10.00">preseq_lcextrap</text>
</g>
<!-- 7&#45;&gt;13 -->
<g id="edge35" class="edge"><title>7&#45;&gt;13</title>
<path fill="none" stroke="grey" stroke-width="2" d="M328.279,-511.245C357.764,-501.422 403.622,-485.284 442,-468 592.967,-400.008 763.725,-301.298 837.629,-257.444"/>
<polygon fill="grey" stroke="grey" points="839.765,-260.245 846.57,-252.125 836.187,-254.229 839.765,-260.245"/>
</g>
<!-- 14 -->
<g id="node15" class="node"><title>14</title>
<path fill="none" stroke="#afd856" stroke-width="2" d="M198.25,-396C198.25,-396 157.75,-396 157.75,-396 151.75,-396 145.75,-390 145.75,-384 145.75,-384 145.75,-372 145.75,-372 145.75,-366 151.75,-360 157.75,-360 157.75,-360 198.25,-360 198.25,-360 204.25,-360 210.25,-366 210.25,-372 210.25,-372 210.25,-384 210.25,-384 210.25,-390 204.25,-396 198.25,-396"/>
<text text-anchor="middle" x="178" y="-375.5" font-family="sans" font-size="10.00">plotFinger</text>
</g>
<!-- 7&#45;&gt;14 -->
<g id="edge36" class="edge"><title>7&#45;&gt;14</title>
<path fill="none" stroke="grey" stroke-width="2" d="M267.898,-516.035C240.777,-509.831 202.294,-496.352 183,-468 170.789,-450.056 170.457,-425.059 172.653,-406.124"/>
<polygon fill="grey" stroke="grey" points="176.143,-406.444 174.121,-396.044 169.216,-405.436 176.143,-406.444"/>
</g>
<!-- 7&#45;&gt;15 -->
<g id="edge38" class="edge"><title>7&#45;&gt;15</title>
<path fill="none" stroke="grey" stroke-width="2" d="M328.169,-505.067C387.517,-473.289 522.892,-398.644 629,-324 657.898,-303.671 688.815,-277.719 710.132,-259.092"/>
<polygon fill="grey" stroke="grey" points="712.612,-261.572 717.808,-252.339 707.988,-256.317 712.612,-261.572"/>
</g>
<!-- 8 -->
<g id="node9" class="node"><title>8</title>
<path fill="none" stroke="#56a2d8" stroke-width="2" d="M313,-612C313,-612 283,-612 283,-612 277,-612 271,-606 271,-600 271,-600 271,-588 271,-588 271,-582 277,-576 283,-576 283,-576 313,-576 313,-576 319,-576 325,-582 325,-588 325,-588 325,-600 325,-600 325,-606 319,-612 313,-612"/>
<text text-anchor="middle" x="298" y="-591.5" font-family="sans" font-size="10.00">sort</text>
</g>
<!-- 8&#45;&gt;7 -->
<g id="edge28" class="edge"><title>8&#45;&gt;7</title>
<path fill="none" stroke="grey" stroke-width="2" d="M298,-575.697C298,-567.983 298,-558.712 298,-550.112"/>
<polygon fill="grey" stroke="grey" points="301.5,-550.104 298,-540.104 294.5,-550.104 301.5,-550.104"/>
</g>
<!-- 9&#45;&gt;8 -->
<g id="edge29" class="edge"><title>9&#45;&gt;8</title>
<path fill="none" stroke="grey" stroke-width="2" d="M298,-647.697C298,-639.983 298,-630.712 298,-622.112"/>
<polygon fill="grey" stroke="grey" points="301.5,-622.104 298,-612.104 294.5,-622.104 301.5,-622.104"/>
</g>
<!-- 10&#45;&gt;6 -->
<g id="edge27" class="edge"><title>10&#45;&gt;6</title>
<path fill="none" stroke="grey" stroke-width="2" d="M246.253,-432.411C261.385,-423.201 280.423,-411.612 296.895,-401.586"/>
<polygon fill="grey" stroke="grey" points="299.019,-404.39 305.741,-396.201 295.379,-398.411 299.019,-404.39"/>
</g>
<!-- 10&#45;&gt;12 -->
<g id="edge34" class="edge"><title>10&#45;&gt;12</title>
<path fill="none" stroke="grey" stroke-width="2" d="M191.997,-433.116C175.53,-423.429 154.272,-410.924 136.339,-400.376"/>
<polygon fill="grey" stroke="grey" points="137.702,-397.117 127.308,-395.064 134.153,-403.151 137.702,-397.117"/>
</g>
<!-- 10&#45;&gt;14 -->
<g id="edge37" class="edge"><title>10&#45;&gt;14</title>
<path fill="none" stroke="grey" stroke-width="2" d="M208.865,-431.697C204.148,-423.644 198.438,-413.894 193.218,-404.982"/>
<polygon fill="grey" stroke="grey" points="196.092,-402.964 188.018,-396.104 190.052,-406.502 196.092,-402.964"/>
</g>
<!-- 11&#45;&gt;0 -->
<g id="edge16" class="edge"><title>11&#45;&gt;0</title>
<path fill="none" stroke="grey" stroke-width="2" d="M254.562,-143.723C260.858,-123.366 274.224,-90.0375 298,-72 356.638,-27.5157 445.709,-19.1454 495.661,-18.2589"/>
<polygon fill="grey" stroke="grey" points="495.732,-21.7585 505.702,-18.173 495.672,-14.7588 495.732,-21.7585"/>
</g>
<!-- 21 -->
<g id="node22" class="node"><title>21</title>
<path fill="none" stroke="#d8cb56" stroke-width="2" d="M233.25,-108C233.25,-108 166.75,-108 166.75,-108 160.75,-108 154.75,-102 154.75,-96 154.75,-96 154.75,-84 154.75,-84 154.75,-78 160.75,-72 166.75,-72 166.75,-72 233.25,-72 233.25,-72 239.25,-72 245.25,-78 245.25,-84 245.25,-84 245.25,-96 245.25,-96 245.25,-102 239.25,-108 233.25,-108"/>
<text text-anchor="middle" x="200" y="-87.5" font-family="sans" font-size="10.00">fraglength_plot</text>
</g>
<!-- 11&#45;&gt;21 -->
<g id="edge48" class="edge"><title>11&#45;&gt;21</title>
<path fill="none" stroke="grey" stroke-width="2" d="M237.64,-143.697C231.767,-135.474 224.631,-125.483 218.158,-116.421"/>
<polygon fill="grey" stroke="grey" points="220.878,-114.207 212.217,-108.104 215.182,-118.276 220.878,-114.207"/>
</g>
<!-- 12&#45;&gt;0 -->
<g id="edge4" class="edge"><title>12&#45;&gt;0</title>
<path fill="none" stroke="grey" stroke-width="2" d="M82.5472,-359.831C73.624,-350.105 63.3374,-337.256 57,-324 39.5541,-287.509 38,-275.447 38,-235 38,-235 38,-235 38,-161 38,-115.846 49.5525,-97.2308 87,-72 153.47,-27.2148 400.795,-20.1799 495.644,-19.1461"/>
<polygon fill="grey" stroke="grey" points="495.945,-22.6436 505.912,-19.0515 495.88,-15.6439 495.945,-22.6436"/>
</g>
<!-- 23 -->
<g id="node24" class="node"><title>23</title>
<path fill="none" stroke="#567bd8" stroke-width="2" d="M122,-324C122,-324 78,-324 78,-324 72,-324 66,-318 66,-312 66,-312 66,-300 66,-300 66,-294 72,-288 78,-288 78,-288 122,-288 122,-288 128,-288 134,-294 134,-300 134,-300 134,-312 134,-312 134,-318 128,-324 122,-324"/>
<text text-anchor="middle" x="100" y="-303.5" font-family="sans" font-size="10.00">merge_bw</text>
</g>
<!-- 12&#45;&gt;23 -->
<g id="edge50" class="edge"><title>12&#45;&gt;23</title>
<path fill="none" stroke="grey" stroke-width="2" d="M100,-359.697C100,-351.983 100,-342.712 100,-334.112"/>
<polygon fill="grey" stroke="grey" points="103.5,-334.104 100,-324.104 96.5001,-334.104 103.5,-334.104"/>
</g>
<!-- 13&#45;&gt;0 -->
<g id="edge2" class="edge"><title>13&#45;&gt;0</title>
<path fill="none" stroke="grey" stroke-width="2" d="M882.734,-215.819C898.801,-178.898 932.789,-93.5835 914,-72 869.644,-21.047 657.445,-17.5275 570.391,-18.2924"/>
<polygon fill="grey" stroke="grey" points="570.132,-14.7949 560.172,-18.4073 570.211,-21.7945 570.132,-14.7949"/>
</g>
<!-- 13&#45;&gt;16 -->
<g id="edge42" class="edge"><title>13&#45;&gt;16</title>
<path fill="none" stroke="grey" stroke-width="2" d="M894.775,-215.697C904.754,-206.965 917.011,-196.24 927.857,-186.75"/>
<polygon fill="grey" stroke="grey" points="930.231,-189.323 935.452,-180.104 925.622,-184.055 930.231,-189.323"/>
</g>
<!-- 14&#45;&gt;0 -->
<g id="edge10" class="edge"><title>14&#45;&gt;0</title>
<path fill="none" stroke="grey" stroke-width="2" d="M172.95,-359.761C156.445,-301.811 107.266,-115.238 145,-72 190.373,-20.0083 407.757,-17.1457 495.827,-18.1889"/>
<polygon fill="grey" stroke="grey" points="495.857,-21.6896 505.905,-18.3325 495.956,-14.6903 495.857,-21.6896"/>
</g>
<!-- 15&#45;&gt;0 -->
<g id="edge1" class="edge"><title>15&#45;&gt;0</title>
<path fill="none" stroke="grey" stroke-width="2" d="M748.578,-215.86C768.563,-183.94 804.25,-114.756 770,-72 745.444,-41.3459 631.098,-27.2384 570.665,-21.8294"/>
<polygon fill="grey" stroke="grey" points="570.657,-18.3159 560.394,-20.9475 570.058,-25.2902 570.657,-18.3159"/>
</g>
<!-- 15&#45;&gt;16 -->
<g id="edge40" class="edge"><title>15&#45;&gt;16</title>
<path fill="none" stroke="grey" stroke-width="2" d="M764.169,-224.276C803.031,-211.797 874.596,-188.818 918.184,-174.822"/>
<polygon fill="grey" stroke="grey" points="919.381,-178.113 927.832,-171.724 917.241,-171.449 919.381,-178.113"/>
</g>
<!-- 22 -->
<g id="node23" class="node"><title>22</title>
<path fill="none" stroke="#d8b456" stroke-width="2" d="M749.25,-108C749.25,-108 716.75,-108 716.75,-108 710.75,-108 704.75,-102 704.75,-96 704.75,-96 704.75,-84 704.75,-84 704.75,-78 710.75,-72 716.75,-72 716.75,-72 749.25,-72 749.25,-72 755.25,-72 761.25,-78 761.25,-84 761.25,-84 761.25,-96 761.25,-96 761.25,-102 755.25,-108 749.25,-108"/>
<text text-anchor="middle" x="733" y="-87.5" font-family="sans" font-size="10.00">frip_plot</text>
</g>
<!-- 15&#45;&gt;22 -->
<g id="edge49" class="edge"><title>15&#45;&gt;22</title>
<path fill="none" stroke="grey" stroke-width="2" d="M736.518,-215.871C735.836,-191.67 734.583,-147.211 733.772,-118.393"/>
<polygon fill="grey" stroke="grey" points="737.264,-118.087 733.484,-108.189 730.267,-118.284 737.264,-118.087"/>
</g>
<!-- 16&#45;&gt;0 -->
<g id="edge9" class="edge"><title>16&#45;&gt;0</title>
<path fill="none" stroke="grey" stroke-width="2" d="M959.384,-143.721C963.33,-123.677 966.067,-90.9656 948,-72 922.105,-44.8171 667.356,-26.972 570.295,-21.1118"/>
<polygon fill="grey" stroke="grey" points="570.254,-17.6034 560.064,-20.5035 569.839,-24.591 570.254,-17.6034"/>
</g>
<!-- 25 -->
<g id="node26" class="node"><title>25</title>
<path fill="none" stroke="#97d856" stroke-width="2" d="M893.25,-108C893.25,-108 830.75,-108 830.75,-108 824.75,-108 818.75,-102 818.75,-96 818.75,-96 818.75,-84 818.75,-84 818.75,-78 824.75,-72 830.75,-72 830.75,-72 893.25,-72 893.25,-72 899.25,-72 905.25,-78 905.25,-84 905.25,-84 905.25,-96 905.25,-96 905.25,-102 899.25,-108 893.25,-108"/>
<text text-anchor="middle" x="862" y="-87.5" font-family="sans" font-size="10.00">custom_report</text>
</g>
<!-- 16&#45;&gt;25 -->
<g id="edge52" class="edge"><title>16&#45;&gt;25</title>
<path fill="none" stroke="grey" stroke-width="2" d="M932.011,-143.697C920.186,-134.796 905.608,-123.823 892.821,-114.199"/>
<polygon fill="grey" stroke="grey" points="894.819,-111.322 884.724,-108.104 890.609,-116.915 894.819,-111.322"/>
</g>
<!-- 17&#45;&gt;0 -->
<g id="edge14" class="edge"><title>17&#45;&gt;0</title>
<path fill="none" stroke="grey" stroke-width="2" d="M400.292,-143.946C396.052,-124.711 392.479,-93.3379 407,-72 426.946,-42.6915 466.519,-29.5409 496.02,-23.6707"/>
<polygon fill="grey" stroke="grey" points="496.762,-27.0937 505.987,-21.8834 495.526,-20.2036 496.762,-27.0937"/>
</g>
<!-- 18 -->
<g id="node19" class="node"><title>18</title>
<path fill="none" stroke="#5692d8" stroke-width="2" d="M458,-108C458,-108 428,-108 428,-108 422,-108 416,-102 416,-96 416,-96 416,-84 416,-84 416,-78 422,-72 428,-72 428,-72 458,-72 458,-72 464,-72 470,-78 470,-84 470,-84 470,-96 470,-96 470,-102 464,-108 458,-108"/>
<text text-anchor="middle" x="443" y="-87.5" font-family="sans" font-size="10.00">homer</text>
</g>
<!-- 17&#45;&gt;18 -->
<g id="edge45" class="edge"><title>17&#45;&gt;18</title>
<path fill="none" stroke="grey" stroke-width="2" d="M414.393,-143.697C418.765,-135.644 424.057,-125.894 428.895,-116.982"/>
<polygon fill="grey" stroke="grey" points="432.02,-118.563 433.715,-108.104 425.868,-115.223 432.02,-118.563"/>
</g>
<!-- 18&#45;&gt;0 -->
<g id="edge20" class="edge"><title>18&#45;&gt;0</title>
<path fill="none" stroke="grey" stroke-width="2" d="M465.247,-71.6966C476.582,-62.8807 490.53,-52.0321 502.819,-42.4742"/>
<polygon fill="grey" stroke="grey" points="505.264,-45.0065 511.009,-36.1043 500.966,-39.481 505.264,-45.0065"/>
</g>
<!-- 19&#45;&gt;0 -->
<g id="edge8" class="edge"><title>19&#45;&gt;0</title>
<path fill="none" stroke="grey" stroke-width="2" d="M483.755,-143.871C493.383,-119.457 511.142,-74.4258 522.496,-45.6351"/>
<polygon fill="grey" stroke="grey" points="525.808,-46.7761 526.221,-36.1893 519.296,-44.2079 525.808,-46.7761"/>
</g>
<!-- 20 -->
<g id="node21" class="node"><title>20</title>
<path fill="none" stroke="#56c9d8" stroke-width="2" d="M597.25,-108C597.25,-108 538.75,-108 538.75,-108 532.75,-108 526.75,-102 526.75,-96 526.75,-96 526.75,-84 526.75,-84 526.75,-78 532.75,-72 538.75,-72 538.75,-72 597.25,-72 597.25,-72 603.25,-72 609.25,-78 609.25,-84 609.25,-84 609.25,-96 609.25,-96 609.25,-102 603.25,-108 597.25,-108"/>
<text text-anchor="middle" x="568" y="-87.5" font-family="sans" font-size="10.00">diffbind_plots</text>
</g>
<!-- 19&#45;&gt;20 -->
<g id="edge47" class="edge"><title>19&#45;&gt;20</title>
<path fill="none" stroke="grey" stroke-width="2" d="M499.494,-143.697C510.955,-134.881 525.058,-124.032 537.484,-114.474"/>
<polygon fill="grey" stroke="grey" points="539.972,-116.976 545.764,-108.104 535.704,-111.427 539.972,-116.976"/>
</g>
<!-- 20&#45;&gt;0 -->
<g id="edge18" class="edge"><title>20&#45;&gt;0</title>
<path fill="none" stroke="grey" stroke-width="2" d="M559.348,-71.6966C555.364,-63.7284 550.55,-54.0995 546.132,-45.2641"/>
<polygon fill="grey" stroke="grey" points="549.155,-43.4833 541.552,-36.1043 542.894,-46.6139 549.155,-43.4833"/>
</g>
<!-- 21&#45;&gt;0 -->
<g id="edge7" class="edge"><title>21&#45;&gt;0</title>
<path fill="none" stroke="grey" stroke-width="2" d="M245.431,-75.6928C250.334,-74.3869 255.261,-73.1293 260,-72 343.658,-52.0654 443.067,-34.2124 495.806,-25.1955"/>
<polygon fill="grey" stroke="grey" points="496.441,-28.6378 505.713,-23.5119 495.268,-21.7368 496.441,-28.6378"/>
</g>
<!-- 22&#45;&gt;0 -->
<g id="edge6" class="edge"><title>22&#45;&gt;0</title>
<path fill="none" stroke="grey" stroke-width="2" d="M704.397,-77.4569C699.606,-75.591 694.674,-73.7114 690,-72 649.171,-57.0485 601.827,-41.2774 569.893,-30.8661"/>
<polygon fill="grey" stroke="grey" points="570.686,-27.4438 560.094,-27.682 568.522,-34.1011 570.686,-27.4438"/>
</g>
<!-- 23&#45;&gt;0 -->
<g id="edge21" class="edge"><title>23&#45;&gt;0</title>
<path fill="none" stroke="grey" stroke-width="2" d="M94.4174,-287.874C81.6617,-245.102 55.6283,-132.692 112,-72 137.969,-44.0403 397.693,-26.6207 495.769,-20.9955"/>
<polygon fill="grey" stroke="grey" points="496.04,-24.4858 505.827,-20.4276 495.645,-17.497 496.04,-24.4858"/>
</g>
<!-- 24&#45;&gt;0 -->
<g id="edge3" class="edge"><title>24&#45;&gt;0</title>
<path fill="none" stroke="grey" stroke-width="2" d="M601.866,-143.838C615.014,-125.332 630.976,-95.3821 618,-72 607.58,-53.224 587.438,-40.2305 569.375,-31.8093"/>
<polygon fill="grey" stroke="grey" points="570.748,-28.5899 560.182,-27.816 567.96,-35.0104 570.748,-28.5899"/>
</g>
<!-- 24&#45;&gt;25 -->
<g id="edge53" class="edge"><title>24&#45;&gt;25</title>
<path fill="none" stroke="grey" stroke-width="2" d="M653.282,-144.322C700.814,-132.179 764.387,-115.938 808.834,-104.583"/>
<polygon fill="grey" stroke="grey" points="809.753,-107.96 818.575,-102.094 808.02,-101.178 809.753,-107.96"/>
</g>
<!-- 25&#45;&gt;0 -->
<g id="edge11" class="edge"><title>25&#45;&gt;0</title>
<path fill="none" stroke="grey" stroke-width="2" d="M818.728,-75.8443C813.778,-74.4803 808.791,-73.1681 804,-72 721.21,-51.8165 622.735,-34.1093 570.272,-25.1705"/>
<polygon fill="grey" stroke="grey" points="570.548,-21.6676 560.104,-23.45 569.38,-28.5695 570.548,-21.6676"/>
</g>
</g>
</svg>
