<?xml version="1.0" encoding="UTF-8" standalone="no"?>
<!DOCTYPE svg PUBLIC "-//W3C//DTD SVG 1.1//EN"
 "http://www.w3.org/Graphics/SVG/1.1/DTD/svg11.dtd">
<!-- Generated by graphviz version 2.49.0 (20210829.0051)
 -->
<!-- Title: snakemake_dag Pages: 1 -->
<svg width="923pt" height="620pt"
 viewBox="0.00 0.00 923.00 620.00" xmlns="http://www.w3.org/2000/svg" xmlns:xlink="http://www.w3.org/1999/xlink">
<g id="graph0" class="graph" transform="scale(1 1) rotate(0) translate(4 616)">
<title>snakemake_dag</title>
<polygon fill="white" stroke="transparent" points="-4,4 -4,-616 919,-616 919,4 -4,4"/>
<!-- 0 -->
<g id="node1" class="node">
<title>0</title>
<path fill="none" stroke="#566bd8" stroke-width="2" d="M461.5,-36C461.5,-36 431.5,-36 431.5,-36 425.5,-36 419.5,-30 419.5,-24 419.5,-24 419.5,-12 419.5,-12 419.5,-6 425.5,0 431.5,0 431.5,0 461.5,0 461.5,0 467.5,0 473.5,-6 473.5,-12 473.5,-12 473.5,-24 473.5,-24 473.5,-30 467.5,-36 461.5,-36"/>
<text text-anchor="middle" x="446.5" y="-15.5" font-family="sans" font-size="10.00">all</text>
</g>
<!-- 1 -->
<g id="node2" class="node">
<title>1</title>
<path fill="none" stroke="#78d856" stroke-width="2" d="M47,-252C47,-252 12,-252 12,-252 6,-252 0,-246 0,-240 0,-240 0,-228 0,-228 0,-222 6,-216 12,-216 12,-216 47,-216 47,-216 53,-216 59,-222 59,-228 59,-228 59,-240 59,-240 59,-246 53,-252 47,-252"/>
<text text-anchor="middle" x="29.5" y="-231.5" font-family="sans" font-size="10.00">windows</text>
</g>
<!-- 1&#45;&gt;0 -->
<g id="edge16" class="edge">
<title>1&#45;&gt;0</title>
<path fill="none" stroke="grey" stroke-width="2" d="M27.53,-215.86C24.75,-182.33 24.07,-108.21 66.5,-72 117.57,-28.42 323.85,-20.61 409.22,-19.26"/>
<polygon fill="grey" stroke="grey" stroke-width="2" points="409.3,-22.76 419.25,-19.12 409.21,-15.76 409.3,-22.76"/>
</g>
<!-- 2 -->
<g id="node3" class="node">
<title>2</title>
<path fill="none" stroke="#a7d856" stroke-width="2" d="M95.5,-180C95.5,-180 65.5,-180 65.5,-180 59.5,-180 53.5,-174 53.5,-168 53.5,-168 53.5,-156 53.5,-156 53.5,-150 59.5,-144 65.5,-144 65.5,-144 95.5,-144 95.5,-144 101.5,-144 107.5,-150 107.5,-156 107.5,-156 107.5,-168 107.5,-168 107.5,-174 101.5,-180 95.5,-180"/>
<text text-anchor="middle" x="80.5" y="-159.5" font-family="sans" font-size="10.00">tracks</text>
</g>
<!-- 1&#45;&gt;2 -->
<g id="edge21" class="edge">
<title>1&#45;&gt;2</title>
<path fill="none" stroke="grey" stroke-width="2" d="M42.11,-215.7C48.1,-207.47 55.38,-197.48 61.98,-188.42"/>
<polygon fill="grey" stroke="grey" stroke-width="2" points="64.98,-190.25 68.04,-180.1 59.32,-186.13 64.98,-190.25"/>
</g>
<!-- 2&#45;&gt;0 -->
<g id="edge11" class="edge">
<title>2&#45;&gt;0</title>
<path fill="none" stroke="grey" stroke-width="2" d="M75.04,-143.93C69.86,-124.08 65.19,-91.56 82.5,-72 125.06,-23.9 325.46,-18.67 409.39,-18.63"/>
<polygon fill="grey" stroke="grey" stroke-width="2" points="409.49,-22.13 419.5,-18.65 409.5,-15.13 409.49,-22.13"/>
</g>
<!-- 20 -->
<g id="node21" class="node">
<title>20</title>
<path fill="none" stroke="#56d8a2" stroke-width="2" d="M147.5,-108C147.5,-108 103.5,-108 103.5,-108 97.5,-108 91.5,-102 91.5,-96 91.5,-96 91.5,-84 91.5,-84 91.5,-78 97.5,-72 103.5,-72 103.5,-72 147.5,-72 147.5,-72 153.5,-72 159.5,-78 159.5,-84 159.5,-84 159.5,-96 159.5,-96 159.5,-102 153.5,-108 147.5,-108"/>
<text text-anchor="middle" x="125.5" y="-87.5" font-family="sans" font-size="10.00">merge_bw</text>
</g>
<!-- 2&#45;&gt;20 -->
<g id="edge43" class="edge">
<title>2&#45;&gt;20</title>
<path fill="none" stroke="grey" stroke-width="2" d="M91.62,-143.7C96.86,-135.56 103.2,-125.69 108.98,-116.7"/>
<polygon fill="grey" stroke="grey" stroke-width="2" points="112.04,-118.41 114.5,-108.1 106.15,-114.62 112.04,-118.41"/>
</g>
<!-- 3 -->
<g id="node4" class="node">
<title>3</title>
<path fill="none" stroke="#d86e56" stroke-width="2" d="M451.5,-468C451.5,-468 415.5,-468 415.5,-468 409.5,-468 403.5,-462 403.5,-456 403.5,-456 403.5,-444 403.5,-444 403.5,-438 409.5,-432 415.5,-432 415.5,-432 451.5,-432 451.5,-432 457.5,-432 463.5,-438 463.5,-444 463.5,-444 463.5,-456 463.5,-456 463.5,-462 457.5,-468 451.5,-468"/>
<text text-anchor="middle" x="433.5" y="-447.5" font-family="sans" font-size="10.00">markdup</text>
</g>
<!-- 3&#45;&gt;0 -->
<g id="edge3" class="edge">
<title>3&#45;&gt;0</title>
<path fill="none" stroke="grey" stroke-width="2" d="M403.29,-448.35C327.53,-444.97 135.5,-424.77 135.5,-307 135.5,-307 135.5,-307 135.5,-233 135.5,-147.33 165.2,-110.96 241.5,-72 296.24,-44.04 366.93,-30 409.38,-23.61"/>
<polygon fill="grey" stroke="grey" stroke-width="2" points="409.88,-27.08 419.28,-22.19 408.89,-20.15 409.88,-27.08"/>
</g>
<!-- 3&#45;&gt;2 -->
<g id="edge20" class="edge">
<title>3&#45;&gt;2</title>
<path fill="none" stroke="grey" stroke-width="2" d="M403.49,-448.16C333.21,-445.55 160.95,-435.22 121.5,-396 66.12,-340.95 70.38,-239.16 76.25,-190.41"/>
<polygon fill="grey" stroke="grey" stroke-width="2" points="79.74,-190.68 77.58,-180.31 72.8,-189.76 79.74,-190.68"/>
</g>
<!-- 6 -->
<g id="node7" class="node">
<title>6</title>
<path fill="none" stroke="#56d892" stroke-width="2" d="M421.5,-396C421.5,-396 391.5,-396 391.5,-396 385.5,-396 379.5,-390 379.5,-384 379.5,-384 379.5,-372 379.5,-372 379.5,-366 385.5,-360 391.5,-360 391.5,-360 421.5,-360 421.5,-360 427.5,-360 433.5,-366 433.5,-372 433.5,-372 433.5,-384 433.5,-384 433.5,-390 427.5,-396 421.5,-396"/>
<text text-anchor="middle" x="406.5" y="-375.5" font-family="sans" font-size="10.00">index</text>
</g>
<!-- 3&#45;&gt;6 -->
<g id="edge24" class="edge">
<title>3&#45;&gt;6</title>
<path fill="none" stroke="grey" stroke-width="2" d="M426.83,-431.7C423.79,-423.81 420.12,-414.3 416.74,-405.55"/>
<polygon fill="grey" stroke="grey" stroke-width="2" points="419.96,-404.17 413.1,-396.1 413.43,-406.69 419.96,-404.17"/>
</g>
<!-- 10 -->
<g id="node11" class="node">
<title>10</title>
<path fill="none" stroke="#56d863" stroke-width="2" d="M470,-324C470,-324 431,-324 431,-324 425,-324 419,-318 419,-312 419,-312 419,-300 419,-300 419,-294 425,-288 431,-288 431,-288 470,-288 470,-288 476,-288 482,-294 482,-300 482,-300 482,-312 482,-312 482,-318 476,-324 470,-324"/>
<text text-anchor="middle" x="450.5" y="-303.5" font-family="sans" font-size="10.00">callpeaks</text>
</g>
<!-- 3&#45;&gt;10 -->
<g id="edge27" class="edge">
<title>3&#45;&gt;10</title>
<path fill="none" stroke="grey" stroke-width="2" d="M436.76,-431.87C438.64,-421.51 440.94,-408.03 442.5,-396 445.18,-375.36 447.24,-351.91 448.61,-334.27"/>
<polygon fill="grey" stroke="grey" stroke-width="2" points="452.11,-334.34 449.36,-324.11 445.13,-333.82 452.11,-334.34"/>
</g>
<!-- 11 -->
<g id="node12" class="node">
<title>11</title>
<path fill="none" stroke="#d88556" stroke-width="2" d="M817,-180C817,-180 774,-180 774,-180 768,-180 762,-174 762,-168 762,-168 762,-156 762,-156 762,-150 768,-144 774,-144 774,-144 817,-144 817,-144 823,-144 829,-150 829,-156 829,-156 829,-168 829,-168 829,-174 823,-180 817,-180"/>
<text text-anchor="middle" x="795.5" y="-159.5" font-family="sans" font-size="10.00">fraglength</text>
</g>
<!-- 3&#45;&gt;11 -->
<g id="edge28" class="edge">
<title>3&#45;&gt;11</title>
<path fill="none" stroke="grey" stroke-width="2" d="M463.8,-434.63C483.46,-424.78 509.28,-410.85 530.5,-396 626.34,-328.92 726.64,-232.28 771.43,-187.49"/>
<polygon fill="grey" stroke="grey" stroke-width="2" points="774.06,-189.81 778.63,-180.26 769.1,-184.87 774.06,-189.81"/>
</g>
<!-- 12 -->
<g id="node13" class="node">
<title>12</title>
<path fill="none" stroke="#56d87b" stroke-width="2" d="M247,-180C247,-180 176,-180 176,-180 170,-180 164,-174 164,-168 164,-168 164,-156 164,-156 164,-150 170,-144 176,-144 176,-144 247,-144 247,-144 253,-144 259,-150 259,-156 259,-156 259,-168 259,-168 259,-174 253,-180 247,-180"/>
<text text-anchor="middle" x="211.5" y="-159.5" font-family="sans" font-size="10.00">preseq_lcextrap</text>
</g>
<!-- 3&#45;&gt;12 -->
<g id="edge29" class="edge">
<title>3&#45;&gt;12</title>
<path fill="none" stroke="grey" stroke-width="2" d="M410.31,-431.98C397.78,-422.2 382.48,-409.25 370.5,-396 308.71,-327.66 251.88,-233.94 226.08,-189.04"/>
<polygon fill="grey" stroke="grey" stroke-width="2" points="229.05,-187.19 221.05,-180.23 222.96,-190.65 229.05,-187.19"/>
</g>
<!-- 13 -->
<g id="node14" class="node">
<title>13</title>
<path fill="none" stroke="#569ad8" stroke-width="2" d="M553,-324C553,-324 512,-324 512,-324 506,-324 500,-318 500,-312 500,-312 500,-300 500,-300 500,-294 506,-288 512,-288 512,-288 553,-288 553,-288 559,-288 565,-294 565,-300 565,-300 565,-312 565,-312 565,-318 559,-324 553,-324"/>
<text text-anchor="middle" x="532.5" y="-303.5" font-family="sans" font-size="10.00">plotFinger</text>
</g>
<!-- 3&#45;&gt;13 -->
<g id="edge31" class="edge">
<title>3&#45;&gt;13</title>
<path fill="none" stroke="grey" stroke-width="2" d="M445.44,-431.87C462.69,-407.14 494.68,-361.24 514.71,-332.51"/>
<polygon fill="grey" stroke="grey" stroke-width="2" points="517.67,-334.39 520.52,-324.19 511.93,-330.39 517.67,-334.39"/>
</g>
<!-- 14 -->
<g id="node15" class="node">
<title>14</title>
<path fill="none" stroke="#d8c356" stroke-width="2" d="M715.5,-180C715.5,-180 685.5,-180 685.5,-180 679.5,-180 673.5,-174 673.5,-168 673.5,-168 673.5,-156 673.5,-156 673.5,-150 679.5,-144 685.5,-144 685.5,-144 715.5,-144 715.5,-144 721.5,-144 727.5,-150 727.5,-156 727.5,-156 727.5,-168 727.5,-168 727.5,-174 721.5,-180 715.5,-180"/>
<text text-anchor="middle" x="700.5" y="-159.5" font-family="sans" font-size="10.00">frip</text>
</g>
<!-- 3&#45;&gt;14 -->
<g id="edge33" class="edge">
<title>3&#45;&gt;14</title>
<path fill="none" stroke="grey" stroke-width="2" d="M454.42,-431.81C466.78,-421.55 482.67,-408.19 496.5,-396 564.64,-335.95 585.28,-323.34 641.5,-252 657.43,-231.79 673.43,-207.33 684.74,-189.17"/>
<polygon fill="grey" stroke="grey" stroke-width="2" points="687.94,-190.66 690.2,-180.31 681.98,-186.98 687.94,-190.66"/>
</g>
<!-- 4 -->
<g id="node5" class="node">
<title>4</title>
<path fill="none" stroke="#56d8d0" stroke-width="2" d="M448.5,-540C448.5,-540 418.5,-540 418.5,-540 412.5,-540 406.5,-534 406.5,-528 406.5,-528 406.5,-516 406.5,-516 406.5,-510 412.5,-504 418.5,-504 418.5,-504 448.5,-504 448.5,-504 454.5,-504 460.5,-510 460.5,-516 460.5,-516 460.5,-528 460.5,-528 460.5,-534 454.5,-540 448.5,-540"/>
<text text-anchor="middle" x="433.5" y="-519.5" font-family="sans" font-size="10.00">sort</text>
</g>
<!-- 4&#45;&gt;3 -->
<g id="edge22" class="edge">
<title>4&#45;&gt;3</title>
<path fill="none" stroke="grey" stroke-width="2" d="M433.5,-503.7C433.5,-495.98 433.5,-486.71 433.5,-478.11"/>
<polygon fill="grey" stroke="grey" stroke-width="2" points="437,-478.1 433.5,-468.1 430,-478.1 437,-478.1"/>
</g>
<!-- 5 -->
<g id="node6" class="node">
<title>5</title>
<path fill="none" stroke="#8fd856" stroke-width="2" d="M449.5,-612C449.5,-612 417.5,-612 417.5,-612 411.5,-612 405.5,-606 405.5,-600 405.5,-600 405.5,-588 405.5,-588 405.5,-582 411.5,-576 417.5,-576 417.5,-576 449.5,-576 449.5,-576 455.5,-576 461.5,-582 461.5,-588 461.5,-588 461.5,-600 461.5,-600 461.5,-606 455.5,-612 449.5,-612"/>
<text text-anchor="middle" x="433.5" y="-591.5" font-family="sans" font-size="10.00">bowtie2</text>
</g>
<!-- 5&#45;&gt;4 -->
<g id="edge23" class="edge">
<title>5&#45;&gt;4</title>
<path fill="none" stroke="grey" stroke-width="2" d="M433.5,-575.7C433.5,-567.98 433.5,-558.71 433.5,-550.11"/>
<polygon fill="grey" stroke="grey" stroke-width="2" points="437,-550.1 433.5,-540.1 430,-550.1 437,-550.1"/>
</g>
<!-- 6&#45;&gt;2 -->
<g id="edge19" class="edge">
<title>6&#45;&gt;2</title>
<path fill="none" stroke="grey" stroke-width="2" d="M380.37,-359.85C321.96,-321.5 180.76,-228.82 115.12,-185.73"/>
<polygon fill="grey" stroke="grey" stroke-width="2" points="117.03,-182.79 106.75,-180.23 113.19,-188.65 117.03,-182.79"/>
</g>
<!-- 6&#45;&gt;10 -->
<g id="edge26" class="edge">
<title>6&#45;&gt;10</title>
<path fill="none" stroke="grey" stroke-width="2" d="M417.38,-359.7C422.49,-351.56 428.7,-341.69 434.34,-332.7"/>
<polygon fill="grey" stroke="grey" stroke-width="2" points="437.39,-334.43 439.75,-324.1 431.46,-330.71 437.39,-334.43"/>
</g>
<!-- 6&#45;&gt;13 -->
<g id="edge30" class="edge">
<title>6&#45;&gt;13</title>
<path fill="none" stroke="grey" stroke-width="2" d="M433.53,-361.98C450.76,-352.41 473.39,-339.84 492.66,-329.14"/>
<polygon fill="grey" stroke="grey" stroke-width="2" points="494.48,-332.13 501.52,-324.21 491.08,-326.01 494.48,-332.13"/>
</g>
<!-- 7 -->
<g id="node8" class="node">
<title>7</title>
<path fill="none" stroke="#56c9d8" stroke-width="2" d="M319.5,-180C319.5,-180 289.5,-180 289.5,-180 283.5,-180 277.5,-174 277.5,-168 277.5,-168 277.5,-156 277.5,-156 277.5,-150 283.5,-144 289.5,-144 289.5,-144 319.5,-144 319.5,-144 325.5,-144 331.5,-150 331.5,-156 331.5,-156 331.5,-168 331.5,-168 331.5,-174 325.5,-180 319.5,-180"/>
<text text-anchor="middle" x="304.5" y="-159.5" font-family="sans" font-size="10.00">fastqc</text>
</g>
<!-- 7&#45;&gt;0 -->
<g id="edge4" class="edge">
<title>7&#45;&gt;0</title>
<path fill="none" stroke="grey" stroke-width="2" d="M295.08,-143.91C285.88,-124.64 275.29,-93.23 290.5,-72 317.26,-34.65 371.86,-23.3 408.83,-20.03"/>
<polygon fill="grey" stroke="grey" stroke-width="2" points="409.49,-23.5 419.22,-19.29 408.99,-16.51 409.49,-23.5"/>
</g>
<!-- 15 -->
<g id="node16" class="node">
<title>15</title>
<path fill="none" stroke="#61d856" stroke-width="2" d="M341.5,-108C341.5,-108 311.5,-108 311.5,-108 305.5,-108 299.5,-102 299.5,-96 299.5,-96 299.5,-84 299.5,-84 299.5,-78 305.5,-72 311.5,-72 311.5,-72 341.5,-72 341.5,-72 347.5,-72 353.5,-78 353.5,-84 353.5,-84 353.5,-96 353.5,-96 353.5,-102 347.5,-108 341.5,-108"/>
<text text-anchor="middle" x="326.5" y="-87.5" font-family="sans" font-size="10.00">multiqc</text>
</g>
<!-- 7&#45;&gt;15 -->
<g id="edge36" class="edge">
<title>7&#45;&gt;15</title>
<path fill="none" stroke="grey" stroke-width="2" d="M309.94,-143.7C312.39,-135.9 315.34,-126.51 318.07,-117.83"/>
<polygon fill="grey" stroke="grey" stroke-width="2" points="321.46,-118.69 321.12,-108.1 314.79,-116.59 321.46,-118.69"/>
</g>
<!-- 8 -->
<g id="node9" class="node">
<title>8</title>
<path fill="none" stroke="#d85656" stroke-width="2" d="M417,-180C417,-180 362,-180 362,-180 356,-180 350,-174 350,-168 350,-168 350,-156 350,-156 350,-150 356,-144 362,-144 362,-144 417,-144 417,-144 423,-144 429,-150 429,-156 429,-156 429,-168 429,-168 429,-174 423,-180 417,-180"/>
<text text-anchor="middle" x="389.5" y="-159.5" font-family="sans" font-size="10.00">fastq_screen</text>
</g>
<!-- 8&#45;&gt;0 -->
<g id="edge2" class="edge">
<title>8&#45;&gt;0</title>
<path fill="none" stroke="grey" stroke-width="2" d="M396.38,-143.87C406.18,-119.46 424.25,-74.43 435.81,-45.64"/>
<polygon fill="grey" stroke="grey" stroke-width="2" points="439.12,-46.77 439.6,-36.19 432.63,-44.17 439.12,-46.77"/>
</g>
<!-- 8&#45;&gt;15 -->
<g id="edge34" class="edge">
<title>8&#45;&gt;15</title>
<path fill="none" stroke="grey" stroke-width="2" d="M373.93,-143.7C366.3,-135.22 356.98,-124.86 348.62,-115.58"/>
<polygon fill="grey" stroke="grey" stroke-width="2" points="351.19,-113.2 341.89,-108.1 345.98,-117.88 351.19,-113.2"/>
</g>
<!-- 9 -->
<g id="node10" class="node">
<title>9</title>
<path fill="none" stroke="#d89c56" stroke-width="2" d="M410.5,-252C410.5,-252 366.5,-252 366.5,-252 360.5,-252 354.5,-246 354.5,-240 354.5,-240 354.5,-228 354.5,-228 354.5,-222 360.5,-216 366.5,-216 366.5,-216 410.5,-216 410.5,-216 416.5,-216 422.5,-222 422.5,-228 422.5,-228 422.5,-240 422.5,-240 422.5,-246 416.5,-252 410.5,-252"/>
<text text-anchor="middle" x="388.5" y="-231.5" font-family="sans" font-size="10.00">consensus</text>
</g>
<!-- 9&#45;&gt;0 -->
<g id="edge9" class="edge">
<title>9&#45;&gt;0</title>
<path fill="none" stroke="grey" stroke-width="2" d="M422.75,-220.33C456.99,-207.32 505.32,-187.89 510.5,-180 536.82,-139.86 530.93,-115.44 510.5,-72 504.32,-58.87 493.12,-47.87 481.8,-39.36"/>
<polygon fill="grey" stroke="grey" stroke-width="2" points="483.79,-36.49 473.6,-33.61 479.77,-42.22 483.79,-36.49"/>
</g>
<!-- 16 -->
<g id="node17" class="node">
<title>16</title>
<path fill="none" stroke="#d8b456" stroke-width="2" d="M489.5,-180C489.5,-180 459.5,-180 459.5,-180 453.5,-180 447.5,-174 447.5,-168 447.5,-168 447.5,-156 447.5,-156 447.5,-150 453.5,-144 459.5,-144 459.5,-144 489.5,-144 489.5,-144 495.5,-144 501.5,-150 501.5,-156 501.5,-156 501.5,-168 501.5,-168 501.5,-174 495.5,-180 489.5,-180"/>
<text text-anchor="middle" x="474.5" y="-159.5" font-family="sans" font-size="10.00">deseq2</text>
</g>
<!-- 9&#45;&gt;16 -->
<g id="edge39" class="edge">
<title>9&#45;&gt;16</title>
<path fill="none" stroke="grey" stroke-width="2" d="M409.76,-215.7C420.59,-206.88 433.92,-196.03 445.66,-186.47"/>
<polygon fill="grey" stroke="grey" stroke-width="2" points="447.94,-189.13 453.49,-180.1 443.52,-183.7 447.94,-189.13"/>
</g>
<!-- 10&#45;&gt;0 -->
<g id="edge13" class="edge">
<title>10&#45;&gt;0</title>
<path fill="none" stroke="grey" stroke-width="2" d="M450.4,-287.94C451.11,-268.7 454.86,-237.33 470.5,-216 489.35,-190.31 516.6,-207.61 532.5,-180 540.48,-166.13 532.72,-160 532.5,-144 532.06,-111.99 546.35,-99.82 530.5,-72 520.13,-53.8 500.68,-40.93 483.11,-32.44"/>
<polygon fill="grey" stroke="grey" stroke-width="2" points="484.16,-29.08 473.61,-28.17 481.29,-35.46 484.16,-29.08"/>
</g>
<!-- 10&#45;&gt;9 -->
<g id="edge25" class="edge">
<title>10&#45;&gt;9</title>
<path fill="none" stroke="grey" stroke-width="2" d="M435.17,-287.7C427.74,-279.3 418.68,-269.07 410.52,-259.86"/>
<polygon fill="grey" stroke="grey" stroke-width="2" points="412.9,-257.27 403.65,-252.1 407.66,-261.91 412.9,-257.27"/>
</g>
<!-- 10&#45;&gt;14 -->
<g id="edge32" class="edge">
<title>10&#45;&gt;14</title>
<path fill="none" stroke="grey" stroke-width="2" d="M482.14,-291.44C485.28,-290.23 488.44,-289.06 491.5,-288 547.34,-268.65 569.22,-283.05 619.5,-252 645.82,-235.74 668.8,-208.51 683.49,-188.44"/>
<polygon fill="grey" stroke="grey" stroke-width="2" points="686.5,-190.24 689.45,-180.06 680.8,-186.18 686.5,-190.24"/>
</g>
<!-- 21 -->
<g id="node22" class="node">
<title>21</title>
<path fill="none" stroke="#56d8b9" stroke-width="2" d="M598,-252C598,-252 491,-252 491,-252 485,-252 479,-246 479,-240 479,-240 479,-228 479,-228 479,-222 485,-216 491,-216 491,-216 598,-216 598,-216 604,-216 610,-222 610,-228 610,-228 610,-240 610,-240 610,-246 604,-252 598,-252"/>
<text text-anchor="middle" x="544.5" y="-231.5" font-family="sans" font-size="10.00">make_high_conf_peaks</text>
</g>
<!-- 10&#45;&gt;21 -->
<g id="edge44" class="edge">
<title>10&#45;&gt;21</title>
<path fill="none" stroke="grey" stroke-width="2" d="M473.74,-287.7C485.69,-278.8 500.42,-267.82 513.35,-258.2"/>
<polygon fill="grey" stroke="grey" stroke-width="2" points="515.6,-260.88 521.53,-252.1 511.42,-255.27 515.6,-260.88"/>
</g>
<!-- 11&#45;&gt;0 -->
<g id="edge5" class="edge">
<title>11&#45;&gt;0</title>
<path fill="none" stroke="grey" stroke-width="2" d="M792.77,-143.95C788.55,-123.49 778.4,-89.74 755.5,-72 713.57,-39.51 556.36,-25.77 483.72,-21.06"/>
<polygon fill="grey" stroke="grey" stroke-width="2" points="483.84,-17.56 473.64,-20.43 483.4,-24.55 483.84,-17.56"/>
</g>
<!-- 18 -->
<g id="node19" class="node">
<title>18</title>
<path fill="none" stroke="#bed856" stroke-width="2" d="M903,-108C903,-108 836,-108 836,-108 830,-108 824,-102 824,-96 824,-96 824,-84 824,-84 824,-78 830,-72 836,-72 836,-72 903,-72 903,-72 909,-72 915,-78 915,-84 915,-84 915,-96 915,-96 915,-102 909,-108 903,-108"/>
<text text-anchor="middle" x="869.5" y="-87.5" font-family="sans" font-size="10.00">fraglength_plot</text>
</g>
<!-- 11&#45;&gt;18 -->
<g id="edge41" class="edge">
<title>11&#45;&gt;18</title>
<path fill="none" stroke="grey" stroke-width="2" d="M813.79,-143.7C822.93,-135.05 834.14,-124.45 844.1,-115.03"/>
<polygon fill="grey" stroke="grey" stroke-width="2" points="846.56,-117.52 851.42,-108.1 841.75,-112.43 846.56,-117.52"/>
</g>
<!-- 12&#45;&gt;0 -->
<g id="edge14" class="edge">
<title>12&#45;&gt;0</title>
<path fill="none" stroke="grey" stroke-width="2" d="M220.41,-143.7C231.59,-123.63 252.62,-90.9 279.5,-72 318.91,-44.29 373.47,-30.58 409.35,-24.16"/>
<polygon fill="grey" stroke="grey" stroke-width="2" points="410.12,-27.58 419.4,-22.46 408.96,-20.67 410.12,-27.58"/>
</g>
<!-- 12&#45;&gt;15 -->
<g id="edge37" class="edge">
<title>12&#45;&gt;15</title>
<path fill="none" stroke="grey" stroke-width="2" d="M239.63,-143.88C255.01,-134.52 274.21,-122.83 290.64,-112.83"/>
<polygon fill="grey" stroke="grey" stroke-width="2" points="292.73,-115.65 299.45,-107.47 289.09,-109.67 292.73,-115.65"/>
</g>
<!-- 13&#45;&gt;0 -->
<g id="edge12" class="edge">
<title>13&#45;&gt;0</title>
<path fill="none" stroke="grey" stroke-width="2" d="M565.04,-294.44C584.6,-286.22 607.89,-272.66 619.5,-252 642.17,-211.65 669.26,-154.49 602.5,-72 573.76,-36.48 520.15,-24.66 483.89,-20.78"/>
<polygon fill="grey" stroke="grey" stroke-width="2" points="483.98,-17.27 473.71,-19.85 483.35,-24.25 483.98,-17.27"/>
</g>
<!-- 14&#45;&gt;0 -->
<g id="edge6" class="edge">
<title>14&#45;&gt;0</title>
<path fill="none" stroke="grey" stroke-width="2" d="M717.91,-143.67C735.09,-124.48 756.37,-93.41 738.5,-72 706.47,-33.63 555.24,-22.98 483.91,-20.07"/>
<polygon fill="grey" stroke="grey" stroke-width="2" points="483.71,-16.56 473.58,-19.68 483.44,-23.55 483.71,-16.56"/>
</g>
<!-- 14&#45;&gt;15 -->
<g id="edge35" class="edge">
<title>14&#45;&gt;15</title>
<path fill="none" stroke="grey" stroke-width="2" d="M673.3,-155.91C607.32,-143.56 438.66,-111.99 363.55,-97.94"/>
<polygon fill="grey" stroke="grey" stroke-width="2" points="364.07,-94.47 353.6,-96.07 362.78,-101.35 364.07,-94.47"/>
</g>
<!-- 19 -->
<g id="node20" class="node">
<title>19</title>
<path fill="none" stroke="#d6d856" stroke-width="2" d="M717,-108C717,-108 684,-108 684,-108 678,-108 672,-102 672,-96 672,-96 672,-84 672,-84 672,-78 678,-72 684,-72 684,-72 717,-72 717,-72 723,-72 729,-78 729,-84 729,-84 729,-96 729,-96 729,-102 723,-108 717,-108"/>
<text text-anchor="middle" x="700.5" y="-87.5" font-family="sans" font-size="10.00">frip_plot</text>
</g>
<!-- 14&#45;&gt;19 -->
<g id="edge42" class="edge">
<title>14&#45;&gt;19</title>
<path fill="none" stroke="grey" stroke-width="2" d="M700.5,-143.7C700.5,-135.98 700.5,-126.71 700.5,-118.11"/>
<polygon fill="grey" stroke="grey" stroke-width="2" points="704,-118.1 700.5,-108.1 697,-118.1 704,-118.1"/>
</g>
<!-- 15&#45;&gt;0 -->
<g id="edge17" class="edge">
<title>15&#45;&gt;0</title>
<path fill="none" stroke="grey" stroke-width="2" d="M353.73,-73.12C370.61,-63.27 392.47,-50.52 410.74,-39.86"/>
<polygon fill="grey" stroke="grey" stroke-width="2" points="412.5,-42.88 419.38,-34.82 408.98,-36.84 412.5,-42.88"/>
</g>
<!-- 16&#45;&gt;0 -->
<g id="edge15" class="edge">
<title>16&#45;&gt;0</title>
<path fill="none" stroke="grey" stroke-width="2" d="M458.89,-143.77C451.13,-134.03 442.55,-121.18 438.5,-108 432.29,-87.8 434.95,-63.89 438.81,-45.94"/>
<polygon fill="grey" stroke="grey" stroke-width="2" points="442.23,-46.67 441.16,-36.13 435.42,-45.04 442.23,-46.67"/>
</g>
<!-- 16&#45;&gt;15 -->
<g id="edge38" class="edge">
<title>16&#45;&gt;15</title>
<path fill="none" stroke="grey" stroke-width="2" d="M447.35,-148.16C423.65,-136.95 389.04,-120.58 362.92,-108.23"/>
<polygon fill="grey" stroke="grey" stroke-width="2" points="364.26,-104.99 353.72,-103.88 361.27,-111.32 364.26,-104.99"/>
</g>
<!-- 17 -->
<g id="node18" class="node">
<title>17</title>
<path fill="none" stroke="#56b1d8" stroke-width="2" d="M489.5,-108C489.5,-108 459.5,-108 459.5,-108 453.5,-108 447.5,-102 447.5,-96 447.5,-96 447.5,-84 447.5,-84 447.5,-78 453.5,-72 459.5,-72 459.5,-72 489.5,-72 489.5,-72 495.5,-72 501.5,-78 501.5,-84 501.5,-84 501.5,-96 501.5,-96 501.5,-102 495.5,-108 489.5,-108"/>
<text text-anchor="middle" x="474.5" y="-87.5" font-family="sans" font-size="10.00">homer</text>
</g>
<!-- 16&#45;&gt;17 -->
<g id="edge40" class="edge">
<title>16&#45;&gt;17</title>
<path fill="none" stroke="grey" stroke-width="2" d="M474.5,-143.7C474.5,-135.98 474.5,-126.71 474.5,-118.11"/>
<polygon fill="grey" stroke="grey" stroke-width="2" points="478,-118.1 474.5,-108.1 471,-118.1 478,-118.1"/>
</g>
<!-- 17&#45;&gt;0 -->
<g id="edge8" class="edge">
<title>17&#45;&gt;0</title>
<path fill="none" stroke="grey" stroke-width="2" d="M467.58,-71.7C464.43,-63.81 460.62,-54.3 457.12,-45.55"/>
<polygon fill="grey" stroke="grey" stroke-width="2" points="460.31,-44.09 453.34,-36.1 453.81,-46.69 460.31,-44.09"/>
</g>
<!-- 18&#45;&gt;0 -->
<g id="edge10" class="edge">
<title>18&#45;&gt;0</title>
<path fill="none" stroke="grey" stroke-width="2" d="M823.79,-75.38C818.99,-74.15 814.16,-73 809.5,-72 691.8,-46.85 550.06,-29.95 483.91,-22.82"/>
<polygon fill="grey" stroke="grey" stroke-width="2" points="483.9,-19.3 473.58,-21.73 483.16,-26.26 483.9,-19.3"/>
</g>
<!-- 19&#45;&gt;0 -->
<g id="edge7" class="edge">
<title>19&#45;&gt;0</title>
<path fill="none" stroke="grey" stroke-width="2" d="M671.54,-76.96C666.88,-75.19 662.09,-73.48 657.5,-72 597.55,-52.71 526.17,-36.06 483.69,-26.8"/>
<polygon fill="grey" stroke="grey" stroke-width="2" points="484.31,-23.35 473.8,-24.66 482.83,-30.19 484.31,-23.35"/>
</g>
<!-- 20&#45;&gt;0 -->
<g id="edge18" class="edge">
<title>20&#45;&gt;0</title>
<path fill="none" stroke="grey" stroke-width="2" d="M159.65,-76.21C164.27,-74.68 168.98,-73.23 173.5,-72 256.69,-49.33 356.68,-32.49 409.53,-24.39"/>
<polygon fill="grey" stroke="grey" stroke-width="2" points="410.1,-27.84 419.46,-22.88 409.05,-20.92 410.1,-27.84"/>
</g>
<!-- 21&#45;&gt;0 -->
<g id="edge1" class="edge">
<title>21&#45;&gt;0</title>
<path fill="none" stroke="grey" stroke-width="2" d="M560.54,-215.85C568.51,-206.12 577.33,-193.27 581.5,-180 595.9,-134.21 608.54,-111.66 581.5,-72 559.77,-40.13 515.71,-27.42 483.82,-22.36"/>
<polygon fill="grey" stroke="grey" stroke-width="2" points="483.91,-18.84 473.53,-20.92 482.94,-25.77 483.91,-18.84"/>
</g>
</g>
</svg>
