<?xml version="1.0" encoding="UTF-8" standalone="no"?>
<!DOCTYPE svg PUBLIC "-//W3C//DTD SVG 1.1//EN"
 "http://www.w3.org/Graphics/SVG/1.1/DTD/svg11.dtd">
<!-- Generated by graphviz version 2.38.0 (20140413.2041)
 -->
<!-- Title: snakemake_dag Pages: 1 -->
<svg width="960pt" height="620pt"
 viewBox="0.00 0.00 959.50 620.00" xmlns="http://www.w3.org/2000/svg" xmlns:xlink="http://www.w3.org/1999/xlink">
<g id="graph0" class="graph" transform="scale(1 1) rotate(0) translate(4 616)">
<title>snakemake_dag</title>
<polygon fill="white" stroke="none" points="-4,4 -4,-616 955.5,-616 955.5,4 -4,4"/>
<!-- 0 -->
<g id="node1" class="node"><title>0</title>
<path fill="none" stroke="#56d8a2" stroke-width="2" d="M432,-36C432,-36 402,-36 402,-36 396,-36 390,-30 390,-24 390,-24 390,-12 390,-12 390,-6 396,-0 402,-0 402,-0 432,-0 432,-0 438,-0 444,-6 444,-12 444,-12 444,-24 444,-24 444,-30 438,-36 432,-36"/>
<text text-anchor="middle" x="417" y="-15.5" font-family="sans" font-size="10.00">all</text>
</g>
<!-- 1 -->
<g id="node2" class="node"><title>1</title>
<path fill="none" stroke="#56d87b" stroke-width="2" d="M75.5,-252C75.5,-252 40.5,-252 40.5,-252 34.5,-252 28.5,-246 28.5,-240 28.5,-240 28.5,-228 28.5,-228 28.5,-222 34.5,-216 40.5,-216 40.5,-216 75.5,-216 75.5,-216 81.5,-216 87.5,-222 87.5,-228 87.5,-228 87.5,-240 87.5,-240 87.5,-246 81.5,-252 75.5,-252"/>
<text text-anchor="middle" x="58" y="-231.5" font-family="sans" font-size="10.00">windows</text>
</g>
<!-- 1&#45;&gt;0 -->
<g id="edge17" class="edge"><title>1&#45;&gt;0</title>
<path fill="none" stroke="grey" stroke-width="2" d="M57.5115,-215.854C57.5742,-182.655 62.8123,-109.566 105,-72 145.087,-36.3044 305.735,-24.223 379.556,-20.5032"/>
<polygon fill="grey" stroke="grey" stroke-width="2" points="379.972,-23.9874 389.793,-20.0132 379.637,-16.9954 379.972,-23.9874"/>
</g>
<!-- 2 -->
<g id="node3" class="node"><title>2</title>
<path fill="none" stroke="#569ad8" stroke-width="2" d="M163,-180C163,-180 133,-180 133,-180 127,-180 121,-174 121,-168 121,-168 121,-156 121,-156 121,-150 127,-144 133,-144 133,-144 163,-144 163,-144 169,-144 175,-150 175,-156 175,-156 175,-168 175,-168 175,-174 169,-180 163,-180"/>
<text text-anchor="middle" x="148" y="-159.5" font-family="sans" font-size="10.00">tracks</text>
</g>
<!-- 1&#45;&gt;2 -->
<g id="edge20" class="edge"><title>1&#45;&gt;2</title>
<path fill="none" stroke="grey" stroke-width="2" d="M80.2472,-215.697C91.5819,-206.881 105.53,-196.032 117.819,-186.474"/>
<polygon fill="grey" stroke="grey" stroke-width="2" points="120.264,-189.007 126.009,-180.104 115.966,-183.481 120.264,-189.007"/>
</g>
<!-- 2&#45;&gt;0 -->
<g id="edge12" class="edge"><title>2&#45;&gt;0</title>
<path fill="none" stroke="grey" stroke-width="2" d="M162.524,-143.996C182.441,-121.041 217.62,-81.8682 234,-72 279.838,-44.3846 340.83,-30.5057 379.513,-24.0306"/>
<polygon fill="grey" stroke="grey" stroke-width="2" points="380.475,-27.4218 389.801,-22.3953 379.376,-20.5086 380.475,-27.4218"/>
</g>
<!-- 19 -->
<g id="node20" class="node"><title>19</title>
<path fill="none" stroke="#5682d8" stroke-width="2" d="M170,-108C170,-108 126,-108 126,-108 120,-108 114,-102 114,-96 114,-96 114,-84 114,-84 114,-78 120,-72 126,-72 126,-72 170,-72 170,-72 176,-72 182,-78 182,-84 182,-84 182,-96 182,-96 182,-102 176,-108 170,-108"/>
<text text-anchor="middle" x="148" y="-87.5" font-family="sans" font-size="10.00">merge_bw</text>
</g>
<!-- 2&#45;&gt;19 -->
<g id="edge38" class="edge"><title>2&#45;&gt;19</title>
<path fill="none" stroke="grey" stroke-width="2" d="M148,-143.697C148,-135.983 148,-126.712 148,-118.112"/>
<polygon fill="grey" stroke="grey" stroke-width="2" points="151.5,-118.104 148,-108.104 144.5,-118.104 151.5,-118.104"/>
</g>
<!-- 3 -->
<g id="node4" class="node"><title>3</title>
<path fill="none" stroke="#56d8b9" stroke-width="2" d="M503,-468C503,-468 467,-468 467,-468 461,-468 455,-462 455,-456 455,-456 455,-444 455,-444 455,-438 461,-432 467,-432 467,-432 503,-432 503,-432 509,-432 515,-438 515,-444 515,-444 515,-456 515,-456 515,-462 509,-468 503,-468"/>
<text text-anchor="middle" x="485" y="-447.5" font-family="sans" font-size="10.00">markdup</text>
</g>
<!-- 3&#45;&gt;0 -->
<g id="edge6" class="edge"><title>3&#45;&gt;0</title>
<path fill="none" stroke="grey" stroke-width="2" d="M454.661,-446.745C348.483,-438.034 0,-402.194 0,-307 0,-307 0,-307 0,-161 0,-109.272 29.9094,-97.3494 75,-72 126.71,-42.9293 302.125,-27.1723 379.643,-21.4862"/>
<polygon fill="grey" stroke="grey" stroke-width="2" points="380.184,-24.9565 389.908,-20.7504 379.684,-17.9744 380.184,-24.9565"/>
</g>
<!-- 3&#45;&gt;2 -->
<g id="edge19" class="edge"><title>3&#45;&gt;2</title>
<path fill="none" stroke="grey" stroke-width="2" d="M454.637,-440.913C400.305,-425.319 284.778,-386.96 206,-324 174.753,-299.027 165.498,-289.654 152,-252 144.921,-232.254 144.22,-208.451 145.126,-190.432"/>
<polygon fill="grey" stroke="grey" stroke-width="2" points="148.628,-190.526 145.832,-180.307 141.645,-190.039 148.628,-190.526"/>
</g>
<!-- 6 -->
<g id="node7" class="node"><title>6</title>
<path fill="none" stroke="#d86e56" stroke-width="2" d="M426,-396C426,-396 396,-396 396,-396 390,-396 384,-390 384,-384 384,-384 384,-372 384,-372 384,-366 390,-360 396,-360 396,-360 426,-360 426,-360 432,-360 438,-366 438,-372 438,-372 438,-384 438,-384 438,-390 432,-396 426,-396"/>
<text text-anchor="middle" x="411" y="-375.5" font-family="sans" font-size="10.00">index</text>
</g>
<!-- 3&#45;&gt;6 -->
<g id="edge23" class="edge"><title>3&#45;&gt;6</title>
<path fill="none" stroke="grey" stroke-width="2" d="M466.708,-431.697C457.567,-423.05 446.36,-412.449 436.4,-403.027"/>
<polygon fill="grey" stroke="grey" stroke-width="2" points="438.752,-400.434 429.082,-396.104 433.941,-405.519 438.752,-400.434"/>
</g>
<!-- 10 -->
<g id="node11" class="node"><title>10</title>
<path fill="none" stroke="#bed856" stroke-width="2" d="M439.5,-324C439.5,-324 400.5,-324 400.5,-324 394.5,-324 388.5,-318 388.5,-312 388.5,-312 388.5,-300 388.5,-300 388.5,-294 394.5,-288 400.5,-288 400.5,-288 439.5,-288 439.5,-288 445.5,-288 451.5,-294 451.5,-300 451.5,-300 451.5,-312 451.5,-312 451.5,-318 445.5,-324 439.5,-324"/>
<text text-anchor="middle" x="420" y="-303.5" font-family="sans" font-size="10.00">callpeaks</text>
</g>
<!-- 3&#45;&gt;10 -->
<g id="edge26" class="edge"><title>3&#45;&gt;10</title>
<path fill="none" stroke="grey" stroke-width="2" d="M478.055,-431.786C470.683,-413.747 458.528,-384.656 447,-360 442.869,-351.164 438.111,-341.634 433.75,-333.124"/>
<polygon fill="grey" stroke="grey" stroke-width="2" points="436.755,-331.315 429.051,-324.041 430.538,-334.531 436.755,-331.315"/>
</g>
<!-- 11 -->
<g id="node12" class="node"><title>11</title>
<path fill="none" stroke="#56d892" stroke-width="2" d="M681.5,-180C681.5,-180 638.5,-180 638.5,-180 632.5,-180 626.5,-174 626.5,-168 626.5,-168 626.5,-156 626.5,-156 626.5,-150 632.5,-144 638.5,-144 638.5,-144 681.5,-144 681.5,-144 687.5,-144 693.5,-150 693.5,-156 693.5,-156 693.5,-168 693.5,-168 693.5,-174 687.5,-180 681.5,-180"/>
<text text-anchor="middle" x="660" y="-159.5" font-family="sans" font-size="10.00">fraglength</text>
</g>
<!-- 3&#45;&gt;11 -->
<g id="edge27" class="edge"><title>3&#45;&gt;11</title>
<path fill="none" stroke="grey" stroke-width="2" d="M507.121,-431.976C534.288,-409.925 579.956,-368.95 606,-324 631.206,-280.496 646.794,-223.503 654.392,-190.301"/>
<polygon fill="grey" stroke="grey" stroke-width="2" points="657.838,-190.924 656.58,-180.404 651.003,-189.413 657.838,-190.924"/>
</g>
<!-- 12 -->
<g id="node13" class="node"><title>12</title>
<path fill="none" stroke="#56d8d0" stroke-width="2" d="M780.5,-396C780.5,-396 709.5,-396 709.5,-396 703.5,-396 697.5,-390 697.5,-384 697.5,-384 697.5,-372 697.5,-372 697.5,-366 703.5,-360 709.5,-360 709.5,-360 780.5,-360 780.5,-360 786.5,-360 792.5,-366 792.5,-372 792.5,-372 792.5,-384 792.5,-384 792.5,-390 786.5,-396 780.5,-396"/>
<text text-anchor="middle" x="745" y="-375.5" font-family="sans" font-size="10.00">preseq_lcextrap</text>
</g>
<!-- 3&#45;&gt;12 -->
<g id="edge28" class="edge"><title>3&#45;&gt;12</title>
<path fill="none" stroke="grey" stroke-width="2" d="M515.079,-440.902C557.023,-429.609 633.91,-408.909 687.158,-394.573"/>
<polygon fill="grey" stroke="grey" stroke-width="2" points="688.397,-397.864 697.143,-391.885 686.577,-391.105 688.397,-397.864"/>
</g>
<!-- 13 -->
<g id="node14" class="node"><title>13</title>
<path fill="none" stroke="#61d856" stroke-width="2" d="M585.5,-324C585.5,-324 544.5,-324 544.5,-324 538.5,-324 532.5,-318 532.5,-312 532.5,-312 532.5,-300 532.5,-300 532.5,-294 538.5,-288 544.5,-288 544.5,-288 585.5,-288 585.5,-288 591.5,-288 597.5,-294 597.5,-300 597.5,-300 597.5,-312 597.5,-312 597.5,-318 591.5,-324 585.5,-324"/>
<text text-anchor="middle" x="565" y="-303.5" font-family="sans" font-size="10.00">plotFinger</text>
</g>
<!-- 3&#45;&gt;13 -->
<g id="edge30" class="edge"><title>3&#45;&gt;13</title>
<path fill="none" stroke="grey" stroke-width="2" d="M496.317,-431.523C502.84,-421.281 511.09,-408.031 518,-396 529.896,-375.289 542.488,-351.322 551.641,-333.48"/>
<polygon fill="grey" stroke="grey" stroke-width="2" points="554.919,-334.756 556.346,-324.258 548.684,-331.575 554.919,-334.756"/>
</g>
<!-- 14 -->
<g id="node15" class="node"><title>14</title>
<path fill="none" stroke="#d89c56" stroke-width="2" d="M489,-180C489,-180 459,-180 459,-180 453,-180 447,-174 447,-168 447,-168 447,-156 447,-156 447,-150 453,-144 459,-144 459,-144 489,-144 489,-144 495,-144 501,-150 501,-156 501,-156 501,-168 501,-168 501,-174 495,-180 489,-180"/>
<text text-anchor="middle" x="474" y="-159.5" font-family="sans" font-size="10.00">frip</text>
</g>
<!-- 3&#45;&gt;14 -->
<g id="edge32" class="edge"><title>3&#45;&gt;14</title>
<path fill="none" stroke="grey" stroke-width="2" d="M484.345,-431.966C482.511,-384.291 477.315,-249.185 475.063,-190.63"/>
<polygon fill="grey" stroke="grey" stroke-width="2" points="478.547,-190.165 474.666,-180.306 471.553,-190.434 478.547,-190.165"/>
</g>
<!-- 4 -->
<g id="node5" class="node"><title>4</title>
<path fill="none" stroke="#56c9d8" stroke-width="2" d="M500,-540C500,-540 470,-540 470,-540 464,-540 458,-534 458,-528 458,-528 458,-516 458,-516 458,-510 464,-504 470,-504 470,-504 500,-504 500,-504 506,-504 512,-510 512,-516 512,-516 512,-528 512,-528 512,-534 506,-540 500,-540"/>
<text text-anchor="middle" x="485" y="-519.5" font-family="sans" font-size="10.00">sort</text>
</g>
<!-- 4&#45;&gt;3 -->
<g id="edge21" class="edge"><title>4&#45;&gt;3</title>
<path fill="none" stroke="grey" stroke-width="2" d="M485,-503.697C485,-495.983 485,-486.712 485,-478.112"/>
<polygon fill="grey" stroke="grey" stroke-width="2" points="488.5,-478.104 485,-468.104 481.5,-478.104 488.5,-478.104"/>
</g>
<!-- 5 -->
<g id="node6" class="node"><title>5</title>
<path fill="none" stroke="#8fd856" stroke-width="2" d="M501,-612C501,-612 469,-612 469,-612 463,-612 457,-606 457,-600 457,-600 457,-588 457,-588 457,-582 463,-576 469,-576 469,-576 501,-576 501,-576 507,-576 513,-582 513,-588 513,-588 513,-600 513,-600 513,-606 507,-612 501,-612"/>
<text text-anchor="middle" x="485" y="-591.5" font-family="sans" font-size="10.00">bowtie2</text>
</g>
<!-- 5&#45;&gt;4 -->
<g id="edge22" class="edge"><title>5&#45;&gt;4</title>
<path fill="none" stroke="grey" stroke-width="2" d="M485,-575.697C485,-567.983 485,-558.712 485,-550.112"/>
<polygon fill="grey" stroke="grey" stroke-width="2" points="488.5,-550.104 485,-540.104 481.5,-550.104 488.5,-550.104"/>
</g>
<!-- 6&#45;&gt;2 -->
<g id="edge18" class="edge"><title>6&#45;&gt;2</title>
<path fill="none" stroke="grey" stroke-width="2" d="M383.998,-370.423C334.516,-356.952 229.235,-321.468 173,-252 158.837,-234.504 152.689,-209.465 150.025,-190.4"/>
<polygon fill="grey" stroke="grey" stroke-width="2" points="153.475,-189.769 148.849,-180.238 146.522,-190.574 153.475,-189.769"/>
</g>
<!-- 6&#45;&gt;10 -->
<g id="edge25" class="edge"><title>6&#45;&gt;10</title>
<path fill="none" stroke="grey" stroke-width="2" d="M413.225,-359.697C414.217,-351.983 415.408,-342.712 416.514,-334.112"/>
<polygon fill="grey" stroke="grey" stroke-width="2" points="419.997,-334.469 417.801,-324.104 413.054,-333.576 419.997,-334.469"/>
</g>
<!-- 6&#45;&gt;13 -->
<g id="edge29" class="edge"><title>6&#45;&gt;13</title>
<path fill="none" stroke="grey" stroke-width="2" d="M438.178,-364.647C461.736,-353.938 496.199,-338.273 523.256,-325.975"/>
<polygon fill="grey" stroke="grey" stroke-width="2" points="524.832,-329.103 532.487,-321.779 521.935,-322.73 524.832,-329.103"/>
</g>
<!-- 7 -->
<g id="node8" class="node"><title>7</title>
<path fill="none" stroke="#d6d856" stroke-width="2" d="M842,-108C842,-108 812,-108 812,-108 806,-108 800,-102 800,-96 800,-96 800,-84 800,-84 800,-78 806,-72 812,-72 812,-72 842,-72 842,-72 848,-72 854,-78 854,-84 854,-84 854,-96 854,-96 854,-102 848,-108 842,-108"/>
<text text-anchor="middle" x="827" y="-87.5" font-family="sans" font-size="10.00">fastqc</text>
</g>
<!-- 7&#45;&gt;0 -->
<g id="edge16" class="edge"><title>7&#45;&gt;0</title>
<path fill="none" stroke="grey" stroke-width="2" d="M799.987,-76.6868C795.388,-74.9136 790.607,-73.2644 786,-72 667.515,-39.4814 521.835,-26.0463 454.453,-21.274"/>
<polygon fill="grey" stroke="grey" stroke-width="2" points="454.543,-17.7721 444.328,-20.5809 454.065,-24.7557 454.543,-17.7721"/>
</g>
<!-- 8 -->
<g id="node9" class="node"><title>8</title>
<path fill="none" stroke="#56b1d8" stroke-width="2" d="M939.5,-108C939.5,-108 884.5,-108 884.5,-108 878.5,-108 872.5,-102 872.5,-96 872.5,-96 872.5,-84 872.5,-84 872.5,-78 878.5,-72 884.5,-72 884.5,-72 939.5,-72 939.5,-72 945.5,-72 951.5,-78 951.5,-84 951.5,-84 951.5,-96 951.5,-96 951.5,-102 945.5,-108 939.5,-108"/>
<text text-anchor="middle" x="912" y="-87.5" font-family="sans" font-size="10.00">fastq_screen</text>
</g>
<!-- 8&#45;&gt;0 -->
<g id="edge11" class="edge"><title>8&#45;&gt;0</title>
<path fill="none" stroke="grey" stroke-width="2" d="M872.364,-74.4461C869.219,-73.5377 866.071,-72.7065 863,-72 714.036,-37.7314 531.691,-24.8675 454.434,-20.7211"/>
<polygon fill="grey" stroke="grey" stroke-width="2" points="454.413,-17.2154 444.245,-20.1926 454.05,-24.206 454.413,-17.2154"/>
</g>
<!-- 9 -->
<g id="node10" class="node"><title>9</title>
<path fill="none" stroke="#d85656" stroke-width="2" d="M388,-252C388,-252 344,-252 344,-252 338,-252 332,-246 332,-240 332,-240 332,-228 332,-228 332,-222 338,-216 344,-216 344,-216 388,-216 388,-216 394,-216 400,-222 400,-228 400,-228 400,-240 400,-240 400,-246 394,-252 388,-252"/>
<text text-anchor="middle" x="366" y="-231.5" font-family="sans" font-size="10.00">consensus</text>
</g>
<!-- 9&#45;&gt;0 -->
<g id="edge4" class="edge"><title>9&#45;&gt;0</title>
<path fill="none" stroke="grey" stroke-width="2" d="M349.537,-215.919C341.346,-206.218 332.296,-193.366 328,-180 313.235,-134.066 313.257,-112.807 339,-72 349.004,-56.142 365.667,-43.8656 381.03,-35.1399"/>
<polygon fill="grey" stroke="grey" stroke-width="2" points="382.698,-38.2165 389.864,-30.4124 379.396,-32.0445 382.698,-38.2165"/>
</g>
<!-- 16 -->
<g id="node17" class="node"><title>16</title>
<path fill="none" stroke="#78d856" stroke-width="2" d="M379,-180C379,-180 349,-180 349,-180 343,-180 337,-174 337,-168 337,-168 337,-156 337,-156 337,-150 343,-144 349,-144 349,-144 379,-144 379,-144 385,-144 391,-150 391,-156 391,-156 391,-168 391,-168 391,-174 385,-180 379,-180"/>
<text text-anchor="middle" x="364" y="-159.5" font-family="sans" font-size="10.00">deseq2</text>
</g>
<!-- 9&#45;&gt;16 -->
<g id="edge35" class="edge"><title>9&#45;&gt;16</title>
<path fill="none" stroke="grey" stroke-width="2" d="M365.506,-215.697C365.285,-207.983 365.02,-198.712 364.775,-190.112"/>
<polygon fill="grey" stroke="grey" stroke-width="2" points="368.273,-190 364.489,-180.104 361.276,-190.2 368.273,-190"/>
</g>
<!-- 10&#45;&gt;0 -->
<g id="edge1" class="edge"><title>10&#45;&gt;0</title>
<path fill="none" stroke="grey" stroke-width="2" d="M417.898,-287.937C415.69,-270.021 412.111,-241.029 409,-216 405.022,-183.997 409.684,-174.761 400,-144 394.567,-126.743 385.35,-125.561 381,-108 377.153,-92.4693 376.297,-87.2933 381,-72 384.009,-62.2153 389.507,-52.6161 395.316,-44.3336"/>
<polygon fill="grey" stroke="grey" stroke-width="2" points="398.195,-46.3279 401.39,-36.2264 392.593,-42.1306 398.195,-46.3279"/>
</g>
<!-- 10&#45;&gt;9 -->
<g id="edge24" class="edge"><title>10&#45;&gt;9</title>
<path fill="none" stroke="grey" stroke-width="2" d="M406.652,-287.697C400.243,-279.389 392.442,-269.277 385.394,-260.141"/>
<polygon fill="grey" stroke="grey" stroke-width="2" points="388.074,-257.884 379.195,-252.104 382.532,-262.16 388.074,-257.884"/>
</g>
<!-- 10&#45;&gt;14 -->
<g id="edge31" class="edge"><title>10&#45;&gt;14</title>
<path fill="none" stroke="grey" stroke-width="2" d="M427.345,-287.899C431.725,-277.557 437.325,-264.078 442,-252 450.026,-231.263 458.516,-207.561 464.732,-189.833"/>
<polygon fill="grey" stroke="grey" stroke-width="2" points="468.12,-190.748 468.109,-180.153 461.51,-188.442 468.12,-190.748"/>
</g>
<!-- 20 -->
<g id="node21" class="node"><title>20</title>
<path fill="none" stroke="#d8b456" stroke-width="2" d="M301.5,-252C301.5,-252 194.5,-252 194.5,-252 188.5,-252 182.5,-246 182.5,-240 182.5,-240 182.5,-228 182.5,-228 182.5,-222 188.5,-216 194.5,-216 194.5,-216 301.5,-216 301.5,-216 307.5,-216 313.5,-222 313.5,-228 313.5,-228 313.5,-240 313.5,-240 313.5,-246 307.5,-252 301.5,-252"/>
<text text-anchor="middle" x="248" y="-231.5" font-family="sans" font-size="10.00">make_high_conf_peaks</text>
</g>
<!-- 10&#45;&gt;20 -->
<g id="edge39" class="edge"><title>10&#45;&gt;20</title>
<path fill="none" stroke="grey" stroke-width="2" d="M388.453,-292.161C363.62,-282.055 328.497,-267.76 299.587,-255.995"/>
<polygon fill="grey" stroke="grey" stroke-width="2" points="300.627,-252.639 290.045,-252.111 297.988,-259.123 300.627,-252.639"/>
</g>
<!-- 11&#45;&gt;0 -->
<g id="edge5" class="edge"><title>11&#45;&gt;0</title>
<path fill="none" stroke="grey" stroke-width="2" d="M682.876,-143.925C705.178,-125.227 733.145,-94.8636 714,-72 681.229,-32.8634 526.188,-22.5984 454.064,-19.9279"/>
<polygon fill="grey" stroke="grey" stroke-width="2" points="454.162,-16.4293 444.048,-19.5865 453.923,-23.4253 454.162,-16.4293"/>
</g>
<!-- 17 -->
<g id="node18" class="node"><title>17</title>
<path fill="none" stroke="#566bd8" stroke-width="2" d="M693.5,-108C693.5,-108 626.5,-108 626.5,-108 620.5,-108 614.5,-102 614.5,-96 614.5,-96 614.5,-84 614.5,-84 614.5,-78 620.5,-72 626.5,-72 626.5,-72 693.5,-72 693.5,-72 699.5,-72 705.5,-78 705.5,-84 705.5,-84 705.5,-96 705.5,-96 705.5,-102 699.5,-108 693.5,-108"/>
<text text-anchor="middle" x="660" y="-87.5" font-family="sans" font-size="10.00">fraglength_plot</text>
</g>
<!-- 11&#45;&gt;17 -->
<g id="edge36" class="edge"><title>11&#45;&gt;17</title>
<path fill="none" stroke="grey" stroke-width="2" d="M660,-143.697C660,-135.983 660,-126.712 660,-118.112"/>
<polygon fill="grey" stroke="grey" stroke-width="2" points="663.5,-118.104 660,-108.104 656.5,-118.104 663.5,-118.104"/>
</g>
<!-- 12&#45;&gt;0 -->
<g id="edge8" class="edge"><title>12&#45;&gt;0</title>
<path fill="none" stroke="grey" stroke-width="2" d="M750.464,-359.713C758.353,-333.175 772,-280.672 772,-235 772,-235 772,-235 772,-161 772,-117.633 766.325,-98.505 732,-72 689.119,-38.8874 528.194,-25.4461 454.399,-20.9375"/>
<polygon fill="grey" stroke="grey" stroke-width="2" points="454.356,-17.4291 444.167,-20.3359 453.945,-24.417 454.356,-17.4291"/>
</g>
<!-- 13&#45;&gt;0 -->
<g id="edge3" class="edge"><title>13&#45;&gt;0</title>
<path fill="none" stroke="grey" stroke-width="2" d="M571.199,-287.802C584.975,-246.291 613.346,-139.094 566,-72 540.966,-36.5248 490.003,-24.6535 454.698,-20.7614"/>
<polygon fill="grey" stroke="grey" stroke-width="2" points="454.571,-17.2346 444.29,-19.7924 453.922,-24.2045 454.571,-17.2346"/>
</g>
<!-- 14&#45;&gt;0 -->
<g id="edge9" class="edge"><title>14&#45;&gt;0</title>
<path fill="none" stroke="grey" stroke-width="2" d="M471.823,-143.676C469.08,-125.293 463.414,-95.6893 453,-72 448.814,-62.4775 442.882,-52.8397 437.039,-44.4415"/>
<polygon fill="grey" stroke="grey" stroke-width="2" points="439.763,-42.2357 431.058,-36.1953 434.096,-46.3453 439.763,-42.2357"/>
</g>
<!-- 15 -->
<g id="node16" class="node"><title>15</title>
<path fill="none" stroke="#56d863" stroke-width="2" d="M432,-108C432,-108 402,-108 402,-108 396,-108 390,-102 390,-96 390,-96 390,-84 390,-84 390,-78 396,-72 402,-72 402,-72 432,-72 432,-72 438,-72 444,-78 444,-84 444,-84 444,-96 444,-96 444,-102 438,-108 432,-108"/>
<text text-anchor="middle" x="417" y="-87.5" font-family="sans" font-size="10.00">multiqc</text>
</g>
<!-- 14&#45;&gt;15 -->
<g id="edge34" class="edge"><title>14&#45;&gt;15</title>
<path fill="none" stroke="grey" stroke-width="2" d="M459.91,-143.697C453.077,-135.305 444.743,-125.07 437.244,-115.861"/>
<polygon fill="grey" stroke="grey" stroke-width="2" points="439.956,-113.649 430.928,-108.104 434.528,-118.069 439.956,-113.649"/>
</g>
<!-- 18 -->
<g id="node19" class="node"><title>18</title>
<path fill="none" stroke="#a7d856" stroke-width="2" d="M545.5,-108C545.5,-108 512.5,-108 512.5,-108 506.5,-108 500.5,-102 500.5,-96 500.5,-96 500.5,-84 500.5,-84 500.5,-78 506.5,-72 512.5,-72 512.5,-72 545.5,-72 545.5,-72 551.5,-72 557.5,-78 557.5,-84 557.5,-84 557.5,-96 557.5,-96 557.5,-102 551.5,-108 545.5,-108"/>
<text text-anchor="middle" x="529" y="-87.5" font-family="sans" font-size="10.00">frip_plot</text>
</g>
<!-- 14&#45;&gt;18 -->
<g id="edge37" class="edge"><title>14&#45;&gt;18</title>
<path fill="none" stroke="grey" stroke-width="2" d="M487.596,-143.697C494.123,-135.389 502.068,-125.277 509.247,-116.141"/>
<polygon fill="grey" stroke="grey" stroke-width="2" points="512.135,-118.13 515.561,-108.104 506.631,-113.805 512.135,-118.13"/>
</g>
<!-- 15&#45;&gt;0 -->
<g id="edge13" class="edge"><title>15&#45;&gt;0</title>
<path fill="none" stroke="grey" stroke-width="2" d="M417,-71.6966C417,-63.9827 417,-54.7125 417,-46.1124"/>
<polygon fill="grey" stroke="grey" stroke-width="2" points="420.5,-46.1043 417,-36.1043 413.5,-46.1044 420.5,-46.1043"/>
</g>
<!-- 16&#45;&gt;0 -->
<g id="edge15" class="edge"><title>16&#45;&gt;0</title>
<path fill="none" stroke="grey" stroke-width="2" d="M354.876,-143.726C346.386,-125.125 336.618,-95.0942 348,-72 355.107,-57.5787 368.232,-45.9874 381.143,-37.3659"/>
<polygon fill="grey" stroke="grey" stroke-width="2" points="383.328,-40.1282 389.969,-31.8733 379.63,-34.1849 383.328,-40.1282"/>
</g>
<!-- 16&#45;&gt;15 -->
<g id="edge33" class="edge"><title>16&#45;&gt;15</title>
<path fill="none" stroke="grey" stroke-width="2" d="M377.101,-143.697C383.391,-135.389 391.047,-125.277 397.965,-116.141"/>
<polygon fill="grey" stroke="grey" stroke-width="2" points="400.804,-118.19 404.05,-108.104 395.223,-113.964 400.804,-118.19"/>
</g>
<!-- 17&#45;&gt;0 -->
<g id="edge2" class="edge"><title>17&#45;&gt;0</title>
<path fill="none" stroke="grey" stroke-width="2" d="M614.294,-75.8335C567.837,-62.4509 496.765,-41.9776 453.805,-29.6022"/>
<polygon fill="grey" stroke="grey" stroke-width="2" points="454.62,-26.1947 444.042,-26.7897 452.682,-32.9211 454.62,-26.1947"/>
</g>
<!-- 18&#45;&gt;0 -->
<g id="edge7" class="edge"><title>18&#45;&gt;0</title>
<path fill="none" stroke="grey" stroke-width="2" d="M501.602,-71.8761C486.848,-62.6553 468.475,-51.1717 452.623,-41.2646"/>
<polygon fill="grey" stroke="grey" stroke-width="2" points="454.45,-38.2792 444.115,-35.9471 450.74,-44.2152 454.45,-38.2792"/>
</g>
<!-- 19&#45;&gt;0 -->
<g id="edge10" class="edge"><title>19&#45;&gt;0</title>
<path fill="none" stroke="grey" stroke-width="2" d="M182.205,-76.3937C186.818,-74.8384 191.507,-73.3303 196,-72 259.92,-53.0732 335.73,-36.0436 379.894,-26.651"/>
<polygon fill="grey" stroke="grey" stroke-width="2" points="380.821,-30.0324 389.883,-24.5422 379.375,-23.1833 380.821,-30.0324"/>
</g>
<!-- 20&#45;&gt;0 -->
<g id="edge14" class="edge"><title>20&#45;&gt;0</title>
<path fill="none" stroke="grey" stroke-width="2" d="M251.501,-215.912C258.794,-184.077 278.338,-115.029 318,-72 334.996,-53.5611 359.906,-40.2712 380.487,-31.6111"/>
<polygon fill="grey" stroke="grey" stroke-width="2" points="381.91,-34.8115 389.89,-27.8429 379.306,-28.3137 381.91,-34.8115"/>
</g>
</g>
</svg>
