<?xml version="1.0" encoding="UTF-8" standalone="no"?>
<!DOCTYPE svg PUBLIC "-//W3C//DTD SVG 1.1//EN"
 "http://www.w3.org/Graphics/SVG/1.1/DTD/svg11.dtd">
<!-- Generated by graphviz version 2.50.0 (20211209.0339)
 -->
<!-- Title: snakemake_dag Pages: 1 -->
<svg width="901pt" height="620pt"
 viewBox="0.00 0.00 900.74 620.00" xmlns="http://www.w3.org/2000/svg" xmlns:xlink="http://www.w3.org/1999/xlink">
<g id="graph0" class="graph" transform="scale(1 1) rotate(0) translate(4 616)">
<title>snakemake_dag</title>
<polygon fill="white" stroke="transparent" points="-4,4 -4,-616 896.74,-616 896.74,4 -4,4"/>
<!-- 0 -->
<g id="node1" class="node">
<title>0</title>
<path fill="none" stroke="#d88556" stroke-width="2" d="M465.71,-36C465.71,-36 435.71,-36 435.71,-36 429.71,-36 423.71,-30 423.71,-24 423.71,-24 423.71,-12 423.71,-12 423.71,-6 429.71,0 435.71,0 435.71,0 465.71,0 465.71,0 471.71,0 477.71,-6 477.71,-12 477.71,-12 477.71,-24 477.71,-24 477.71,-30 471.71,-36 465.71,-36"/>
<text text-anchor="middle" x="450.71" y="-15.5" font-family="sans" font-size="10.00">all</text>
</g>
<!-- 1 -->
<g id="node2" class="node">
<title>1</title>
<path fill="none" stroke="#5682d8" stroke-width="2" d="M174.71,-180C174.71,-180 144.71,-180 144.71,-180 138.71,-180 132.71,-174 132.71,-168 132.71,-168 132.71,-156 132.71,-156 132.71,-150 138.71,-144 144.71,-144 144.71,-144 174.71,-144 174.71,-144 180.71,-144 186.71,-150 186.71,-156 186.71,-156 186.71,-168 186.71,-168 186.71,-174 180.71,-180 174.71,-180"/>
<text text-anchor="middle" x="159.71" y="-159.5" font-family="sans" font-size="10.00">fastqc</text>
</g>
<!-- 1&#45;&gt;0 -->
<g id="edge14" class="edge">
<title>1&#45;&gt;0</title>
<path fill="none" stroke="grey" stroke-width="2" d="M172.37,-143.89C188.22,-123.69 217.26,-90.52 249.71,-72 302,-42.14 371.52,-28.69 413.59,-22.94"/>
<polygon fill="grey" stroke="grey" stroke-width="2" points="414.19,-26.39 423.66,-21.64 413.3,-19.45 414.19,-26.39"/>
</g>
<!-- 14 -->
<g id="node15" class="node">
<title>14</title>
<path fill="none" stroke="#ced856" stroke-width="2" d="M334.71,-108C334.71,-108 304.71,-108 304.71,-108 298.71,-108 292.71,-102 292.71,-96 292.71,-96 292.71,-84 292.71,-84 292.71,-78 298.71,-72 304.71,-72 304.71,-72 334.71,-72 334.71,-72 340.71,-72 346.71,-78 346.71,-84 346.71,-84 346.71,-96 346.71,-96 346.71,-102 340.71,-108 334.71,-108"/>
<text text-anchor="middle" x="319.71" y="-87.5" font-family="sans" font-size="10.00">multiqc</text>
</g>
<!-- 1&#45;&gt;14 -->
<g id="edge35" class="edge">
<title>1&#45;&gt;14</title>
<path fill="none" stroke="grey" stroke-width="2" d="M186.78,-148.08C189.79,-146.69 192.81,-145.3 195.71,-144 224.92,-130.86 258.33,-116.63 283.11,-106.22"/>
<polygon fill="grey" stroke="grey" stroke-width="2" points="284.62,-109.38 292.49,-102.29 281.91,-102.93 284.62,-109.38"/>
</g>
<!-- 2 -->
<g id="node3" class="node">
<title>2</title>
<path fill="none" stroke="#d8b456" stroke-width="2" d="M272.21,-180C272.21,-180 217.21,-180 217.21,-180 211.21,-180 205.21,-174 205.21,-168 205.21,-168 205.21,-156 205.21,-156 205.21,-150 211.21,-144 217.21,-144 217.21,-144 272.21,-144 272.21,-144 278.21,-144 284.21,-150 284.21,-156 284.21,-156 284.21,-168 284.21,-168 284.21,-174 278.21,-180 272.21,-180"/>
<text text-anchor="middle" x="244.71" y="-159.5" font-family="sans" font-size="10.00">fastq_screen</text>
</g>
<!-- 2&#45;&gt;0 -->
<g id="edge17" class="edge">
<title>2&#45;&gt;0</title>
<path fill="none" stroke="grey" stroke-width="2" d="M245.67,-143.8C247.71,-123.83 254.05,-91.19 273.71,-72 311.42,-35.18 373.64,-23.79 413.37,-20.36"/>
<polygon fill="grey" stroke="grey" stroke-width="2" points="413.73,-23.84 423.45,-19.61 413.22,-16.86 413.73,-23.84"/>
</g>
<!-- 2&#45;&gt;14 -->
<g id="edge36" class="edge">
<title>2&#45;&gt;14</title>
<path fill="none" stroke="grey" stroke-width="2" d="M263.24,-143.7C272.51,-135.05 283.87,-124.45 293.96,-115.03"/>
<polygon fill="grey" stroke="grey" stroke-width="2" points="296.46,-117.49 301.38,-108.1 291.68,-112.37 296.46,-117.49"/>
</g>
<!-- 3 -->
<g id="node4" class="node">
<title>3</title>
<path fill="none" stroke="#d8cb56" stroke-width="2" d="M536.71,-252C536.71,-252 492.71,-252 492.71,-252 486.71,-252 480.71,-246 480.71,-240 480.71,-240 480.71,-228 480.71,-228 480.71,-222 486.71,-216 492.71,-216 492.71,-216 536.71,-216 536.71,-216 542.71,-216 548.71,-222 548.71,-228 548.71,-228 548.71,-240 548.71,-240 548.71,-246 542.71,-252 536.71,-252"/>
<text text-anchor="middle" x="514.71" y="-231.5" font-family="sans" font-size="10.00">consensus</text>
</g>
<!-- 3&#45;&gt;0 -->
<g id="edge1" class="edge">
<title>3&#45;&gt;0</title>
<path fill="none" stroke="grey" stroke-width="2" d="M531.8,-215.9C560.34,-185.22 611.59,-119.57 579.71,-72 559.45,-41.77 518.52,-28.77 488.17,-23.19"/>
<polygon fill="grey" stroke="grey" stroke-width="2" points="488.36,-19.67 477.93,-21.5 487.23,-26.58 488.36,-19.67"/>
</g>
<!-- 15 -->
<g id="node16" class="node">
<title>15</title>
<path fill="none" stroke="#b6d856" stroke-width="2" d="M529.71,-180C529.71,-180 499.71,-180 499.71,-180 493.71,-180 487.71,-174 487.71,-168 487.71,-168 487.71,-156 487.71,-156 487.71,-150 493.71,-144 499.71,-144 499.71,-144 529.71,-144 529.71,-144 535.71,-144 541.71,-150 541.71,-156 541.71,-156 541.71,-168 541.71,-168 541.71,-174 535.71,-180 529.71,-180"/>
<text text-anchor="middle" x="514.71" y="-159.5" font-family="sans" font-size="10.00">deseq2</text>
</g>
<!-- 3&#45;&gt;15 -->
<g id="edge37" class="edge">
<title>3&#45;&gt;15</title>
<path fill="none" stroke="grey" stroke-width="2" d="M514.71,-215.7C514.71,-207.98 514.71,-198.71 514.71,-190.11"/>
<polygon fill="grey" stroke="grey" stroke-width="2" points="518.21,-190.1 514.71,-180.1 511.21,-190.1 518.21,-190.1"/>
</g>
<!-- 4 -->
<g id="node5" class="node">
<title>4</title>
<path fill="none" stroke="#88d856" stroke-width="2" d="M534.21,-324C534.21,-324 495.21,-324 495.21,-324 489.21,-324 483.21,-318 483.21,-312 483.21,-312 483.21,-300 483.21,-300 483.21,-294 489.21,-288 495.21,-288 495.21,-288 534.21,-288 534.21,-288 540.21,-288 546.21,-294 546.21,-300 546.21,-300 546.21,-312 546.21,-312 546.21,-318 540.21,-324 534.21,-324"/>
<text text-anchor="middle" x="514.71" y="-303.5" font-family="sans" font-size="10.00">callpeaks</text>
</g>
<!-- 4&#45;&gt;0 -->
<g id="edge8" class="edge">
<title>4&#45;&gt;0</title>
<path fill="none" stroke="grey" stroke-width="2" d="M531.02,-287.75C567.5,-247.03 648.71,-143.02 598.71,-72 573.86,-36.71 523.23,-24.79 488.16,-20.84"/>
<polygon fill="grey" stroke="grey" stroke-width="2" points="488.11,-17.32 477.82,-19.85 487.44,-24.29 488.11,-17.32"/>
</g>
<!-- 4&#45;&gt;3 -->
<g id="edge18" class="edge">
<title>4&#45;&gt;3</title>
<path fill="none" stroke="grey" stroke-width="2" d="M514.71,-287.7C514.71,-279.98 514.71,-270.71 514.71,-262.11"/>
<polygon fill="grey" stroke="grey" stroke-width="2" points="518.21,-262.1 514.71,-252.1 511.21,-262.1 518.21,-262.1"/>
</g>
<!-- 13 -->
<g id="node14" class="node">
<title>13</title>
<path fill="none" stroke="#56d8c9" stroke-width="2" d="M457.71,-180C457.71,-180 427.71,-180 427.71,-180 421.71,-180 415.71,-174 415.71,-168 415.71,-168 415.71,-156 415.71,-156 415.71,-150 421.71,-144 427.71,-144 427.71,-144 457.71,-144 457.71,-144 463.71,-144 469.71,-150 469.71,-156 469.71,-156 469.71,-168 469.71,-168 469.71,-174 463.71,-180 457.71,-180"/>
<text text-anchor="middle" x="442.71" y="-159.5" font-family="sans" font-size="10.00">frip</text>
</g>
<!-- 4&#45;&gt;13 -->
<g id="edge31" class="edge">
<title>4&#45;&gt;13</title>
<path fill="none" stroke="grey" stroke-width="2" d="M497.8,-287.55C489.04,-277.74 478.73,-264.91 471.71,-252 461.06,-232.43 453.5,-208.3 448.77,-190.1"/>
<polygon fill="grey" stroke="grey" stroke-width="2" points="452.11,-189.02 446.31,-180.15 445.31,-190.7 452.11,-189.02"/>
</g>
<!-- 20 -->
<g id="node21" class="node">
<title>20</title>
<path fill="none" stroke="#d85656" stroke-width="2" d="M724.21,-252C724.21,-252 617.21,-252 617.21,-252 611.21,-252 605.21,-246 605.21,-240 605.21,-240 605.21,-228 605.21,-228 605.21,-222 611.21,-216 617.21,-216 617.21,-216 724.21,-216 724.21,-216 730.21,-216 736.21,-222 736.21,-228 736.21,-228 736.21,-240 736.21,-240 736.21,-246 730.21,-252 724.21,-252"/>
<text text-anchor="middle" x="670.71" y="-231.5" font-family="sans" font-size="10.00">make_high_conf_peaks</text>
</g>
<!-- 4&#45;&gt;20 -->
<g id="edge42" class="edge">
<title>4&#45;&gt;20</title>
<path fill="none" stroke="grey" stroke-width="2" d="M546.27,-290.83C568.38,-280.92 598.31,-267.49 623.27,-256.29"/>
<polygon fill="grey" stroke="grey" stroke-width="2" points="624.88,-259.4 632.57,-252.11 622.01,-253.01 624.88,-259.4"/>
</g>
<!-- 5 -->
<g id="node6" class="node">
<title>5</title>
<path fill="none" stroke="#9fd856" stroke-width="2" d="M455.71,-468C455.71,-468 419.71,-468 419.71,-468 413.71,-468 407.71,-462 407.71,-456 407.71,-456 407.71,-444 407.71,-444 407.71,-438 413.71,-432 419.71,-432 419.71,-432 455.71,-432 455.71,-432 461.71,-432 467.71,-438 467.71,-444 467.71,-444 467.71,-456 467.71,-456 467.71,-462 461.71,-468 455.71,-468"/>
<text text-anchor="middle" x="437.71" y="-447.5" font-family="sans" font-size="10.00">markdup</text>
</g>
<!-- 5&#45;&gt;0 -->
<g id="edge7" class="edge">
<title>5&#45;&gt;0</title>
<path fill="none" stroke="grey" stroke-width="2" d="M407.46,-445.77C308.81,-434.41 2.71,-392.3 2.71,-307 2.71,-307 2.71,-307 2.71,-161 2.71,-120.55 -8.12,-99.32 21.71,-72 78.45,-20.01 319.62,-17.31 413.29,-18.29"/>
<polygon fill="grey" stroke="grey" stroke-width="2" points="413.41,-21.79 423.45,-18.41 413.49,-14.79 413.41,-21.79"/>
</g>
<!-- 5&#45;&gt;4 -->
<g id="edge20" class="edge">
<title>5&#45;&gt;4</title>
<path fill="none" stroke="grey" stroke-width="2" d="M446.99,-431.87C460.29,-407.35 484.86,-362.03 500.47,-333.26"/>
<polygon fill="grey" stroke="grey" stroke-width="2" points="503.69,-334.65 505.38,-324.19 497.54,-331.31 503.69,-334.65"/>
</g>
<!-- 8 -->
<g id="node9" class="node">
<title>8</title>
<path fill="none" stroke="#56d8b1" stroke-width="2" d="M540.71,-396C540.71,-396 510.71,-396 510.71,-396 504.71,-396 498.71,-390 498.71,-384 498.71,-384 498.71,-372 498.71,-372 498.71,-366 504.71,-360 510.71,-360 510.71,-360 540.71,-360 540.71,-360 546.71,-360 552.71,-366 552.71,-372 552.71,-372 552.71,-384 552.71,-384 552.71,-390 546.71,-396 540.71,-396"/>
<text text-anchor="middle" x="525.71" y="-375.5" font-family="sans" font-size="10.00">index</text>
</g>
<!-- 5&#45;&gt;8 -->
<g id="edge23" class="edge">
<title>5&#45;&gt;8</title>
<path fill="none" stroke="grey" stroke-width="2" d="M459.46,-431.7C470.54,-422.88 484.18,-412.03 496.2,-402.47"/>
<polygon fill="grey" stroke="grey" stroke-width="2" points="498.56,-405.07 504.2,-396.1 494.2,-399.59 498.56,-405.07"/>
</g>
<!-- 9 -->
<g id="node10" class="node">
<title>9</title>
<path fill="none" stroke="#70d856" stroke-width="2" d="M102.21,-180C102.21,-180 59.21,-180 59.21,-180 53.21,-180 47.21,-174 47.21,-168 47.21,-168 47.21,-156 47.21,-156 47.21,-150 53.21,-144 59.21,-144 59.21,-144 102.21,-144 102.21,-144 108.21,-144 114.21,-150 114.21,-156 114.21,-156 114.21,-168 114.21,-168 114.21,-174 108.21,-180 102.21,-180"/>
<text text-anchor="middle" x="80.71" y="-159.5" font-family="sans" font-size="10.00">fraglength</text>
</g>
<!-- 5&#45;&gt;9 -->
<g id="edge24" class="edge">
<title>5&#45;&gt;9</title>
<path fill="none" stroke="grey" stroke-width="2" d="M416.44,-431.97C355.57,-383.2 180.52,-242.96 110.33,-186.73"/>
<polygon fill="grey" stroke="grey" stroke-width="2" points="112.3,-183.83 102.31,-180.31 107.92,-189.29 112.3,-183.83"/>
</g>
<!-- 10 -->
<g id="node11" class="node">
<title>10</title>
<path fill="none" stroke="#56d86b" stroke-width="2" d="M606.71,-324C606.71,-324 576.71,-324 576.71,-324 570.71,-324 564.71,-318 564.71,-312 564.71,-312 564.71,-300 564.71,-300 564.71,-294 570.71,-288 576.71,-288 576.71,-288 606.71,-288 606.71,-288 612.71,-288 618.71,-294 618.71,-300 618.71,-300 618.71,-312 618.71,-312 618.71,-318 612.71,-324 606.71,-324"/>
<text text-anchor="middle" x="591.71" y="-303.5" font-family="sans" font-size="10.00">tracks</text>
</g>
<!-- 5&#45;&gt;10 -->
<g id="edge26" class="edge">
<title>5&#45;&gt;10</title>
<path fill="none" stroke="grey" stroke-width="2" d="M467.8,-443.46C495.77,-436.81 536.76,-422.99 561.71,-396 577.39,-379.03 584.91,-353.56 588.49,-334.21"/>
<polygon fill="grey" stroke="grey" stroke-width="2" points="591.97,-334.62 590.1,-324.19 585.06,-333.51 591.97,-334.62"/>
</g>
<!-- 11 -->
<g id="node12" class="node">
<title>11</title>
<path fill="none" stroke="#56c9d8" stroke-width="2" d="M385.21,-180C385.21,-180 314.21,-180 314.21,-180 308.21,-180 302.21,-174 302.21,-168 302.21,-168 302.21,-156 302.21,-156 302.21,-150 308.21,-144 314.21,-144 314.21,-144 385.21,-144 385.21,-144 391.21,-144 397.21,-150 397.21,-156 397.21,-156 397.21,-168 397.21,-168 397.21,-174 391.21,-180 385.21,-180"/>
<text text-anchor="middle" x="349.71" y="-159.5" font-family="sans" font-size="10.00">preseq_lcextrap</text>
</g>
<!-- 5&#45;&gt;11 -->
<g id="edge27" class="edge">
<title>5&#45;&gt;11</title>
<path fill="none" stroke="grey" stroke-width="2" d="M432.46,-431.97C417.73,-384.09 375.88,-248.06 357.98,-189.9"/>
<polygon fill="grey" stroke="grey" stroke-width="2" points="361.32,-188.83 355.03,-180.31 354.63,-190.89 361.32,-188.83"/>
</g>
<!-- 12 -->
<g id="node13" class="node">
<title>12</title>
<path fill="none" stroke="#d89c56" stroke-width="2" d="M690.21,-324C690.21,-324 649.21,-324 649.21,-324 643.21,-324 637.21,-318 637.21,-312 637.21,-312 637.21,-300 637.21,-300 637.21,-294 643.21,-288 649.21,-288 649.21,-288 690.21,-288 690.21,-288 696.21,-288 702.21,-294 702.21,-300 702.21,-300 702.21,-312 702.21,-312 702.21,-318 696.21,-324 690.21,-324"/>
<text text-anchor="middle" x="669.71" y="-303.5" font-family="sans" font-size="10.00">plotFinger</text>
</g>
<!-- 5&#45;&gt;12 -->
<g id="edge29" class="edge">
<title>5&#45;&gt;12</title>
<path fill="none" stroke="grey" stroke-width="2" d="M467.71,-442.51C498.79,-434.84 547.88,-419.98 584.71,-396 611.18,-378.76 635.43,-351.74 651.19,-331.99"/>
<polygon fill="grey" stroke="grey" stroke-width="2" points="654.02,-334.06 657.41,-324.02 648.5,-329.75 654.02,-334.06"/>
</g>
<!-- 5&#45;&gt;13 -->
<g id="edge30" class="edge">
<title>5&#45;&gt;13</title>
<path fill="none" stroke="grey" stroke-width="2" d="M438,-431.97C438.84,-384.29 441.2,-249.18 442.22,-190.63"/>
<polygon fill="grey" stroke="grey" stroke-width="2" points="445.73,-190.37 442.4,-180.31 438.73,-190.24 445.73,-190.37"/>
</g>
<!-- 6 -->
<g id="node7" class="node">
<title>6</title>
<path fill="none" stroke="#56d882" stroke-width="2" d="M452.71,-540C452.71,-540 422.71,-540 422.71,-540 416.71,-540 410.71,-534 410.71,-528 410.71,-528 410.71,-516 410.71,-516 410.71,-510 416.71,-504 422.71,-504 422.71,-504 452.71,-504 452.71,-504 458.71,-504 464.71,-510 464.71,-516 464.71,-516 464.71,-528 464.71,-528 464.71,-534 458.71,-540 452.71,-540"/>
<text text-anchor="middle" x="437.71" y="-519.5" font-family="sans" font-size="10.00">sort</text>
</g>
<!-- 6&#45;&gt;5 -->
<g id="edge21" class="edge">
<title>6&#45;&gt;5</title>
<path fill="none" stroke="grey" stroke-width="2" d="M437.71,-503.7C437.71,-495.98 437.71,-486.71 437.71,-478.11"/>
<polygon fill="grey" stroke="grey" stroke-width="2" points="441.21,-478.1 437.71,-468.1 434.21,-478.1 441.21,-478.1"/>
</g>
<!-- 7 -->
<g id="node8" class="node">
<title>7</title>
<path fill="none" stroke="#56d89a" stroke-width="2" d="M453.71,-612C453.71,-612 421.71,-612 421.71,-612 415.71,-612 409.71,-606 409.71,-600 409.71,-600 409.71,-588 409.71,-588 409.71,-582 415.71,-576 421.71,-576 421.71,-576 453.71,-576 453.71,-576 459.71,-576 465.71,-582 465.71,-588 465.71,-588 465.71,-600 465.71,-600 465.71,-606 459.71,-612 453.71,-612"/>
<text text-anchor="middle" x="437.71" y="-591.5" font-family="sans" font-size="10.00">bowtie2</text>
</g>
<!-- 7&#45;&gt;6 -->
<g id="edge22" class="edge">
<title>7&#45;&gt;6</title>
<path fill="none" stroke="grey" stroke-width="2" d="M437.71,-575.7C437.71,-567.98 437.71,-558.71 437.71,-550.11"/>
<polygon fill="grey" stroke="grey" stroke-width="2" points="441.21,-550.1 437.71,-540.1 434.21,-550.1 441.21,-550.1"/>
</g>
<!-- 8&#45;&gt;4 -->
<g id="edge19" class="edge">
<title>8&#45;&gt;4</title>
<path fill="none" stroke="grey" stroke-width="2" d="M522.99,-359.7C521.77,-351.98 520.32,-342.71 518.97,-334.11"/>
<polygon fill="grey" stroke="grey" stroke-width="2" points="522.4,-333.44 517.39,-324.1 515.49,-334.53 522.4,-333.44"/>
</g>
<!-- 8&#45;&gt;10 -->
<g id="edge25" class="edge">
<title>8&#45;&gt;10</title>
<path fill="none" stroke="grey" stroke-width="2" d="M542.02,-359.7C550.01,-351.22 559.78,-340.86 568.53,-331.58"/>
<polygon fill="grey" stroke="grey" stroke-width="2" points="571.27,-333.78 575.58,-324.1 566.17,-328.98 571.27,-333.78"/>
</g>
<!-- 8&#45;&gt;12 -->
<g id="edge28" class="edge">
<title>8&#45;&gt;12</title>
<path fill="none" stroke="grey" stroke-width="2" d="M552.79,-363.83C573.94,-353.55 603.69,-339.09 627.89,-327.33"/>
<polygon fill="grey" stroke="grey" stroke-width="2" points="629.73,-330.32 637.2,-322.8 626.67,-324.03 629.73,-330.32"/>
</g>
<!-- 9&#45;&gt;0 -->
<g id="edge9" class="edge">
<title>9&#45;&gt;0</title>
<path fill="none" stroke="grey" stroke-width="2" d="M98.98,-143.77C121.57,-123.47 162.02,-90.19 202.71,-72 273.25,-40.46 363.64,-27.26 413.5,-22.07"/>
<polygon fill="grey" stroke="grey" stroke-width="2" points="413.89,-25.55 423.5,-21.08 413.21,-18.58 413.89,-25.55"/>
</g>
<!-- 17 -->
<g id="node18" class="node">
<title>17</title>
<path fill="none" stroke="#56b1d8" stroke-width="2" d="M110.21,-108C110.21,-108 43.21,-108 43.21,-108 37.21,-108 31.21,-102 31.21,-96 31.21,-96 31.21,-84 31.21,-84 31.21,-78 37.21,-72 43.21,-72 43.21,-72 110.21,-72 110.21,-72 116.21,-72 122.21,-78 122.21,-84 122.21,-84 122.21,-96 122.21,-96 122.21,-102 116.21,-108 110.21,-108"/>
<text text-anchor="middle" x="76.71" y="-87.5" font-family="sans" font-size="10.00">fraglength_plot</text>
</g>
<!-- 9&#45;&gt;17 -->
<g id="edge39" class="edge">
<title>9&#45;&gt;17</title>
<path fill="none" stroke="grey" stroke-width="2" d="M79.72,-143.7C79.28,-135.98 78.75,-126.71 78.25,-118.11"/>
<polygon fill="grey" stroke="grey" stroke-width="2" points="81.75,-117.89 77.68,-108.1 74.76,-118.29 81.75,-117.89"/>
</g>
<!-- 10&#45;&gt;0 -->
<g id="edge10" class="edge">
<title>10&#45;&gt;0</title>
<path fill="none" stroke="grey" stroke-width="2" d="M619.01,-291.97C622.25,-290.56 625.54,-289.21 628.71,-288 679.54,-268.6 713.38,-295.76 745.71,-252 755.21,-239.13 749.38,-231.57 745.71,-216 729.27,-146.36 729.78,-116.45 673.71,-72 619.49,-29.03 536.07,-19.98 488.11,-18.59"/>
<polygon fill="grey" stroke="grey" stroke-width="2" points="487.93,-15.09 477.86,-18.4 487.8,-22.09 487.93,-15.09"/>
</g>
<!-- 19 -->
<g id="node20" class="node">
<title>19</title>
<path fill="none" stroke="#d86e56" stroke-width="2" d="M848.71,-252C848.71,-252 804.71,-252 804.71,-252 798.71,-252 792.71,-246 792.71,-240 792.71,-240 792.71,-228 792.71,-228 792.71,-222 798.71,-216 804.71,-216 804.71,-216 848.71,-216 848.71,-216 854.71,-216 860.71,-222 860.71,-228 860.71,-228 860.71,-240 860.71,-240 860.71,-246 854.71,-252 848.71,-252"/>
<text text-anchor="middle" x="826.71" y="-231.5" font-family="sans" font-size="10.00">merge_bw</text>
</g>
<!-- 10&#45;&gt;19 -->
<g id="edge41" class="edge">
<title>10&#45;&gt;19</title>
<path fill="none" stroke="grey" stroke-width="2" d="M618.94,-291.77C622.19,-290.4 625.5,-289.11 628.71,-288 693.5,-265.58 712.97,-271.47 778.71,-252 780.11,-251.58 781.53,-251.15 782.97,-250.7"/>
<polygon fill="grey" stroke="grey" stroke-width="2" points="784.07,-254.03 792.5,-247.61 781.91,-247.37 784.07,-254.03"/>
</g>
<!-- 11&#45;&gt;0 -->
<g id="edge3" class="edge">
<title>11&#45;&gt;0</title>
<path fill="none" stroke="grey" stroke-width="2" d="M317.65,-143.88C304.59,-135.05 290.89,-122.97 283.71,-108 276.79,-93.57 274.26,-84.91 283.71,-72 313.31,-31.55 373.99,-21.22 413.48,-18.99"/>
<polygon fill="grey" stroke="grey" stroke-width="2" points="413.67,-22.48 423.52,-18.57 413.38,-15.49 413.67,-22.48"/>
</g>
<!-- 11&#45;&gt;14 -->
<g id="edge33" class="edge">
<title>11&#45;&gt;14</title>
<path fill="none" stroke="grey" stroke-width="2" d="M342.29,-143.7C338.91,-135.81 334.84,-126.3 331.08,-117.55"/>
<polygon fill="grey" stroke="grey" stroke-width="2" points="334.19,-115.92 327.04,-108.1 327.76,-118.67 334.19,-115.92"/>
</g>
<!-- 12&#45;&gt;0 -->
<g id="edge16" class="edge">
<title>12&#45;&gt;0</title>
<path fill="none" stroke="grey" stroke-width="2" d="M702.23,-301.16C753.5,-294.37 849.39,-278.4 869.71,-252 911.83,-197.26 898.27,-142.43 805.71,-72 756.29,-34.4 568.65,-23.22 487.96,-20.11"/>
<polygon fill="grey" stroke="grey" stroke-width="2" points="487.88,-16.61 477.76,-19.74 487.63,-23.6 487.88,-16.61"/>
</g>
<!-- 13&#45;&gt;0 -->
<g id="edge2" class="edge">
<title>13&#45;&gt;0</title>
<path fill="none" stroke="grey" stroke-width="2" d="M443.67,-143.87C445.03,-119.67 447.54,-75.21 449.16,-46.39"/>
<polygon fill="grey" stroke="grey" stroke-width="2" points="452.67,-46.37 449.74,-36.19 445.68,-45.98 452.67,-46.37"/>
</g>
<!-- 13&#45;&gt;14 -->
<g id="edge32" class="edge">
<title>13&#45;&gt;14</title>
<path fill="none" stroke="grey" stroke-width="2" d="M415.41,-145.46C397.81,-135.45 374.74,-122.32 355.66,-111.46"/>
<polygon fill="grey" stroke="grey" stroke-width="2" points="357.35,-108.4 346.93,-106.49 353.89,-114.48 357.35,-108.4"/>
</g>
<!-- 18 -->
<g id="node19" class="node">
<title>18</title>
<path fill="none" stroke="#566bd8" stroke-width="2" d="M410.21,-108C410.21,-108 377.21,-108 377.21,-108 371.21,-108 365.21,-102 365.21,-96 365.21,-96 365.21,-84 365.21,-84 365.21,-78 371.21,-72 377.21,-72 377.21,-72 410.21,-72 410.21,-72 416.21,-72 422.21,-78 422.21,-84 422.21,-84 422.21,-96 422.21,-96 422.21,-102 416.21,-108 410.21,-108"/>
<text text-anchor="middle" x="393.71" y="-87.5" font-family="sans" font-size="10.00">frip_plot</text>
</g>
<!-- 13&#45;&gt;18 -->
<g id="edge40" class="edge">
<title>13&#45;&gt;18</title>
<path fill="none" stroke="grey" stroke-width="2" d="M430.59,-143.7C424.84,-135.47 417.84,-125.48 411.5,-116.42"/>
<polygon fill="grey" stroke="grey" stroke-width="2" points="414.28,-114.29 405.68,-108.1 408.55,-118.3 414.28,-114.29"/>
</g>
<!-- 14&#45;&gt;0 -->
<g id="edge5" class="edge">
<title>14&#45;&gt;0</title>
<path fill="none" stroke="grey" stroke-width="2" d="M346.85,-74.5C366.52,-63.98 393.32,-49.66 414.77,-38.2"/>
<polygon fill="grey" stroke="grey" stroke-width="2" points="416.43,-41.29 423.6,-33.49 413.13,-35.11 416.43,-41.29"/>
</g>
<!-- 15&#45;&gt;0 -->
<g id="edge6" class="edge">
<title>15&#45;&gt;0</title>
<path fill="none" stroke="grey" stroke-width="2" d="M506.99,-143.87C495.98,-119.46 475.69,-74.43 462.71,-45.64"/>
<polygon fill="grey" stroke="grey" stroke-width="2" points="465.75,-43.87 458.45,-36.19 459.37,-46.74 465.75,-43.87"/>
</g>
<!-- 15&#45;&gt;14 -->
<g id="edge34" class="edge">
<title>15&#45;&gt;14</title>
<path fill="none" stroke="grey" stroke-width="2" d="M487.38,-147.56C484.48,-146.29 481.55,-145.08 478.71,-144 428.26,-124.84 410.8,-127.82 356.46,-107.98"/>
<polygon fill="grey" stroke="grey" stroke-width="2" points="357.62,-104.68 347.03,-104.44 355.17,-111.23 357.62,-104.68"/>
</g>
<!-- 16 -->
<g id="node17" class="node">
<title>16</title>
<path fill="none" stroke="#59d856" stroke-width="2" d="M558.71,-108C558.71,-108 528.71,-108 528.71,-108 522.71,-108 516.71,-102 516.71,-96 516.71,-96 516.71,-84 516.71,-84 516.71,-78 522.71,-72 528.71,-72 528.71,-72 558.71,-72 558.71,-72 564.71,-72 570.71,-78 570.71,-84 570.71,-84 570.71,-96 570.71,-96 570.71,-102 564.71,-108 558.71,-108"/>
<text text-anchor="middle" x="543.71" y="-87.5" font-family="sans" font-size="10.00">homer</text>
</g>
<!-- 15&#45;&gt;16 -->
<g id="edge38" class="edge">
<title>15&#45;&gt;16</title>
<path fill="none" stroke="grey" stroke-width="2" d="M521.87,-143.7C525.14,-135.81 529.08,-126.3 532.71,-117.55"/>
<polygon fill="grey" stroke="grey" stroke-width="2" points="536.03,-118.68 536.62,-108.1 529.56,-116 536.03,-118.68"/>
</g>
<!-- 16&#45;&gt;0 -->
<g id="edge11" class="edge">
<title>16&#45;&gt;0</title>
<path fill="none" stroke="grey" stroke-width="2" d="M520.72,-71.7C508.89,-62.8 494.31,-51.82 481.53,-42.2"/>
<polygon fill="grey" stroke="grey" stroke-width="2" points="483.52,-39.32 473.43,-36.1 479.31,-44.91 483.52,-39.32"/>
</g>
<!-- 17&#45;&gt;0 -->
<g id="edge12" class="edge">
<title>17&#45;&gt;0</title>
<path fill="none" stroke="grey" stroke-width="2" d="M122.44,-75.49C127.24,-74.24 132.06,-73.05 136.71,-72 235.92,-49.64 354.68,-32.05 413.67,-23.92"/>
<polygon fill="grey" stroke="grey" stroke-width="2" points="414.2,-27.38 423.63,-22.56 413.25,-20.44 414.2,-27.38"/>
</g>
<!-- 18&#45;&gt;0 -->
<g id="edge15" class="edge">
<title>18&#45;&gt;0</title>
<path fill="none" stroke="grey" stroke-width="2" d="M407.8,-71.7C414.63,-63.3 422.96,-53.07 430.46,-43.86"/>
<polygon fill="grey" stroke="grey" stroke-width="2" points="433.18,-46.07 436.78,-36.1 427.75,-41.65 433.18,-46.07"/>
</g>
<!-- 19&#45;&gt;0 -->
<g id="edge13" class="edge">
<title>19&#45;&gt;0</title>
<path fill="none" stroke="grey" stroke-width="2" d="M827.1,-215.81C826.87,-182.54 821.22,-109.34 778.71,-72 735.96,-34.47 564.4,-23.31 487.88,-20.16"/>
<polygon fill="grey" stroke="grey" stroke-width="2" points="487.86,-16.66 477.73,-19.77 487.59,-23.65 487.86,-16.66"/>
</g>
<!-- 20&#45;&gt;0 -->
<g id="edge4" class="edge">
<title>20&#45;&gt;0</title>
<path fill="none" stroke="grey" stroke-width="2" d="M674.16,-215.99C679.67,-183.66 686.46,-112.95 650.71,-72 629.54,-47.76 540.05,-31.49 488.23,-23.91"/>
<polygon fill="grey" stroke="grey" stroke-width="2" points="488.48,-20.41 478.09,-22.46 487.5,-27.34 488.48,-20.41"/>
</g>
</g>
</svg>
