<?xml version="1.0" encoding="UTF-8" standalone="no"?>
<!DOCTYPE svg PUBLIC "-//W3C//DTD SVG 1.1//EN"
 "http://www.w3.org/Graphics/SVG/1.1/DTD/svg11.dtd">
<!-- Generated by graphviz version 2.38.0 (20140413.2041)
 -->
<!-- Title: snakemake_dag Pages: 1 -->
<svg width="898pt" height="620pt"
 viewBox="0.00 0.00 897.50 620.00" xmlns="http://www.w3.org/2000/svg" xmlns:xlink="http://www.w3.org/1999/xlink">
<g id="graph0" class="graph" transform="scale(1 1) rotate(0) translate(4 616)">
<title>snakemake_dag</title>
<polygon fill="white" stroke="none" points="-4,4 -4,-616 893.5,-616 893.5,4 -4,4"/>
<!-- 0 -->
<g id="node1" class="node"><title>0</title>
<path fill="none" stroke="#afd856" stroke-width="2" d="M476,-36C476,-36 446,-36 446,-36 440,-36 434,-30 434,-24 434,-24 434,-12 434,-12 434,-6 440,-0 446,-0 446,-0 476,-0 476,-0 482,-0 488,-6 488,-12 488,-12 488,-24 488,-24 488,-30 482,-36 476,-36"/>
<text text-anchor="middle" x="461" y="-15.5" font-family="sans" font-size="10.00">all</text>
</g>
<!-- 1 -->
<g id="node2" class="node"><title>1</title>
<path fill="none" stroke="#78d856" stroke-width="2" d="M42,-108C42,-108 12,-108 12,-108 6,-108 0,-102 0,-96 0,-96 0,-84 0,-84 0,-78 6,-72 12,-72 12,-72 42,-72 42,-72 48,-72 54,-78 54,-84 54,-84 54,-96 54,-96 54,-102 48,-108 42,-108"/>
<text text-anchor="middle" x="27" y="-87.5" font-family="sans" font-size="10.00">fastqc</text>
</g>
<!-- 1&#45;&gt;0 -->
<g id="edge10" class="edge"><title>1&#45;&gt;0</title>
<path fill="none" stroke="grey" stroke-width="2" d="M54.1738,-75.1038C57.1053,-73.927 60.083,-72.8603 63,-72 191.781,-34.0208 352.08,-23.1891 423.567,-20.1536"/>
<polygon fill="grey" stroke="grey" stroke-width="2" points="424.004,-23.6391 433.858,-19.7451 423.727,-16.6446 424.004,-23.6391"/>
</g>
<!-- 2 -->
<g id="node3" class="node"><title>2</title>
<path fill="none" stroke="#d8a456" stroke-width="2" d="M139.5,-108C139.5,-108 84.5,-108 84.5,-108 78.5,-108 72.5,-102 72.5,-96 72.5,-96 72.5,-84 72.5,-84 72.5,-78 78.5,-72 84.5,-72 84.5,-72 139.5,-72 139.5,-72 145.5,-72 151.5,-78 151.5,-84 151.5,-84 151.5,-96 151.5,-96 151.5,-102 145.5,-108 139.5,-108"/>
<text text-anchor="middle" x="112" y="-87.5" font-family="sans" font-size="10.00">fastq_screen</text>
</g>
<!-- 2&#45;&gt;0 -->
<g id="edge15" class="edge"><title>2&#45;&gt;0</title>
<path fill="none" stroke="grey" stroke-width="2" d="M151.65,-75.8881C156.459,-74.4846 161.324,-73.1512 166,-72 257.612,-49.4471 367.435,-32.2543 423.718,-24.1422"/>
<polygon fill="grey" stroke="grey" stroke-width="2" points="424.508,-27.565 433.913,-22.6879 423.519,-20.6352 424.508,-27.565"/>
</g>
<!-- 3 -->
<g id="node4" class="node"><title>3</title>
<path fill="none" stroke="#c6d856" stroke-width="2" d="M443,-252C443,-252 399,-252 399,-252 393,-252 387,-246 387,-240 387,-240 387,-228 387,-228 387,-222 393,-216 399,-216 399,-216 443,-216 443,-216 449,-216 455,-222 455,-228 455,-228 455,-240 455,-240 455,-246 449,-252 443,-252"/>
<text text-anchor="middle" x="421" y="-231.5" font-family="sans" font-size="10.00">consensus</text>
</g>
<!-- 3&#45;&gt;0 -->
<g id="edge3" class="edge"><title>3&#45;&gt;0</title>
<path fill="none" stroke="grey" stroke-width="2" d="M436.48,-215.733C444.204,-205.977 452.783,-193.132 457,-180 471.44,-135.036 468.567,-79.3184 464.94,-46.6116"/>
<polygon fill="grey" stroke="grey" stroke-width="2" points="468.386,-45.9553 463.705,-36.4506 461.437,-46.7998 468.386,-45.9553"/>
</g>
<!-- 15 -->
<g id="node16" class="node"><title>15</title>
<path fill="none" stroke="#56d8a9" stroke-width="2" d="M436,-180C436,-180 406,-180 406,-180 400,-180 394,-174 394,-168 394,-168 394,-156 394,-156 394,-150 400,-144 406,-144 406,-144 436,-144 436,-144 442,-144 448,-150 448,-156 448,-156 448,-168 448,-168 448,-174 442,-180 436,-180"/>
<text text-anchor="middle" x="421" y="-159.5" font-family="sans" font-size="10.00">deseq2</text>
</g>
<!-- 3&#45;&gt;15 -->
<g id="edge32" class="edge"><title>3&#45;&gt;15</title>
<path fill="none" stroke="grey" stroke-width="2" d="M421,-215.697C421,-207.983 421,-198.712 421,-190.112"/>
<polygon fill="grey" stroke="grey" stroke-width="2" points="424.5,-190.104 421,-180.104 417.5,-190.104 424.5,-190.104"/>
</g>
<!-- 4 -->
<g id="node5" class="node"><title>4</title>
<path fill="none" stroke="#56a2d8" stroke-width="2" d="M450.5,-324C450.5,-324 411.5,-324 411.5,-324 405.5,-324 399.5,-318 399.5,-312 399.5,-312 399.5,-300 399.5,-300 399.5,-294 405.5,-288 411.5,-288 411.5,-288 450.5,-288 450.5,-288 456.5,-288 462.5,-294 462.5,-300 462.5,-300 462.5,-312 462.5,-312 462.5,-318 456.5,-324 450.5,-324"/>
<text text-anchor="middle" x="431" y="-303.5" font-family="sans" font-size="10.00">callpeaks</text>
</g>
<!-- 4&#45;&gt;0 -->
<g id="edge5" class="edge"><title>4&#45;&gt;0</title>
<path fill="none" stroke="grey" stroke-width="2" d="M406.523,-287.768C395.596,-278.555 383.876,-266.186 378,-252 370.484,-233.855 380.779,-156.671 385,-144 397.441,-106.659 422.669,-68.7212 440.645,-44.5922"/>
<polygon fill="grey" stroke="grey" stroke-width="2" points="443.641,-46.4345 446.902,-36.3541 438.066,-42.2004 443.641,-46.4345"/>
</g>
<!-- 4&#45;&gt;3 -->
<g id="edge17" class="edge"><title>4&#45;&gt;3</title>
<path fill="none" stroke="grey" stroke-width="2" d="M428.528,-287.697C427.426,-279.983 426.102,-270.712 424.873,-262.112"/>
<polygon fill="grey" stroke="grey" stroke-width="2" points="428.323,-261.509 423.443,-252.104 421.393,-262.499 428.323,-261.509"/>
</g>
<!-- 13 -->
<g id="node14" class="node"><title>13</title>
<path fill="none" stroke="#56d8c9" stroke-width="2" d="M309,-180C309,-180 279,-180 279,-180 273,-180 267,-174 267,-168 267,-168 267,-156 267,-156 267,-150 273,-144 279,-144 279,-144 309,-144 309,-144 315,-144 321,-150 321,-156 321,-156 321,-168 321,-168 321,-174 315,-180 309,-180"/>
<text text-anchor="middle" x="294" y="-159.5" font-family="sans" font-size="10.00">frip</text>
</g>
<!-- 4&#45;&gt;13 -->
<g id="edge28" class="edge"><title>4&#45;&gt;13</title>
<path fill="none" stroke="grey" stroke-width="2" d="M399.301,-290.377C381.783,-281.168 360.496,-267.999 345,-252 327.38,-233.808 313.598,-208.363 304.828,-189.337"/>
<polygon fill="grey" stroke="grey" stroke-width="2" points="307.959,-187.766 300.704,-180.045 301.561,-190.606 307.959,-187.766"/>
</g>
<!-- 19 -->
<g id="node20" class="node"><title>19</title>
<path fill="none" stroke="#d88556" stroke-width="2" d="M592.5,-252C592.5,-252 485.5,-252 485.5,-252 479.5,-252 473.5,-246 473.5,-240 473.5,-240 473.5,-228 473.5,-228 473.5,-222 479.5,-216 485.5,-216 485.5,-216 592.5,-216 592.5,-216 598.5,-216 604.5,-222 604.5,-228 604.5,-228 604.5,-240 604.5,-240 604.5,-246 598.5,-252 592.5,-252"/>
<text text-anchor="middle" x="539" y="-231.5" font-family="sans" font-size="10.00">make_high_conf_peaks</text>
</g>
<!-- 4&#45;&gt;19 -->
<g id="edge36" class="edge"><title>4&#45;&gt;19</title>
<path fill="none" stroke="grey" stroke-width="2" d="M457.42,-287.876C471.41,-278.808 488.776,-267.552 503.886,-257.759"/>
<polygon fill="grey" stroke="grey" stroke-width="2" points="505.991,-260.566 512.479,-252.19 502.183,-254.692 505.991,-260.566"/>
</g>
<!-- 5 -->
<g id="node6" class="node"><title>5</title>
<path fill="none" stroke="#d8d356" stroke-width="2" d="M580,-468C580,-468 544,-468 544,-468 538,-468 532,-462 532,-456 532,-456 532,-444 532,-444 532,-438 538,-432 544,-432 544,-432 580,-432 580,-432 586,-432 592,-438 592,-444 592,-444 592,-456 592,-456 592,-462 586,-468 580,-468"/>
<text text-anchor="middle" x="562" y="-447.5" font-family="sans" font-size="10.00">markdup</text>
</g>
<!-- 5&#45;&gt;0 -->
<g id="edge4" class="edge"><title>5&#45;&gt;0</title>
<path fill="none" stroke="grey" stroke-width="2" d="M531.706,-444.453C441.355,-430.049 180,-381.91 180,-307 180,-307 180,-307 180,-161 180,-120.553 170.247,-100.446 199,-72 230.251,-41.0827 358.738,-26.8993 423.427,-21.6146"/>
<polygon fill="grey" stroke="grey" stroke-width="2" points="423.915,-25.0871 433.61,-20.8134 423.366,-18.1087 423.915,-25.0871"/>
</g>
<!-- 5&#45;&gt;4 -->
<g id="edge18" class="edge"><title>5&#45;&gt;4</title>
<path fill="none" stroke="grey" stroke-width="2" d="M539.379,-431.959C526.888,-422.073 511.432,-409.03 499,-396 479.996,-376.081 461.214,-350.973 448.221,-332.508"/>
<polygon fill="grey" stroke="grey" stroke-width="2" points="451.085,-330.497 442.505,-324.282 445.337,-334.491 451.085,-330.497"/>
</g>
<!-- 8 -->
<g id="node9" class="node"><title>8</title>
<path fill="none" stroke="#61d856" stroke-width="2" d="M550,-396C550,-396 520,-396 520,-396 514,-396 508,-390 508,-384 508,-384 508,-372 508,-372 508,-366 514,-360 520,-360 520,-360 550,-360 550,-360 556,-360 562,-366 562,-372 562,-372 562,-384 562,-384 562,-390 556,-396 550,-396"/>
<text text-anchor="middle" x="535" y="-375.5" font-family="sans" font-size="10.00">index</text>
</g>
<!-- 5&#45;&gt;8 -->
<g id="edge22" class="edge"><title>5&#45;&gt;8</title>
<path fill="none" stroke="grey" stroke-width="2" d="M555.326,-431.697C552.285,-423.813 548.617,-414.304 545.239,-405.546"/>
<polygon fill="grey" stroke="grey" stroke-width="2" points="548.462,-404.175 541.597,-396.104 541.931,-406.694 548.462,-404.175"/>
</g>
<!-- 9 -->
<g id="node10" class="node"><title>9</title>
<path fill="none" stroke="#56d0d8" stroke-width="2" d="M686.5,-180C686.5,-180 643.5,-180 643.5,-180 637.5,-180 631.5,-174 631.5,-168 631.5,-168 631.5,-156 631.5,-156 631.5,-150 637.5,-144 643.5,-144 643.5,-144 686.5,-144 686.5,-144 692.5,-144 698.5,-150 698.5,-156 698.5,-156 698.5,-168 698.5,-168 698.5,-174 692.5,-180 686.5,-180"/>
<text text-anchor="middle" x="665" y="-159.5" font-family="sans" font-size="10.00">fraglength</text>
</g>
<!-- 5&#45;&gt;9 -->
<g id="edge23" class="edge"><title>5&#45;&gt;9</title>
<path fill="none" stroke="grey" stroke-width="2" d="M574.009,-431.621C589.639,-408.211 616.75,-364.768 632,-324 643.452,-293.385 640.427,-284.019 647,-252 651.253,-231.283 655.992,-207.838 659.539,-190.213"/>
<polygon fill="grey" stroke="grey" stroke-width="2" points="663.039,-190.562 661.579,-180.068 656.176,-189.182 663.039,-190.562"/>
</g>
<!-- 10 -->
<g id="node11" class="node"><title>10</title>
<path fill="none" stroke="#56b9d8" stroke-width="2" d="M759,-180C759,-180 729,-180 729,-180 723,-180 717,-174 717,-168 717,-168 717,-156 717,-156 717,-150 723,-144 729,-144 729,-144 759,-144 759,-144 765,-144 771,-150 771,-156 771,-156 771,-168 771,-168 771,-174 765,-180 759,-180"/>
<text text-anchor="middle" x="744" y="-159.5" font-family="sans" font-size="10.00">tracks</text>
</g>
<!-- 5&#45;&gt;10 -->
<g id="edge24" class="edge"><title>5&#45;&gt;10</title>
<path fill="none" stroke="grey" stroke-width="2" d="M583.672,-431.84C595.072,-422.116 608.766,-409.267 619,-396 671.526,-327.911 714.114,-234.705 733.181,-189.602"/>
<polygon fill="grey" stroke="grey" stroke-width="2" points="736.473,-190.802 737.098,-180.226 730.014,-188.104 736.473,-190.802"/>
</g>
<!-- 11 -->
<g id="node12" class="node"><title>11</title>
<path fill="none" stroke="#568ad8" stroke-width="2" d="M877.5,-396C877.5,-396 806.5,-396 806.5,-396 800.5,-396 794.5,-390 794.5,-384 794.5,-384 794.5,-372 794.5,-372 794.5,-366 800.5,-360 806.5,-360 806.5,-360 877.5,-360 877.5,-360 883.5,-360 889.5,-366 889.5,-372 889.5,-372 889.5,-384 889.5,-384 889.5,-390 883.5,-396 877.5,-396"/>
<text text-anchor="middle" x="842" y="-375.5" font-family="sans" font-size="10.00">preseq_lcextrap</text>
</g>
<!-- 5&#45;&gt;11 -->
<g id="edge25" class="edge"><title>5&#45;&gt;11</title>
<path fill="none" stroke="grey" stroke-width="2" d="M592.231,-441.442C638.149,-429.963 726.286,-407.929 784.622,-393.345"/>
<polygon fill="grey" stroke="grey" stroke-width="2" points="785.58,-396.713 794.433,-390.892 783.882,-389.922 785.58,-396.713"/>
</g>
<!-- 12 -->
<g id="node13" class="node"><title>12</title>
<path fill="none" stroke="#56d892" stroke-width="2" d="M610.5,-324C610.5,-324 569.5,-324 569.5,-324 563.5,-324 557.5,-318 557.5,-312 557.5,-312 557.5,-300 557.5,-300 557.5,-294 563.5,-288 569.5,-288 569.5,-288 610.5,-288 610.5,-288 616.5,-288 622.5,-294 622.5,-300 622.5,-300 622.5,-312 622.5,-312 622.5,-318 616.5,-324 610.5,-324"/>
<text text-anchor="middle" x="590" y="-303.5" font-family="sans" font-size="10.00">plotFinger</text>
</g>
<!-- 5&#45;&gt;12 -->
<g id="edge26" class="edge"><title>5&#45;&gt;12</title>
<path fill="none" stroke="grey" stroke-width="2" d="M565.377,-431.871C570.171,-407.564 578.993,-362.819 584.673,-334.013"/>
<polygon fill="grey" stroke="grey" stroke-width="2" points="588.11,-334.677 586.611,-324.189 581.242,-333.323 588.11,-334.677"/>
</g>
<!-- 5&#45;&gt;13 -->
<g id="edge29" class="edge"><title>5&#45;&gt;13</title>
<path fill="none" stroke="grey" stroke-width="2" d="M531.691,-434.452C478.175,-407.015 367.719,-342.18 316,-252 305.078,-232.956 299.539,-208.597 296.753,-190.179"/>
<polygon fill="grey" stroke="grey" stroke-width="2" points="300.201,-189.557 295.411,-180.107 293.262,-190.481 300.201,-189.557"/>
</g>
<!-- 6 -->
<g id="node7" class="node"><title>6</title>
<path fill="none" stroke="#d86e56" stroke-width="2" d="M577,-540C577,-540 547,-540 547,-540 541,-540 535,-534 535,-528 535,-528 535,-516 535,-516 535,-510 541,-504 547,-504 547,-504 577,-504 577,-504 583,-504 589,-510 589,-516 589,-516 589,-528 589,-528 589,-534 583,-540 577,-540"/>
<text text-anchor="middle" x="562" y="-519.5" font-family="sans" font-size="10.00">sort</text>
</g>
<!-- 6&#45;&gt;5 -->
<g id="edge20" class="edge"><title>6&#45;&gt;5</title>
<path fill="none" stroke="grey" stroke-width="2" d="M562,-503.697C562,-495.983 562,-486.712 562,-478.112"/>
<polygon fill="grey" stroke="grey" stroke-width="2" points="565.5,-478.104 562,-468.104 558.5,-478.104 565.5,-478.104"/>
</g>
<!-- 7 -->
<g id="node8" class="node"><title>7</title>
<path fill="none" stroke="#d85656" stroke-width="2" d="M578,-612C578,-612 546,-612 546,-612 540,-612 534,-606 534,-600 534,-600 534,-588 534,-588 534,-582 540,-576 546,-576 546,-576 578,-576 578,-576 584,-576 590,-582 590,-588 590,-588 590,-600 590,-600 590,-606 584,-612 578,-612"/>
<text text-anchor="middle" x="562" y="-591.5" font-family="sans" font-size="10.00">bowtie2</text>
</g>
<!-- 7&#45;&gt;6 -->
<g id="edge21" class="edge"><title>7&#45;&gt;6</title>
<path fill="none" stroke="grey" stroke-width="2" d="M562,-575.697C562,-567.983 562,-558.712 562,-550.112"/>
<polygon fill="grey" stroke="grey" stroke-width="2" points="565.5,-550.104 562,-540.104 558.5,-550.104 565.5,-550.104"/>
</g>
<!-- 8&#45;&gt;4 -->
<g id="edge19" class="edge"><title>8&#45;&gt;4</title>
<path fill="none" stroke="grey" stroke-width="2" d="M509.559,-359.876C496.213,-350.893 479.676,-339.763 465.222,-330.034"/>
<polygon fill="grey" stroke="grey" stroke-width="2" points="466.789,-326.87 456.539,-324.19 462.881,-332.677 466.789,-326.87"/>
</g>
<!-- 8&#45;&gt;12 -->
<g id="edge27" class="edge"><title>8&#45;&gt;12</title>
<path fill="none" stroke="grey" stroke-width="2" d="M548.596,-359.697C555.123,-351.389 563.068,-341.277 570.247,-332.141"/>
<polygon fill="grey" stroke="grey" stroke-width="2" points="573.135,-334.13 576.561,-324.104 567.631,-329.805 573.135,-334.13"/>
</g>
<!-- 9&#45;&gt;0 -->
<g id="edge14" class="edge"><title>9&#45;&gt;0</title>
<path fill="none" stroke="grey" stroke-width="2" d="M647.766,-143.661C625.142,-121.113 586.384,-83.2738 570,-72 547.35,-56.4145 519.425,-42.9316 497.511,-33.4652"/>
<polygon fill="grey" stroke="grey" stroke-width="2" points="498.787,-30.2048 488.214,-29.5327 496.06,-36.6518 498.787,-30.2048"/>
</g>
<!-- 16 -->
<g id="node17" class="node"><title>16</title>
<path fill="none" stroke="#d8bc56" stroke-width="2" d="M701.5,-108C701.5,-108 634.5,-108 634.5,-108 628.5,-108 622.5,-102 622.5,-96 622.5,-96 622.5,-84 622.5,-84 622.5,-78 628.5,-72 634.5,-72 634.5,-72 701.5,-72 701.5,-72 707.5,-72 713.5,-78 713.5,-84 713.5,-84 713.5,-96 713.5,-96 713.5,-102 707.5,-108 701.5,-108"/>
<text text-anchor="middle" x="668" y="-87.5" font-family="sans" font-size="10.00">fraglength_plot</text>
</g>
<!-- 9&#45;&gt;16 -->
<g id="edge33" class="edge"><title>9&#45;&gt;16</title>
<path fill="none" stroke="grey" stroke-width="2" d="M665.742,-143.697C666.072,-135.983 666.469,-126.712 666.838,-118.112"/>
<polygon fill="grey" stroke="grey" stroke-width="2" points="670.335,-118.245 667.267,-108.104 663.342,-117.945 670.335,-118.245"/>
</g>
<!-- 10&#45;&gt;0 -->
<g id="edge1" class="edge"><title>10&#45;&gt;0</title>
<path fill="none" stroke="grey" stroke-width="2" d="M745.046,-143.973C745.287,-123.862 742.388,-90.7749 723,-72 691.42,-41.4187 563.091,-27.074 498.506,-21.6828"/>
<polygon fill="grey" stroke="grey" stroke-width="2" points="498.589,-18.1782 488.341,-20.8643 498.027,-25.1556 498.589,-18.1782"/>
</g>
<!-- 18 -->
<g id="node19" class="node"><title>18</title>
<path fill="none" stroke="#97d856" stroke-width="2" d="M826,-108C826,-108 782,-108 782,-108 776,-108 770,-102 770,-96 770,-96 770,-84 770,-84 770,-78 776,-72 782,-72 782,-72 826,-72 826,-72 832,-72 838,-78 838,-84 838,-84 838,-96 838,-96 838,-102 832,-108 826,-108"/>
<text text-anchor="middle" x="804" y="-87.5" font-family="sans" font-size="10.00">merge_bw</text>
</g>
<!-- 10&#45;&gt;18 -->
<g id="edge35" class="edge"><title>10&#45;&gt;18</title>
<path fill="none" stroke="grey" stroke-width="2" d="M758.831,-143.697C766.025,-135.305 774.797,-125.07 782.69,-115.861"/>
<polygon fill="grey" stroke="grey" stroke-width="2" points="785.489,-117.975 789.339,-108.104 780.174,-113.419 785.489,-117.975"/>
</g>
<!-- 11&#45;&gt;0 -->
<g id="edge6" class="edge"><title>11&#45;&gt;0</title>
<path fill="none" stroke="grey" stroke-width="2" d="M846.857,-359.671C853.87,-333.079 866,-280.504 866,-235 866,-235 866,-235 866,-161 866,-120.553 876.637,-99.5246 847,-72 796.863,-25.4363 584.897,-19.3686 498.195,-18.8715"/>
<polygon fill="grey" stroke="grey" stroke-width="2" points="498.033,-15.371 488.021,-18.8359 498.009,-22.371 498.033,-15.371"/>
</g>
<!-- 12&#45;&gt;0 -->
<g id="edge11" class="edge"><title>12&#45;&gt;0</title>
<path fill="none" stroke="grey" stroke-width="2" d="M600.731,-287.733C610.562,-269.651 622.405,-240.525 614,-216 589.096,-143.334 525.247,-76.7865 488.38,-42.7664"/>
<polygon fill="grey" stroke="grey" stroke-width="2" points="490.7,-40.1458 480.946,-36.0101 485.992,-45.326 490.7,-40.1458"/>
</g>
<!-- 13&#45;&gt;0 -->
<g id="edge7" class="edge"><title>13&#45;&gt;0</title>
<path fill="none" stroke="grey" stroke-width="2" d="M292.997,-143.763C292.804,-124.065 295.525,-91.9795 313,-72 341.089,-39.885 390.062,-27.2287 423.938,-22.2417"/>
<polygon fill="grey" stroke="grey" stroke-width="2" points="424.47,-25.702 433.927,-20.9271 423.556,-18.7619 424.47,-25.702"/>
</g>
<!-- 14 -->
<g id="node15" class="node"><title>14</title>
<path fill="none" stroke="#56d863" stroke-width="2" d="M364,-108C364,-108 334,-108 334,-108 328,-108 322,-102 322,-96 322,-96 322,-84 322,-84 322,-78 328,-72 334,-72 334,-72 364,-72 364,-72 370,-72 376,-78 376,-84 376,-84 376,-96 376,-96 376,-102 370,-108 364,-108"/>
<text text-anchor="middle" x="349" y="-87.5" font-family="sans" font-size="10.00">multiqc</text>
</g>
<!-- 13&#45;&gt;14 -->
<g id="edge30" class="edge"><title>13&#45;&gt;14</title>
<path fill="none" stroke="grey" stroke-width="2" d="M307.596,-143.697C314.123,-135.389 322.068,-125.277 329.247,-116.141"/>
<polygon fill="grey" stroke="grey" stroke-width="2" points="332.135,-118.13 335.561,-108.104 326.631,-113.805 332.135,-118.13"/>
</g>
<!-- 17 -->
<g id="node18" class="node"><title>17</title>
<path fill="none" stroke="#5673d8" stroke-width="2" d="M253.5,-108C253.5,-108 220.5,-108 220.5,-108 214.5,-108 208.5,-102 208.5,-96 208.5,-96 208.5,-84 208.5,-84 208.5,-78 214.5,-72 220.5,-72 220.5,-72 253.5,-72 253.5,-72 259.5,-72 265.5,-78 265.5,-84 265.5,-84 265.5,-96 265.5,-96 265.5,-102 259.5,-108 253.5,-108"/>
<text text-anchor="middle" x="237" y="-87.5" font-family="sans" font-size="10.00">frip_plot</text>
</g>
<!-- 13&#45;&gt;17 -->
<g id="edge34" class="edge"><title>13&#45;&gt;17</title>
<path fill="none" stroke="grey" stroke-width="2" d="M279.91,-143.697C273.077,-135.305 264.743,-125.07 257.244,-115.861"/>
<polygon fill="grey" stroke="grey" stroke-width="2" points="259.956,-113.649 250.928,-108.104 254.528,-118.069 259.956,-113.649"/>
</g>
<!-- 14&#45;&gt;0 -->
<g id="edge2" class="edge"><title>14&#45;&gt;0</title>
<path fill="none" stroke="grey" stroke-width="2" d="M376.112,-72.055C390.861,-62.8371 409.29,-51.3185 425.206,-41.3715"/>
<polygon fill="grey" stroke="grey" stroke-width="2" points="427.124,-44.2997 433.749,-36.0316 423.414,-38.3637 427.124,-44.2997"/>
</g>
<!-- 15&#45;&gt;0 -->
<g id="edge12" class="edge"><title>15&#45;&gt;0</title>
<path fill="none" stroke="grey" stroke-width="2" d="M425.825,-143.871C432.672,-119.564 445.276,-74.8187 453.391,-46.0132"/>
<polygon fill="grey" stroke="grey" stroke-width="2" points="456.815,-46.7637 456.158,-36.1893 450.078,-44.8657 456.815,-46.7637"/>
</g>
<!-- 15&#45;&gt;14 -->
<g id="edge31" class="edge"><title>15&#45;&gt;14</title>
<path fill="none" stroke="grey" stroke-width="2" d="M403.202,-143.697C394.396,-135.135 383.618,-124.656 373.999,-115.304"/>
<polygon fill="grey" stroke="grey" stroke-width="2" points="376.203,-112.566 366.593,-108.104 371.323,-117.585 376.203,-112.566"/>
</g>
<!-- 16&#45;&gt;0 -->
<g id="edge8" class="edge"><title>16&#45;&gt;0</title>
<path fill="none" stroke="grey" stroke-width="2" d="M622.317,-73.5515C584.931,-60.9091 532.727,-43.2555 497.942,-31.4924"/>
<polygon fill="grey" stroke="grey" stroke-width="2" points="498.775,-28.0795 488.181,-28.1916 496.533,-34.7107 498.775,-28.0795"/>
</g>
<!-- 17&#45;&gt;0 -->
<g id="edge16" class="edge"><title>17&#45;&gt;0</title>
<path fill="none" stroke="grey" stroke-width="2" d="M265.545,-77.2924C270.343,-75.4463 275.293,-73.6159 280,-72 329.256,-55.0917 387.172,-38.7357 423.975,-28.772"/>
<polygon fill="grey" stroke="grey" stroke-width="2" points="425.024,-32.1144 433.771,-26.1362 423.205,-25.3548 425.024,-32.1144"/>
</g>
<!-- 18&#45;&gt;0 -->
<g id="edge9" class="edge"><title>18&#45;&gt;0</title>
<path fill="none" stroke="grey" stroke-width="2" d="M769.864,-76.1486C765.24,-74.6323 760.529,-73.2004 756,-72 664.801,-47.8296 554.806,-31.3106 498.388,-23.7292"/>
<polygon fill="grey" stroke="grey" stroke-width="2" points="498.54,-20.2188 488.167,-22.3751 497.62,-27.1582 498.54,-20.2188"/>
</g>
<!-- 19&#45;&gt;0 -->
<g id="edge13" class="edge"><title>19&#45;&gt;0</title>
<path fill="none" stroke="grey" stroke-width="2" d="M532.82,-215.577C522.31,-186.006 500.223,-124.126 481,-72 477.82,-63.3783 474.298,-53.9897 471.106,-45.5426"/>
<polygon fill="grey" stroke="grey" stroke-width="2" points="474.367,-44.2723 467.551,-36.1613 467.821,-46.7527 474.367,-44.2723"/>
</g>
</g>
</svg>
