<?xml version="1.0" encoding="UTF-8" standalone="no"?>
<!DOCTYPE svg PUBLIC "-//W3C//DTD SVG 1.1//EN"
 "http://www.w3.org/Graphics/SVG/1.1/DTD/svg11.dtd">
<!-- Generated by graphviz version 2.30.1 (20201013.1554)
 -->
<!-- Title: snakemake_dag Pages: 1 -->
<svg width="1088pt" height="692pt"
 viewBox="0.00 0.00 1088.00 692.00" xmlns="http://www.w3.org/2000/svg" xmlns:xlink="http://www.w3.org/1999/xlink">
<g id="graph0" class="graph" transform="scale(1 1) rotate(0) translate(4 688)">
<title>snakemake_dag</title>
<polygon fill="white" stroke="white" points="-4,5 -4,-688 1085,-688 1085,5 -4,5"/>
<!-- 0 -->
<g id="node1" class="node"><title>0</title>
<path fill="none" stroke="#ced856" stroke-width="2" d="M565,-36C565,-36 535,-36 535,-36 529,-36 523,-30 523,-24 523,-24 523,-12 523,-12 523,-6 529,-0 535,-0 535,-0 565,-0 565,-0 571,-0 577,-6 577,-12 577,-12 577,-24 577,-24 577,-30 571,-36 565,-36"/>
<text text-anchor="middle" x="550" y="-15.5" font-family="sans" font-size="10.00">all</text>
</g>
<!-- 1 -->
<g id="node2" class="node"><title>1</title>
<path fill="none" stroke="#56d87b" stroke-width="2" d="M445,-684C445,-684 415,-684 415,-684 409,-684 403,-678 403,-672 403,-672 403,-660 403,-660 403,-654 409,-648 415,-648 415,-648 445,-648 445,-648 451,-648 457,-654 457,-660 457,-660 457,-672 457,-672 457,-678 451,-684 445,-684"/>
<text text-anchor="middle" x="430" y="-663.5" font-family="sans" font-size="10.00">fastp</text>
</g>
<!-- 1&#45;&gt;0 -->
<g id="edge12" class="edge"><title>1&#45;&gt;0</title>
<path fill="none" stroke="grey" stroke-width="2" d="M402.775,-662.018C308.253,-650.922 0,-608.202 0,-523 0,-523 0,-523 0,-161 0,-115.41 12.8192,-96.9128 51,-72 127.017,-22.3993 409.892,-18.4305 512.509,-18.6705"/>
<polygon fill="grey" stroke="grey" points="512.696,-22.1711 522.71,-18.7099 512.723,-15.1712 512.696,-22.1711"/>
</g>
<!-- 2 -->
<g id="node3" class="node"><title>2</title>
<path fill="none" stroke="#56b9d8" stroke-width="2" d="M1068,-252C1068,-252 1038,-252 1038,-252 1032,-252 1026,-246 1026,-240 1026,-240 1026,-228 1026,-228 1026,-222 1032,-216 1038,-216 1038,-216 1068,-216 1068,-216 1074,-216 1080,-222 1080,-228 1080,-228 1080,-240 1080,-240 1080,-246 1074,-252 1068,-252"/>
<text text-anchor="middle" x="1053" y="-231.5" font-family="sans" font-size="10.00">fastqc</text>
</g>
<!-- 1&#45;&gt;2 -->
<g id="edge22" class="edge"><title>1&#45;&gt;2</title>
<path fill="none" stroke="grey" stroke-width="2" d="M457.175,-664.627C576.003,-662.278 1044,-645.267 1044,-523 1044,-523 1044,-523 1044,-377 1044,-336.916 1047.62,-290.594 1050.26,-262.048"/>
<polygon fill="grey" stroke="grey" points="1053.75,-262.315 1051.22,-252.027 1046.79,-261.649 1053.75,-262.315"/>
</g>
<!-- 8 -->
<g id="node9" class="node"><title>8</title>
<path fill="none" stroke="#a7d856" stroke-width="2" d="M446,-612C446,-612 414,-612 414,-612 408,-612 402,-606 402,-600 402,-600 402,-588 402,-588 402,-582 408,-576 414,-576 414,-576 446,-576 446,-576 452,-576 458,-582 458,-588 458,-588 458,-600 458,-600 458,-606 452,-612 446,-612"/>
<text text-anchor="middle" x="430" y="-591.5" font-family="sans" font-size="10.00">bowtie2</text>
</g>
<!-- 1&#45;&gt;8 -->
<g id="edge28" class="edge"><title>1&#45;&gt;8</title>
<path fill="none" stroke="grey" stroke-width="2" d="M430,-647.697C430,-639.983 430,-630.712 430,-622.112"/>
<polygon fill="grey" stroke="grey" points="433.5,-622.104 430,-612.104 426.5,-622.104 433.5,-622.104"/>
</g>
<!-- 2&#45;&gt;0 -->
<g id="edge18" class="edge"><title>2&#45;&gt;0</title>
<path fill="none" stroke="grey" stroke-width="2" d="M1054.35,-215.978C1055.97,-182.666 1054.26,-108.9 1012,-72 980.178,-44.2123 691.542,-26.4334 587.32,-20.8728"/>
<polygon fill="grey" stroke="grey" points="587.422,-17.3734 577.252,-20.3432 587.054,-24.3637 587.422,-17.3734"/>
</g>
<!-- 15 -->
<g id="node16" class="node"><title>15</title>
<path fill="none" stroke="#b6d856" stroke-width="2" d="M920,-180C920,-180 890,-180 890,-180 884,-180 878,-174 878,-168 878,-168 878,-156 878,-156 878,-150 884,-144 890,-144 890,-144 920,-144 920,-144 926,-144 932,-150 932,-156 932,-156 932,-168 932,-168 932,-174 926,-180 920,-180"/>
<text text-anchor="middle" x="905" y="-159.5" font-family="sans" font-size="10.00">multiqc</text>
</g>
<!-- 2&#45;&gt;15 -->
<g id="edge39" class="edge"><title>2&#45;&gt;15</title>
<path fill="none" stroke="grey" stroke-width="2" d="M1025.85,-220.161C1002.15,-208.947 967.536,-192.578 941.424,-180.227"/>
<polygon fill="grey" stroke="grey" points="942.76,-176.988 932.224,-175.876 939.767,-183.316 942.76,-176.988"/>
</g>
<!-- 3 -->
<g id="node4" class="node"><title>3</title>
<path fill="none" stroke="#56d892" stroke-width="2" d="M957.25,-252C957.25,-252 902.75,-252 902.75,-252 896.75,-252 890.75,-246 890.75,-240 890.75,-240 890.75,-228 890.75,-228 890.75,-222 896.75,-216 902.75,-216 902.75,-216 957.25,-216 957.25,-216 963.25,-216 969.25,-222 969.25,-228 969.25,-228 969.25,-240 969.25,-240 969.25,-246 963.25,-252 957.25,-252"/>
<text text-anchor="middle" x="930" y="-231.5" font-family="sans" font-size="10.00">fastq_screen</text>
</g>
<!-- 3&#45;&gt;0 -->
<g id="edge13" class="edge"><title>3&#45;&gt;0</title>
<path fill="none" stroke="grey" stroke-width="2" d="M935.49,-215.987C945.153,-182.355 960.486,-107.547 919,-72 869.631,-29.6983 670.483,-21.1501 587.054,-19.4299"/>
<polygon fill="grey" stroke="grey" points="587.068,-15.9297 577.005,-19.2446 586.939,-22.9285 587.068,-15.9297"/>
</g>
<!-- 3&#45;&gt;15 -->
<g id="edge38" class="edge"><title>3&#45;&gt;15</title>
<path fill="none" stroke="grey" stroke-width="2" d="M923.82,-215.697C921.005,-207.813 917.609,-198.304 914.481,-189.546"/>
<polygon fill="grey" stroke="grey" points="917.768,-188.345 911.109,-180.104 911.176,-190.699 917.768,-188.345"/>
</g>
<!-- 4 -->
<g id="node5" class="node"><title>4</title>
<path fill="none" stroke="#d8bc56" stroke-width="2" d="M481,-252C481,-252 437,-252 437,-252 431,-252 425,-246 425,-240 425,-240 425,-228 425,-228 425,-222 431,-216 437,-216 437,-216 481,-216 481,-216 487,-216 493,-222 493,-228 493,-228 493,-240 493,-240 493,-246 487,-252 481,-252"/>
<text text-anchor="middle" x="459" y="-231.5" font-family="sans" font-size="10.00">consensus</text>
</g>
<!-- 4&#45;&gt;0 -->
<g id="edge6" class="edge"><title>4&#45;&gt;0</title>
<path fill="none" stroke="grey" stroke-width="2" d="M443.39,-215.774C435.627,-206.03 427.054,-193.184 423,-180 418.297,-164.707 419.324,-159.572 423,-144 431.22,-109.18 434.521,-98.0915 459,-72 474.233,-55.7636 495.565,-42.9815 513.746,-34.0412"/>
<polygon fill="grey" stroke="grey" points="515.364,-37.1479 522.918,-29.7183 512.38,-30.816 515.364,-37.1479"/>
</g>
<!-- 16 -->
<g id="node17" class="node"><title>16</title>
<path fill="none" stroke="#d89556" stroke-width="2" d="M474,-180C474,-180 444,-180 444,-180 438,-180 432,-174 432,-168 432,-168 432,-156 432,-156 432,-150 438,-144 444,-144 444,-144 474,-144 474,-144 480,-144 486,-150 486,-156 486,-156 486,-168 486,-168 486,-174 480,-180 474,-180"/>
<text text-anchor="middle" x="459" y="-159.5" font-family="sans" font-size="10.00">deseq2</text>
</g>
<!-- 4&#45;&gt;16 -->
<g id="edge42" class="edge"><title>4&#45;&gt;16</title>
<path fill="none" stroke="grey" stroke-width="2" d="M459,-215.697C459,-207.983 459,-198.712 459,-190.112"/>
<polygon fill="grey" stroke="grey" points="462.5,-190.104 459,-180.104 455.5,-190.104 462.5,-190.104"/>
</g>
<!-- 18 -->
<g id="node19" class="node"><title>18</title>
<path fill="none" stroke="#d86e56" stroke-width="2" d="M364,-180C364,-180 334,-180 334,-180 328,-180 322,-174 322,-168 322,-168 322,-156 322,-156 322,-150 328,-144 334,-144 334,-144 364,-144 364,-144 370,-144 376,-150 376,-156 376,-156 376,-168 376,-168 376,-174 370,-180 364,-180"/>
<text text-anchor="middle" x="349" y="-159.5" font-family="sans" font-size="10.00">diffbind</text>
</g>
<!-- 4&#45;&gt;18 -->
<g id="edge44" class="edge"><title>4&#45;&gt;18</title>
<path fill="none" stroke="grey" stroke-width="2" d="M432.091,-215.876C417.842,-206.808 400.154,-195.552 384.764,-185.759"/>
<polygon fill="grey" stroke="grey" points="386.328,-182.606 376.012,-180.19 382.57,-188.511 386.328,-182.606"/>
</g>
<!-- 5 -->
<g id="node6" class="node"><title>5</title>
<path fill="none" stroke="#566bd8" stroke-width="2" d="M510.25,-324C510.25,-324 471.75,-324 471.75,-324 465.75,-324 459.75,-318 459.75,-312 459.75,-312 459.75,-300 459.75,-300 459.75,-294 465.75,-288 471.75,-288 471.75,-288 510.25,-288 510.25,-288 516.25,-288 522.25,-294 522.25,-300 522.25,-300 522.25,-312 522.25,-312 522.25,-318 516.25,-324 510.25,-324"/>
<text text-anchor="middle" x="491" y="-303.5" font-family="sans" font-size="10.00">callpeaks</text>
</g>
<!-- 5&#45;&gt;0 -->
<g id="edge21" class="edge"><title>5&#45;&gt;0</title>
<path fill="none" stroke="grey" stroke-width="2" d="M522.413,-290.166C559.392,-270.742 618.937,-232.84 644,-180 668.05,-129.295 616.402,-73.4196 580.563,-42.6371"/>
<polygon fill="grey" stroke="grey" points="582.659,-39.8271 572.743,-36.0965 578.168,-45.1967 582.659,-39.8271"/>
</g>
<!-- 5&#45;&gt;4 -->
<g id="edge23" class="edge"><title>5&#45;&gt;4</title>
<path fill="none" stroke="grey" stroke-width="2" d="M483.09,-287.697C479.447,-279.728 475.046,-270.1 471.006,-261.264"/>
<polygon fill="grey" stroke="grey" points="474.16,-259.744 466.819,-252.104 467.794,-262.654 474.16,-259.744"/>
</g>
<!-- 14 -->
<g id="node15" class="node"><title>14</title>
<path fill="none" stroke="#56d8b9" stroke-width="2" d="M734,-252C734,-252 704,-252 704,-252 698,-252 692,-246 692,-240 692,-240 692,-228 692,-228 692,-222 698,-216 704,-216 704,-216 734,-216 734,-216 740,-216 746,-222 746,-228 746,-228 746,-240 746,-240 746,-246 740,-252 734,-252"/>
<text text-anchor="middle" x="719" y="-231.5" font-family="sans" font-size="10.00">frip</text>
</g>
<!-- 5&#45;&gt;14 -->
<g id="edge37" class="edge"><title>5&#45;&gt;14</title>
<path fill="none" stroke="grey" stroke-width="2" d="M522.45,-297.286C559.893,-287.827 624.136,-270.728 678,-252 679.41,-251.51 680.842,-250.996 682.283,-250.466"/>
<polygon fill="grey" stroke="grey" points="683.752,-253.651 691.824,-246.788 681.234,-247.119 683.752,-253.651"/>
</g>
<!-- 23 -->
<g id="node24" class="node"><title>23</title>
<path fill="none" stroke="#5692d8" stroke-width="2" d="M623.25,-180C623.25,-180 516.75,-180 516.75,-180 510.75,-180 504.75,-174 504.75,-168 504.75,-168 504.75,-156 504.75,-156 504.75,-150 510.75,-144 516.75,-144 516.75,-144 623.25,-144 623.25,-144 629.25,-144 635.25,-150 635.25,-156 635.25,-156 635.25,-168 635.25,-168 635.25,-174 629.25,-180 623.25,-180"/>
<text text-anchor="middle" x="570" y="-159.5" font-family="sans" font-size="10.00">make_high_conf_peaks</text>
</g>
<!-- 5&#45;&gt;23 -->
<g id="edge49" class="edge"><title>5&#45;&gt;23</title>
<path fill="none" stroke="grey" stroke-width="2" d="M500.529,-287.871C514.171,-263.35 539.384,-218.032 555.391,-189.259"/>
<polygon fill="grey" stroke="grey" points="558.634,-190.63 560.437,-180.189 552.517,-187.226 558.634,-190.63"/>
</g>
<!-- 6 -->
<g id="node7" class="node"><title>6</title>
<path fill="none" stroke="#d87d56" stroke-width="2" d="M448,-468C448,-468 412,-468 412,-468 406,-468 400,-462 400,-456 400,-456 400,-444 400,-444 400,-438 406,-432 412,-432 412,-432 448,-432 448,-432 454,-432 460,-438 460,-444 460,-444 460,-456 460,-456 460,-462 454,-468 448,-468"/>
<text text-anchor="middle" x="430" y="-447.5" font-family="sans" font-size="10.00">markdup</text>
</g>
<!-- 6&#45;&gt;0 -->
<g id="edge3" class="edge"><title>6&#45;&gt;0</title>
<path fill="none" stroke="grey" stroke-width="2" d="M460.137,-448.015C577.564,-443.373 998,-418.938 998,-307 998,-307 998,-307 998,-161 998,-114.962 983.42,-97.3659 945,-72 886.661,-33.4825 674.311,-22.7497 587.434,-19.9371"/>
<polygon fill="grey" stroke="grey" points="587.341,-16.4327 577.239,-19.6251 587.127,-23.4295 587.341,-16.4327"/>
</g>
<!-- 6&#45;&gt;5 -->
<g id="edge24" class="edge"><title>6&#45;&gt;5</title>
<path fill="none" stroke="grey" stroke-width="2" d="M437.358,-431.871C447.846,-407.457 467.19,-362.426 479.558,-333.635"/>
<polygon fill="grey" stroke="grey" points="482.885,-334.759 483.616,-324.189 476.453,-331.996 482.885,-334.759"/>
</g>
<!-- 9 -->
<g id="node10" class="node"><title>9</title>
<path fill="none" stroke="#d8cb56" stroke-width="2" d="M357,-396C357,-396 327,-396 327,-396 321,-396 315,-390 315,-384 315,-384 315,-372 315,-372 315,-366 321,-360 327,-360 327,-360 357,-360 357,-360 363,-360 369,-366 369,-372 369,-372 369,-384 369,-384 369,-390 363,-396 357,-396"/>
<text text-anchor="middle" x="342" y="-375.5" font-family="sans" font-size="10.00">index</text>
</g>
<!-- 6&#45;&gt;9 -->
<g id="edge29" class="edge"><title>6&#45;&gt;9</title>
<path fill="none" stroke="grey" stroke-width="2" d="M408.247,-431.697C397.164,-422.881 383.526,-412.032 371.51,-402.474"/>
<polygon fill="grey" stroke="grey" points="373.507,-399.59 363.503,-396.104 369.15,-405.069 373.507,-399.59"/>
</g>
<!-- 10 -->
<g id="node11" class="node"><title>10</title>
<path fill="none" stroke="#d85656" stroke-width="2" d="M283.25,-180C283.25,-180 240.75,-180 240.75,-180 234.75,-180 228.75,-174 228.75,-168 228.75,-168 228.75,-156 228.75,-156 228.75,-150 234.75,-144 240.75,-144 240.75,-144 283.25,-144 283.25,-144 289.25,-144 295.25,-150 295.25,-156 295.25,-156 295.25,-168 295.25,-168 295.25,-174 289.25,-180 283.25,-180"/>
<text text-anchor="middle" x="262" y="-159.5" font-family="sans" font-size="10.00">fraglength</text>
</g>
<!-- 6&#45;&gt;10 -->
<g id="edge30" class="edge"><title>6&#45;&gt;10</title>
<path fill="none" stroke="grey" stroke-width="2" d="M420.048,-431.928C409.595,-414.004 392.667,-385.006 378,-360 341.994,-298.614 299.52,-226.576 277.301,-188.921"/>
<polygon fill="grey" stroke="grey" points="280.202,-186.95 272.105,-180.117 274.173,-190.508 280.202,-186.95"/>
</g>
<!-- 11 -->
<g id="node12" class="node"><title>11</title>
<path fill="none" stroke="#56d8a9" stroke-width="2" d="M175,-324C175,-324 145,-324 145,-324 139,-324 133,-318 133,-312 133,-312 133,-300 133,-300 133,-294 139,-288 145,-288 145,-288 175,-288 175,-288 181,-288 187,-294 187,-300 187,-300 187,-312 187,-312 187,-318 181,-324 175,-324"/>
<text text-anchor="middle" x="160" y="-303.5" font-family="sans" font-size="10.00">tracks</text>
</g>
<!-- 6&#45;&gt;11 -->
<g id="edge31" class="edge"><title>6&#45;&gt;11</title>
<path fill="none" stroke="grey" stroke-width="2" d="M399.794,-440.425C369.963,-431.376 323.495,-415.703 286,-396 250.429,-377.308 213.272,-349.955 188.608,-330.514"/>
<polygon fill="grey" stroke="grey" points="190.745,-327.741 180.742,-324.248 186.383,-333.216 190.745,-327.741"/>
</g>
<!-- 12 -->
<g id="node13" class="node"><title>12</title>
<path fill="none" stroke="#56d8d0" stroke-width="2" d="M860.25,-252C860.25,-252 789.75,-252 789.75,-252 783.75,-252 777.75,-246 777.75,-240 777.75,-240 777.75,-228 777.75,-228 777.75,-222 783.75,-216 789.75,-216 789.75,-216 860.25,-216 860.25,-216 866.25,-216 872.25,-222 872.25,-228 872.25,-228 872.25,-240 872.25,-240 872.25,-246 866.25,-252 860.25,-252"/>
<text text-anchor="middle" x="825" y="-231.5" font-family="sans" font-size="10.00">preseq_lcextrap</text>
</g>
<!-- 6&#45;&gt;12 -->
<g id="edge33" class="edge"><title>6&#45;&gt;12</title>
<path fill="none" stroke="grey" stroke-width="2" d="M460.434,-435.17C482.9,-424.793 514.111,-410.019 541,-396 630.791,-349.186 733.579,-289.297 787.488,-257.385"/>
<polygon fill="grey" stroke="grey" points="789.525,-260.246 796.342,-252.135 785.955,-254.225 789.525,-260.246"/>
</g>
<!-- 13 -->
<g id="node14" class="node"><title>13</title>
<path fill="none" stroke="#d8a456" stroke-width="2" d="M307.25,-324C307.25,-324 266.75,-324 266.75,-324 260.75,-324 254.75,-318 254.75,-312 254.75,-312 254.75,-300 254.75,-300 254.75,-294 260.75,-288 266.75,-288 266.75,-288 307.25,-288 307.25,-288 313.25,-288 319.25,-294 319.25,-300 319.25,-300 319.25,-312 319.25,-312 319.25,-318 313.25,-324 307.25,-324"/>
<text text-anchor="middle" x="287" y="-303.5" font-family="sans" font-size="10.00">plotFinger</text>
</g>
<!-- 6&#45;&gt;13 -->
<g id="edge34" class="edge"><title>6&#45;&gt;13</title>
<path fill="none" stroke="grey" stroke-width="2" d="M399.732,-444.203C371.231,-438.056 329.506,-424.562 306,-396 291.834,-378.787 287.512,-353.513 286.486,-334.292"/>
<polygon fill="grey" stroke="grey" points="289.978,-333.957 286.213,-324.054 282.98,-334.144 289.978,-333.957"/>
</g>
<!-- 6&#45;&gt;14 -->
<g id="edge36" class="edge"><title>6&#45;&gt;14</title>
<path fill="none" stroke="grey" stroke-width="2" d="M453.162,-431.849C504.738,-393.658 629.098,-301.571 687.592,-258.257"/>
<polygon fill="grey" stroke="grey" points="689.774,-260.996 695.728,-252.232 685.609,-255.371 689.774,-260.996"/>
</g>
<!-- 7 -->
<g id="node8" class="node"><title>7</title>
<path fill="none" stroke="#567bd8" stroke-width="2" d="M445,-540C445,-540 415,-540 415,-540 409,-540 403,-534 403,-528 403,-528 403,-516 403,-516 403,-510 409,-504 415,-504 415,-504 445,-504 445,-504 451,-504 457,-510 457,-516 457,-516 457,-528 457,-528 457,-534 451,-540 445,-540"/>
<text text-anchor="middle" x="430" y="-519.5" font-family="sans" font-size="10.00">sort</text>
</g>
<!-- 7&#45;&gt;6 -->
<g id="edge26" class="edge"><title>7&#45;&gt;6</title>
<path fill="none" stroke="grey" stroke-width="2" d="M430,-503.697C430,-495.983 430,-486.712 430,-478.112"/>
<polygon fill="grey" stroke="grey" points="433.5,-478.104 430,-468.104 426.5,-478.104 433.5,-478.104"/>
</g>
<!-- 8&#45;&gt;7 -->
<g id="edge27" class="edge"><title>8&#45;&gt;7</title>
<path fill="none" stroke="grey" stroke-width="2" d="M430,-575.697C430,-567.983 430,-558.712 430,-550.112"/>
<polygon fill="grey" stroke="grey" points="433.5,-550.104 430,-540.104 426.5,-550.104 433.5,-550.104"/>
</g>
<!-- 9&#45;&gt;5 -->
<g id="edge25" class="edge"><title>9&#45;&gt;5</title>
<path fill="none" stroke="grey" stroke-width="2" d="M369.329,-364.161C392.076,-353.475 424.789,-338.106 450.567,-325.995"/>
<polygon fill="grey" stroke="grey" points="452.157,-329.116 459.719,-321.696 449.18,-322.78 452.157,-329.116"/>
</g>
<!-- 9&#45;&gt;11 -->
<g id="edge32" class="edge"><title>9&#45;&gt;11</title>
<path fill="none" stroke="grey" stroke-width="2" d="M314.753,-366.52C283.3,-354.423 231.427,-334.472 196.505,-321.04"/>
<polygon fill="grey" stroke="grey" points="197.726,-317.76 187.136,-317.437 195.213,-324.293 197.726,-317.76"/>
</g>
<!-- 9&#45;&gt;13 -->
<g id="edge35" class="edge"><title>9&#45;&gt;13</title>
<path fill="none" stroke="grey" stroke-width="2" d="M328.404,-359.697C321.877,-351.389 313.932,-341.277 306.753,-332.141"/>
<polygon fill="grey" stroke="grey" points="309.369,-329.805 300.439,-324.104 303.865,-334.13 309.369,-329.805"/>
</g>
<!-- 10&#45;&gt;0 -->
<g id="edge1" class="edge"><title>10&#45;&gt;0</title>
<path fill="none" stroke="grey" stroke-width="2" d="M266.347,-143.708C272.394,-123.337 285.365,-89.9937 309,-72 340.673,-47.8869 453.366,-30.8526 512.756,-23.3269"/>
<polygon fill="grey" stroke="grey" points="513.355,-26.7795 522.848,-22.0748 512.493,-19.8328 513.355,-26.7795"/>
</g>
<!-- 20 -->
<g id="node21" class="node"><title>20</title>
<path fill="none" stroke="#56a9d8" stroke-width="2" d="M221.25,-108C221.25,-108 154.75,-108 154.75,-108 148.75,-108 142.75,-102 142.75,-96 142.75,-96 142.75,-84 142.75,-84 142.75,-78 148.75,-72 154.75,-72 154.75,-72 221.25,-72 221.25,-72 227.25,-72 233.25,-78 233.25,-84 233.25,-84 233.25,-96 233.25,-96 233.25,-102 227.25,-108 221.25,-108"/>
<text text-anchor="middle" x="188" y="-87.5" font-family="sans" font-size="10.00">fraglength_plot</text>
</g>
<!-- 10&#45;&gt;20 -->
<g id="edge46" class="edge"><title>10&#45;&gt;20</title>
<path fill="none" stroke="grey" stroke-width="2" d="M243.708,-143.697C234.567,-135.05 223.36,-124.449 213.4,-115.027"/>
<polygon fill="grey" stroke="grey" points="215.752,-112.434 206.082,-108.104 210.941,-117.519 215.752,-112.434"/>
</g>
<!-- 11&#45;&gt;0 -->
<g id="edge14" class="edge"><title>11&#45;&gt;0</title>
<path fill="none" stroke="grey" stroke-width="2" d="M138.847,-287.778C113.744,-265.827 73.2441,-225.258 57,-180 40.2484,-133.328 45.7265,-102.273 85,-72 151.592,-20.6694 414.421,-17.6946 512.676,-18.4386"/>
<polygon fill="grey" stroke="grey" points="512.711,-21.939 522.743,-18.5326 512.777,-14.9393 512.711,-21.939"/>
</g>
<!-- 22 -->
<g id="node23" class="node"><title>22</title>
<path fill="none" stroke="#8fd856" stroke-width="2" d="M122,-180C122,-180 78,-180 78,-180 72,-180 66,-174 66,-168 66,-168 66,-156 66,-156 66,-150 72,-144 78,-144 78,-144 122,-144 122,-144 128,-144 134,-150 134,-156 134,-156 134,-168 134,-168 134,-174 128,-180 122,-180"/>
<text text-anchor="middle" x="100" y="-159.5" font-family="sans" font-size="10.00">merge_bw</text>
</g>
<!-- 11&#45;&gt;22 -->
<g id="edge48" class="edge"><title>11&#45;&gt;22</title>
<path fill="none" stroke="grey" stroke-width="2" d="M152.763,-287.871C142.447,-263.457 123.419,-218.426 111.254,-189.635"/>
<polygon fill="grey" stroke="grey" points="114.379,-188.038 107.263,-180.189 107.931,-190.763 114.379,-188.038"/>
</g>
<!-- 12&#45;&gt;0 -->
<g id="edge16" class="edge"><title>12&#45;&gt;0</title>
<path fill="none" stroke="grey" stroke-width="2" d="M832.687,-215.859C848.66,-179.018 882.474,-93.8536 864,-72 828.961,-30.5514 662.962,-21.5056 587.499,-19.5405"/>
<polygon fill="grey" stroke="grey" points="587.127,-16.031 577.048,-19.2989 586.965,-23.0292 587.127,-16.031"/>
</g>
<!-- 12&#45;&gt;15 -->
<g id="edge41" class="edge"><title>12&#45;&gt;15</title>
<path fill="none" stroke="grey" stroke-width="2" d="M844.775,-215.697C854.754,-206.965 867.011,-196.24 877.857,-186.75"/>
<polygon fill="grey" stroke="grey" points="880.231,-189.323 885.452,-180.104 875.622,-184.055 880.231,-189.323"/>
</g>
<!-- 13&#45;&gt;0 -->
<g id="edge5" class="edge"><title>13&#45;&gt;0</title>
<path fill="none" stroke="grey" stroke-width="2" d="M269.611,-287.829C222.754,-240.632 99.5855,-109.93 133,-72 157.96,-43.6673 415.099,-26.5059 512.702,-20.9705"/>
<polygon fill="grey" stroke="grey" points="512.927,-24.4635 522.717,-20.4118 512.537,-17.4744 512.927,-24.4635"/>
</g>
<!-- 14&#45;&gt;0 -->
<g id="edge15" class="edge"><title>14&#45;&gt;0</title>
<path fill="none" stroke="grey" stroke-width="2" d="M725.119,-215.949C735.339,-184.177 751.804,-115.229 720,-72 689.644,-30.7394 627.367,-20.6871 587.207,-18.7294"/>
<polygon fill="grey" stroke="grey" points="587.122,-15.2246 577.009,-18.382 586.884,-22.2206 587.122,-15.2246"/>
</g>
<!-- 14&#45;&gt;15 -->
<g id="edge40" class="edge"><title>14&#45;&gt;15</title>
<path fill="none" stroke="grey" stroke-width="2" d="M746.046,-222.821C778.28,-210.69 832.292,-190.363 868.282,-176.819"/>
<polygon fill="grey" stroke="grey" points="869.795,-179.989 877.921,-173.191 867.329,-173.438 869.795,-179.989"/>
</g>
<!-- 21 -->
<g id="node22" class="node"><title>21</title>
<path fill="none" stroke="#68d856" stroke-width="2" d="M699.25,-108C699.25,-108 666.75,-108 666.75,-108 660.75,-108 654.75,-102 654.75,-96 654.75,-96 654.75,-84 654.75,-84 654.75,-78 660.75,-72 666.75,-72 666.75,-72 699.25,-72 699.25,-72 705.25,-72 711.25,-78 711.25,-84 711.25,-84 711.25,-96 711.25,-96 711.25,-102 705.25,-108 699.25,-108"/>
<text text-anchor="middle" x="683" y="-87.5" font-family="sans" font-size="10.00">frip_plot</text>
</g>
<!-- 14&#45;&gt;21 -->
<g id="edge47" class="edge"><title>14&#45;&gt;21</title>
<path fill="none" stroke="grey" stroke-width="2" d="M714.658,-215.871C708.495,-191.564 697.151,-146.819 689.848,-118.013"/>
<polygon fill="grey" stroke="grey" points="693.208,-117.022 687.358,-108.189 686.423,-118.743 693.208,-117.022"/>
</g>
<!-- 15&#45;&gt;0 -->
<g id="edge7" class="edge"><title>15&#45;&gt;0</title>
<path fill="none" stroke="grey" stroke-width="2" d="M909.304,-143.796C913.174,-123.825 915.837,-91.182 898,-72 856.48,-27.3482 668.257,-20.1044 587.255,-19.0811"/>
<polygon fill="grey" stroke="grey" points="587.05,-15.579 577.016,-18.978 586.98,-22.5786 587.05,-15.579"/>
</g>
<!-- 24 -->
<g id="node25" class="node"><title>24</title>
<path fill="none" stroke="#56d86b" stroke-width="2" d="M843.25,-108C843.25,-108 780.75,-108 780.75,-108 774.75,-108 768.75,-102 768.75,-96 768.75,-96 768.75,-84 768.75,-84 768.75,-78 774.75,-72 780.75,-72 780.75,-72 843.25,-72 843.25,-72 849.25,-72 855.25,-78 855.25,-84 855.25,-84 855.25,-96 855.25,-96 855.25,-102 849.25,-108 843.25,-108"/>
<text text-anchor="middle" x="812" y="-87.5" font-family="sans" font-size="10.00">custom_report</text>
</g>
<!-- 15&#45;&gt;24 -->
<g id="edge51" class="edge"><title>15&#45;&gt;24</title>
<path fill="none" stroke="grey" stroke-width="2" d="M882.011,-143.697C870.186,-134.796 855.608,-123.823 842.821,-114.199"/>
<polygon fill="grey" stroke="grey" points="844.819,-111.322 834.724,-108.104 840.609,-116.915 844.819,-111.322"/>
</g>
<!-- 16&#45;&gt;0 -->
<g id="edge4" class="edge"><title>16&#45;&gt;0</title>
<path fill="none" stroke="grey" stroke-width="2" d="M486.203,-147.441C501.66,-138.354 520.056,-124.952 531,-108 542.892,-89.5808 547.474,-64.9799 549.177,-46.3108"/>
<polygon fill="grey" stroke="grey" points="552.685,-46.3126 549.881,-36.0957 545.702,-45.8316 552.685,-46.3126"/>
</g>
<!-- 17 -->
<g id="node18" class="node"><title>17</title>
<path fill="none" stroke="#56d0d8" stroke-width="2" d="M510,-108C510,-108 480,-108 480,-108 474,-108 468,-102 468,-96 468,-96 468,-84 468,-84 468,-78 474,-72 480,-72 480,-72 510,-72 510,-72 516,-72 522,-78 522,-84 522,-84 522,-96 522,-96 522,-102 516,-108 510,-108"/>
<text text-anchor="middle" x="495" y="-87.5" font-family="sans" font-size="10.00">homer</text>
</g>
<!-- 16&#45;&gt;17 -->
<g id="edge43" class="edge"><title>16&#45;&gt;17</title>
<path fill="none" stroke="grey" stroke-width="2" d="M467.899,-143.697C471.997,-135.728 476.949,-126.1 481.493,-117.264"/>
<polygon fill="grey" stroke="grey" points="484.742,-118.598 486.203,-108.104 478.517,-115.396 484.742,-118.598"/>
</g>
<!-- 17&#45;&gt;0 -->
<g id="edge17" class="edge"><title>17&#45;&gt;0</title>
<path fill="none" stroke="grey" stroke-width="2" d="M508.596,-71.6966C515.123,-63.3893 523.068,-53.2771 530.247,-44.1407"/>
<polygon fill="grey" stroke="grey" points="533.135,-46.1299 536.561,-36.1043 527.631,-41.8051 533.135,-46.1299"/>
</g>
<!-- 18&#45;&gt;0 -->
<g id="edge2" class="edge"><title>18&#45;&gt;0</title>
<path fill="none" stroke="grey" stroke-width="2" d="M334.492,-143.931C319.97,-124.684 302.034,-93.2992 319,-72 342.821,-42.0944 453.793,-27.6777 512.828,-22.0218"/>
<polygon fill="grey" stroke="grey" points="513.233,-25.4993 522.87,-21.0963 512.591,-18.5289 513.233,-25.4993"/>
</g>
<!-- 19 -->
<g id="node20" class="node"><title>19</title>
<path fill="none" stroke="#59d856" stroke-width="2" d="M399.25,-108C399.25,-108 340.75,-108 340.75,-108 334.75,-108 328.75,-102 328.75,-96 328.75,-96 328.75,-84 328.75,-84 328.75,-78 334.75,-72 340.75,-72 340.75,-72 399.25,-72 399.25,-72 405.25,-72 411.25,-78 411.25,-84 411.25,-84 411.25,-96 411.25,-96 411.25,-102 405.25,-108 399.25,-108"/>
<text text-anchor="middle" x="370" y="-87.5" font-family="sans" font-size="10.00">diffbind_plots</text>
</g>
<!-- 18&#45;&gt;19 -->
<g id="edge45" class="edge"><title>18&#45;&gt;19</title>
<path fill="none" stroke="grey" stroke-width="2" d="M354.191,-143.697C356.531,-135.898 359.347,-126.509 361.951,-117.829"/>
<polygon fill="grey" stroke="grey" points="365.348,-118.688 364.869,-108.104 358.643,-116.677 365.348,-118.688"/>
</g>
<!-- 19&#45;&gt;0 -->
<g id="edge10" class="edge"><title>19&#45;&gt;0</title>
<path fill="none" stroke="grey" stroke-width="2" d="M411.296,-72.9406C442.069,-60.9733 483.713,-44.7783 513.319,-33.2648"/>
<polygon fill="grey" stroke="grey" points="514.813,-36.4391 522.865,-29.5525 512.276,-29.915 514.813,-36.4391"/>
</g>
<!-- 20&#45;&gt;0 -->
<g id="edge19" class="edge"><title>20&#45;&gt;0</title>
<path fill="none" stroke="grey" stroke-width="2" d="M233.411,-75.6056C238.317,-74.3164 243.251,-73.0866 248,-72 342.526,-50.3741 455.441,-32.6892 512.713,-24.2867"/>
<polygon fill="grey" stroke="grey" points="513.351,-27.7308 522.742,-22.8269 512.342,-20.8038 513.351,-27.7308"/>
</g>
<!-- 21&#45;&gt;0 -->
<g id="edge9" class="edge"><title>21&#45;&gt;0</title>
<path fill="none" stroke="grey" stroke-width="2" d="M654.468,-73.9832C634.522,-63.485 607.721,-49.3796 586.26,-38.0842"/>
<polygon fill="grey" stroke="grey" points="587.602,-34.8353 577.122,-33.275 584.342,-41.0297 587.602,-34.8353"/>
</g>
<!-- 22&#45;&gt;0 -->
<g id="edge8" class="edge"><title>22&#45;&gt;0</title>
<path fill="none" stroke="grey" stroke-width="2" d="M93.9882,-143.911C88.2067,-124.051 82.6489,-91.5146 100,-72 127.293,-41.3042 409.58,-25.4172 512.618,-20.6071"/>
<polygon fill="grey" stroke="grey" points="513.036,-24.0917 522.865,-20.1379 512.715,-17.0991 513.036,-24.0917"/>
</g>
<!-- 23&#45;&gt;0 -->
<g id="edge20" class="edge"><title>23&#45;&gt;0</title>
<path fill="none" stroke="grey" stroke-width="2" d="M569.812,-143.827C569.389,-125.821 568.066,-96.7564 564,-72 562.575,-63.3205 560.354,-54.0001 558.097,-45.6328"/>
<polygon fill="grey" stroke="grey" points="561.465,-44.6788 555.379,-36.0065 554.728,-46.5813 561.465,-44.6788"/>
</g>
<!-- 23&#45;&gt;24 -->
<g id="edge50" class="edge"><title>23&#45;&gt;24</title>
<path fill="none" stroke="grey" stroke-width="2" d="M628.89,-143.966C668.447,-132.524 720.154,-117.567 758.529,-106.467"/>
<polygon fill="grey" stroke="grey" points="759.846,-109.729 768.48,-103.588 757.901,-103.005 759.846,-109.729"/>
</g>
<!-- 24&#45;&gt;0 -->
<g id="edge11" class="edge"><title>24&#45;&gt;0</title>
<path fill="none" stroke="grey" stroke-width="2" d="M768.652,-76.1356C763.717,-74.7182 758.754,-73.3138 754,-72 695.799,-55.9142 627.868,-38.5445 586.933,-28.2297"/>
<polygon fill="grey" stroke="grey" points="587.682,-24.8091 577.13,-25.7644 585.974,-31.5977 587.682,-24.8091"/>
</g>
</g>
</svg>
