<?xml version="1.0" encoding="UTF-8" standalone="no"?>
<!DOCTYPE svg PUBLIC "-//W3C//DTD SVG 1.1//EN"
 "http://www.w3.org/Graphics/SVG/1.1/DTD/svg11.dtd">
<!-- Generated by graphviz version 2.30.1 (20201013.1554)
 -->
<!-- Title: snakemake_dag Pages: 1 -->
<svg width="1038pt" height="692pt"
 viewBox="0.00 0.00 1038.00 692.00" xmlns="http://www.w3.org/2000/svg" xmlns:xlink="http://www.w3.org/1999/xlink">
<g id="graph0" class="graph" transform="scale(1 1) rotate(0) translate(4 688)">
<title>snakemake_dag</title>
<polygon fill="white" stroke="white" points="-4,5 -4,-688 1035,-688 1035,5 -4,5"/>
<!-- 0 -->
<g id="node1" class="node"><title>0</title>
<path fill="none" stroke="#d8bc56" stroke-width="2" d="M532,-36C532,-36 502,-36 502,-36 496,-36 490,-30 490,-24 490,-24 490,-12 490,-12 490,-6 496,-0 502,-0 502,-0 532,-0 532,-0 538,-0 544,-6 544,-12 544,-12 544,-24 544,-24 544,-30 538,-36 532,-36"/>
<text text-anchor="middle" x="517" y="-15.5" font-family="sans" font-size="10.00">all</text>
</g>
<!-- 1 -->
<g id="node2" class="node"><title>1</title>
<path fill="none" stroke="#9fd856" stroke-width="2" d="M369,-684C369,-684 339,-684 339,-684 333,-684 327,-678 327,-672 327,-672 327,-660 327,-660 327,-654 333,-648 339,-648 339,-648 369,-648 369,-648 375,-648 381,-654 381,-660 381,-660 381,-672 381,-672 381,-678 375,-684 369,-684"/>
<text text-anchor="middle" x="354" y="-663.5" font-family="sans" font-size="10.00">fastp</text>
</g>
<!-- 1&#45;&gt;0 -->
<g id="edge7" class="edge"><title>1&#45;&gt;0</title>
<path fill="none" stroke="grey" stroke-width="2" d="M326.81,-660.188C243.917,-644.753 0,-593.357 0,-523 0,-523 0,-523 0,-161 0,-112.537 21.3217,-96.7297 63,-72 133.302,-30.2865 384.498,-21.3868 479.89,-19.5018"/>
<polygon fill="grey" stroke="grey" points="480.009,-23.0003 489.944,-19.318 479.881,-16.0014 480.009,-23.0003"/>
</g>
<!-- 2 -->
<g id="node3" class="node"><title>2</title>
<path fill="none" stroke="#56d8c9" stroke-width="2" d="M1018,-180C1018,-180 988,-180 988,-180 982,-180 976,-174 976,-168 976,-168 976,-156 976,-156 976,-150 982,-144 988,-144 988,-144 1018,-144 1018,-144 1024,-144 1030,-150 1030,-156 1030,-156 1030,-168 1030,-168 1030,-174 1024,-180 1018,-180"/>
<text text-anchor="middle" x="1003" y="-159.5" font-family="sans" font-size="10.00">fastqc</text>
</g>
<!-- 1&#45;&gt;2 -->
<g id="edge21" class="edge"><title>1&#45;&gt;2</title>
<path fill="none" stroke="grey" stroke-width="2" d="M381.091,-664.878C502.906,-663.616 994,-650.613 994,-523 994,-523 994,-523 994,-305 994,-264.916 997.616,-218.594 1000.26,-190.048"/>
<polygon fill="grey" stroke="grey" points="1003.75,-190.315 1001.22,-180.027 996.786,-189.649 1003.75,-190.315"/>
</g>
<!-- 8 -->
<g id="node9" class="node"><title>8</title>
<path fill="none" stroke="#d85656" stroke-width="2" d="M370,-612C370,-612 338,-612 338,-612 332,-612 326,-606 326,-600 326,-600 326,-588 326,-588 326,-582 332,-576 338,-576 338,-576 370,-576 370,-576 376,-576 382,-582 382,-588 382,-588 382,-600 382,-600 382,-606 376,-612 370,-612"/>
<text text-anchor="middle" x="354" y="-591.5" font-family="sans" font-size="10.00">bowtie2</text>
</g>
<!-- 1&#45;&gt;8 -->
<g id="edge27" class="edge"><title>1&#45;&gt;8</title>
<path fill="none" stroke="grey" stroke-width="2" d="M354,-647.697C354,-639.983 354,-630.712 354,-622.112"/>
<polygon fill="grey" stroke="grey" points="357.5,-622.104 354,-612.104 350.5,-622.104 357.5,-622.104"/>
</g>
<!-- 2&#45;&gt;0 -->
<g id="edge14" class="edge"><title>2&#45;&gt;0</title>
<path fill="none" stroke="grey" stroke-width="2" d="M1000.22,-143.739C995.916,-123.073 985.526,-89.1109 962,-72 897.259,-24.913 649.054,-19.2805 554.174,-18.8825"/>
<polygon fill="grey" stroke="grey" points="554.177,-15.3826 544.168,-18.8579 554.16,-22.3826 554.177,-15.3826"/>
</g>
<!-- 15 -->
<g id="node16" class="node"><title>15</title>
<path fill="none" stroke="#d89556" stroke-width="2" d="M860,-108C860,-108 830,-108 830,-108 824,-108 818,-102 818,-96 818,-96 818,-84 818,-84 818,-78 824,-72 830,-72 830,-72 860,-72 860,-72 866,-72 872,-78 872,-84 872,-84 872,-96 872,-96 872,-102 866,-108 860,-108"/>
<text text-anchor="middle" x="845" y="-87.5" font-family="sans" font-size="10.00">multiqc</text>
</g>
<!-- 2&#45;&gt;15 -->
<g id="edge38" class="edge"><title>2&#45;&gt;15</title>
<path fill="none" stroke="grey" stroke-width="2" d="M975.839,-148.967C949.759,-137.412 910.184,-119.879 881.388,-107.121"/>
<polygon fill="grey" stroke="grey" points="882.631,-103.844 872.071,-102.993 879.796,-110.244 882.631,-103.844"/>
</g>
<!-- 3 -->
<g id="node4" class="node"><title>3</title>
<path fill="none" stroke="#d86e56" stroke-width="2" d="M907.25,-180C907.25,-180 852.75,-180 852.75,-180 846.75,-180 840.75,-174 840.75,-168 840.75,-168 840.75,-156 840.75,-156 840.75,-150 846.75,-144 852.75,-144 852.75,-144 907.25,-144 907.25,-144 913.25,-144 919.25,-150 919.25,-156 919.25,-156 919.25,-168 919.25,-168 919.25,-174 913.25,-180 907.25,-180"/>
<text text-anchor="middle" x="880" y="-159.5" font-family="sans" font-size="10.00">fastq_screen</text>
</g>
<!-- 3&#45;&gt;0 -->
<g id="edge1" class="edge"><title>3&#45;&gt;0</title>
<path fill="none" stroke="grey" stroke-width="2" d="M886.187,-143.993C892.176,-124.211 898.084,-91.7513 881,-72 838.984,-23.4228 638.271,-18.4621 554.187,-18.5664"/>
<polygon fill="grey" stroke="grey" points="554.046,-15.0668 544.059,-18.6046 554.072,-22.0668 554.046,-15.0668"/>
</g>
<!-- 3&#45;&gt;15 -->
<g id="edge39" class="edge"><title>3&#45;&gt;15</title>
<path fill="none" stroke="grey" stroke-width="2" d="M871.348,-143.697C867.364,-135.728 862.55,-126.1 858.132,-117.264"/>
<polygon fill="grey" stroke="grey" points="861.155,-115.483 853.552,-108.104 854.894,-118.614 861.155,-115.483"/>
</g>
<!-- 4 -->
<g id="node5" class="node"><title>4</title>
<path fill="none" stroke="#56d873" stroke-width="2" d="M442,-252C442,-252 398,-252 398,-252 392,-252 386,-246 386,-240 386,-240 386,-228 386,-228 386,-222 392,-216 398,-216 398,-216 442,-216 442,-216 448,-216 454,-222 454,-228 454,-228 454,-240 454,-240 454,-246 448,-252 442,-252"/>
<text text-anchor="middle" x="420" y="-231.5" font-family="sans" font-size="10.00">consensus</text>
</g>
<!-- 4&#45;&gt;0 -->
<g id="edge10" class="edge"><title>4&#45;&gt;0</title>
<path fill="none" stroke="grey" stroke-width="2" d="M433.074,-215.975C440.433,-205.883 449.433,-192.633 456,-180 479.513,-134.771 498.77,-78.3517 509.006,-45.7244"/>
<polygon fill="grey" stroke="grey" points="512.399,-46.599 512.007,-36.0115 505.711,-44.5329 512.399,-46.599"/>
</g>
<!-- 16 -->
<g id="node17" class="node"><title>16</title>
<path fill="none" stroke="#56c1d8" stroke-width="2" d="M560,-180C560,-180 530,-180 530,-180 524,-180 518,-174 518,-168 518,-168 518,-156 518,-156 518,-150 524,-144 530,-144 530,-144 560,-144 560,-144 566,-144 572,-150 572,-156 572,-156 572,-168 572,-168 572,-174 566,-180 560,-180"/>
<text text-anchor="middle" x="545" y="-159.5" font-family="sans" font-size="10.00">deseq2</text>
</g>
<!-- 4&#45;&gt;16 -->
<g id="edge41" class="edge"><title>4&#45;&gt;16</title>
<path fill="none" stroke="grey" stroke-width="2" d="M450.578,-215.876C468.219,-205.998 490.496,-193.522 508.982,-183.17"/>
<polygon fill="grey" stroke="grey" points="510.701,-186.219 517.715,-178.279 507.28,-180.112 510.701,-186.219"/>
</g>
<!-- 18 -->
<g id="node19" class="node"><title>18</title>
<path fill="none" stroke="#56d8a2" stroke-width="2" d="M435,-180C435,-180 405,-180 405,-180 399,-180 393,-174 393,-168 393,-168 393,-156 393,-156 393,-150 399,-144 405,-144 405,-144 435,-144 435,-144 441,-144 447,-150 447,-156 447,-156 447,-168 447,-168 447,-174 441,-180 435,-180"/>
<text text-anchor="middle" x="420" y="-159.5" font-family="sans" font-size="10.00">diffbind</text>
</g>
<!-- 4&#45;&gt;18 -->
<g id="edge43" class="edge"><title>4&#45;&gt;18</title>
<path fill="none" stroke="grey" stroke-width="2" d="M420,-215.697C420,-207.983 420,-198.712 420,-190.112"/>
<polygon fill="grey" stroke="grey" points="423.5,-190.104 420,-180.104 416.5,-190.104 423.5,-190.104"/>
</g>
<!-- 5 -->
<g id="node6" class="node"><title>5</title>
<path fill="none" stroke="#56d88a" stroke-width="2" d="M421.25,-324C421.25,-324 382.75,-324 382.75,-324 376.75,-324 370.75,-318 370.75,-312 370.75,-312 370.75,-300 370.75,-300 370.75,-294 376.75,-288 382.75,-288 382.75,-288 421.25,-288 421.25,-288 427.25,-288 433.25,-294 433.25,-300 433.25,-300 433.25,-312 433.25,-312 433.25,-318 427.25,-324 421.25,-324"/>
<text text-anchor="middle" x="402" y="-303.5" font-family="sans" font-size="10.00">callpeaks</text>
</g>
<!-- 5&#45;&gt;0 -->
<g id="edge11" class="edge"><title>5&#45;&gt;0</title>
<path fill="none" stroke="grey" stroke-width="2" d="M391.088,-287.891C366.262,-246.577 311.341,-139.783 360,-72 387.026,-34.3515 442.211,-23.0983 479.411,-19.9289"/>
<polygon fill="grey" stroke="grey" points="480.122,-23.3883 489.858,-19.209 479.641,-16.4048 480.122,-23.3883"/>
</g>
<!-- 5&#45;&gt;4 -->
<g id="edge22" class="edge"><title>5&#45;&gt;4</title>
<path fill="none" stroke="grey" stroke-width="2" d="M406.449,-287.697C408.455,-279.898 410.869,-270.509 413.101,-261.829"/>
<polygon fill="grey" stroke="grey" points="416.501,-262.661 415.602,-252.104 409.722,-260.918 416.501,-262.661"/>
</g>
<!-- 14 -->
<g id="node15" class="node"><title>14</title>
<path fill="none" stroke="#56d0d8" stroke-width="2" d="M697,-180C697,-180 667,-180 667,-180 661,-180 655,-174 655,-168 655,-168 655,-156 655,-156 655,-150 661,-144 667,-144 667,-144 697,-144 697,-144 703,-144 709,-150 709,-156 709,-156 709,-168 709,-168 709,-174 703,-180 697,-180"/>
<text text-anchor="middle" x="682" y="-159.5" font-family="sans" font-size="10.00">frip</text>
</g>
<!-- 5&#45;&gt;14 -->
<g id="edge36" class="edge"><title>5&#45;&gt;14</title>
<path fill="none" stroke="grey" stroke-width="2" d="M433.481,-304.523C479.187,-302.373 564.804,-292.708 623,-252 645.193,-236.476 661.27,-209.686 670.985,-189.543"/>
<polygon fill="grey" stroke="grey" points="674.252,-190.816 675.242,-180.268 667.89,-187.897 674.252,-190.816"/>
</g>
<!-- 23 -->
<g id="node24" class="node"><title>23</title>
<path fill="none" stroke="#56d8b1" stroke-width="2" d="M602.25,-252C602.25,-252 495.75,-252 495.75,-252 489.75,-252 483.75,-246 483.75,-240 483.75,-240 483.75,-228 483.75,-228 483.75,-222 489.75,-216 495.75,-216 495.75,-216 602.25,-216 602.25,-216 608.25,-216 614.25,-222 614.25,-228 614.25,-228 614.25,-240 614.25,-240 614.25,-246 608.25,-252 602.25,-252"/>
<text text-anchor="middle" x="549" y="-231.5" font-family="sans" font-size="10.00">make_high_conf_peaks</text>
</g>
<!-- 5&#45;&gt;23 -->
<g id="edge48" class="edge"><title>5&#45;&gt;23</title>
<path fill="none" stroke="grey" stroke-width="2" d="M433.535,-289.983C454.074,-280.203 481.187,-267.292 503.978,-256.439"/>
<polygon fill="grey" stroke="grey" points="505.6,-259.543 513.124,-252.084 502.591,-253.223 505.6,-259.543"/>
</g>
<!-- 6 -->
<g id="node7" class="node"><title>6</title>
<path fill="none" stroke="#b6d856" stroke-width="2" d="M372,-468C372,-468 336,-468 336,-468 330,-468 324,-462 324,-456 324,-456 324,-444 324,-444 324,-438 330,-432 336,-432 336,-432 372,-432 372,-432 378,-432 384,-438 384,-444 384,-444 384,-456 384,-456 384,-462 378,-468 372,-468"/>
<text text-anchor="middle" x="354" y="-447.5" font-family="sans" font-size="10.00">markdup</text>
</g>
<!-- 6&#45;&gt;0 -->
<g id="edge6" class="edge"><title>6&#45;&gt;0</title>
<path fill="none" stroke="grey" stroke-width="2" d="M384.273,-448.333C505.319,-444.863 948,-424.164 948,-307 948,-307 948,-307 948,-161 948,-116.268 937.638,-97.6639 901,-72 845.44,-33.082 639.263,-22.5918 554.134,-19.8906"/>
<polygon fill="grey" stroke="grey" points="554.234,-16.3922 544.133,-19.5918 554.024,-23.389 554.234,-16.3922"/>
</g>
<!-- 6&#45;&gt;5 -->
<g id="edge23" class="edge"><title>6&#45;&gt;5</title>
<path fill="none" stroke="grey" stroke-width="2" d="M359.79,-431.871C368.007,-407.564 383.132,-362.819 392.869,-334.013"/>
<polygon fill="grey" stroke="grey" points="396.303,-334.783 396.19,-324.189 389.672,-332.542 396.303,-334.783"/>
</g>
<!-- 9 -->
<g id="node10" class="node"><title>9</title>
<path fill="none" stroke="#61d856" stroke-width="2" d="M241,-396C241,-396 211,-396 211,-396 205,-396 199,-390 199,-384 199,-384 199,-372 199,-372 199,-366 205,-360 211,-360 211,-360 241,-360 241,-360 247,-360 253,-366 253,-372 253,-372 253,-384 253,-384 253,-390 247,-396 241,-396"/>
<text text-anchor="middle" x="226" y="-375.5" font-family="sans" font-size="10.00">index</text>
</g>
<!-- 6&#45;&gt;9 -->
<g id="edge28" class="edge"><title>6&#45;&gt;9</title>
<path fill="none" stroke="grey" stroke-width="2" d="M323.99,-432.588C305.491,-422.471 281.654,-409.436 262.123,-398.755"/>
<polygon fill="grey" stroke="grey" points="263.659,-395.605 253.205,-393.878 260.3,-401.747 263.659,-395.605"/>
</g>
<!-- 10 -->
<g id="node11" class="node"><title>10</title>
<path fill="none" stroke="#5682d8" stroke-width="2" d="M278.25,-180C278.25,-180 235.75,-180 235.75,-180 229.75,-180 223.75,-174 223.75,-168 223.75,-168 223.75,-156 223.75,-156 223.75,-150 229.75,-144 235.75,-144 235.75,-144 278.25,-144 278.25,-144 284.25,-144 290.25,-150 290.25,-156 290.25,-156 290.25,-168 290.25,-168 290.25,-174 284.25,-180 278.25,-180"/>
<text text-anchor="middle" x="257" y="-159.5" font-family="sans" font-size="10.00">fraglength</text>
</g>
<!-- 6&#45;&gt;10 -->
<g id="edge29" class="edge"><title>6&#45;&gt;10</title>
<path fill="none" stroke="grey" stroke-width="2" d="M348.223,-431.966C331.986,-384.093 285.849,-248.06 266.125,-189.904"/>
<polygon fill="grey" stroke="grey" points="269.396,-188.652 262.87,-180.306 262.767,-190.901 269.396,-188.652"/>
</g>
<!-- 11 -->
<g id="node12" class="node"><title>11</title>
<path fill="none" stroke="#56d863" stroke-width="2" d="M115,-324C115,-324 85,-324 85,-324 79,-324 73,-318 73,-312 73,-312 73,-300 73,-300 73,-294 79,-288 85,-288 85,-288 115,-288 115,-288 121,-288 127,-294 127,-300 127,-300 127,-312 127,-312 127,-318 121,-324 115,-324"/>
<text text-anchor="middle" x="100" y="-303.5" font-family="sans" font-size="10.00">tracks</text>
</g>
<!-- 6&#45;&gt;11 -->
<g id="edge30" class="edge"><title>6&#45;&gt;11</title>
<path fill="none" stroke="grey" stroke-width="2" d="M323.96,-445.843C285.854,-440.651 219.404,-427.533 172,-396 147.605,-379.772 127.43,-352.72 114.704,-332.692"/>
<polygon fill="grey" stroke="grey" points="117.61,-330.736 109.393,-324.048 111.646,-334.401 117.61,-330.736"/>
</g>
<!-- 12 -->
<g id="node13" class="node"><title>12</title>
<path fill="none" stroke="#d8d356" stroke-width="2" d="M810.25,-180C810.25,-180 739.75,-180 739.75,-180 733.75,-180 727.75,-174 727.75,-168 727.75,-168 727.75,-156 727.75,-156 727.75,-150 733.75,-144 739.75,-144 739.75,-144 810.25,-144 810.25,-144 816.25,-144 822.25,-150 822.25,-156 822.25,-156 822.25,-168 822.25,-168 822.25,-174 816.25,-180 810.25,-180"/>
<text text-anchor="middle" x="775" y="-159.5" font-family="sans" font-size="10.00">preseq_lcextrap</text>
</g>
<!-- 6&#45;&gt;12 -->
<g id="edge32" class="edge"><title>6&#45;&gt;12</title>
<path fill="none" stroke="grey" stroke-width="2" d="M384.09,-441.871C417.214,-433.397 471.531,-417.633 515,-396 620.413,-343.539 715.56,-236.528 755.321,-187.964"/>
<polygon fill="grey" stroke="grey" points="758.081,-190.118 761.657,-180.145 752.642,-185.711 758.081,-190.118"/>
</g>
<!-- 13 -->
<g id="node14" class="node"><title>13</title>
<path fill="none" stroke="#c6d856" stroke-width="2" d="M198.25,-324C198.25,-324 157.75,-324 157.75,-324 151.75,-324 145.75,-318 145.75,-312 145.75,-312 145.75,-300 145.75,-300 145.75,-294 151.75,-288 157.75,-288 157.75,-288 198.25,-288 198.25,-288 204.25,-288 210.25,-294 210.25,-300 210.25,-300 210.25,-312 210.25,-312 210.25,-318 204.25,-324 198.25,-324"/>
<text text-anchor="middle" x="178" y="-303.5" font-family="sans" font-size="10.00">plotFinger</text>
</g>
<!-- 6&#45;&gt;13 -->
<g id="edge33" class="edge"><title>6&#45;&gt;13</title>
<path fill="none" stroke="grey" stroke-width="2" d="M323.929,-448.425C286.42,-445.961 223.194,-435.721 190,-396 175.828,-379.041 173.671,-353.576 174.569,-334.224"/>
<polygon fill="grey" stroke="grey" points="178.063,-334.43 175.325,-324.195 171.083,-333.903 178.063,-334.43"/>
</g>
<!-- 6&#45;&gt;14 -->
<g id="edge35" class="edge"><title>6&#45;&gt;14</title>
<path fill="none" stroke="grey" stroke-width="2" d="M384.039,-437.474C444.322,-412.82 580.544,-349.175 654,-252 667.617,-233.985 674.707,-209.197 678.341,-190.355"/>
<polygon fill="grey" stroke="grey" points="681.822,-190.76 680.063,-180.312 674.923,-189.577 681.822,-190.76"/>
</g>
<!-- 7 -->
<g id="node8" class="node"><title>7</title>
<path fill="none" stroke="#88d856" stroke-width="2" d="M369,-540C369,-540 339,-540 339,-540 333,-540 327,-534 327,-528 327,-528 327,-516 327,-516 327,-510 333,-504 339,-504 339,-504 369,-504 369,-504 375,-504 381,-510 381,-516 381,-516 381,-528 381,-528 381,-534 375,-540 369,-540"/>
<text text-anchor="middle" x="354" y="-519.5" font-family="sans" font-size="10.00">sort</text>
</g>
<!-- 7&#45;&gt;6 -->
<g id="edge25" class="edge"><title>7&#45;&gt;6</title>
<path fill="none" stroke="grey" stroke-width="2" d="M354,-503.697C354,-495.983 354,-486.712 354,-478.112"/>
<polygon fill="grey" stroke="grey" points="357.5,-478.104 354,-468.104 350.5,-478.104 357.5,-478.104"/>
</g>
<!-- 8&#45;&gt;7 -->
<g id="edge26" class="edge"><title>8&#45;&gt;7</title>
<path fill="none" stroke="grey" stroke-width="2" d="M354,-575.697C354,-567.983 354,-558.712 354,-550.112"/>
<polygon fill="grey" stroke="grey" points="357.5,-550.104 354,-540.104 350.5,-550.104 357.5,-550.104"/>
</g>
<!-- 9&#45;&gt;5 -->
<g id="edge24" class="edge"><title>9&#45;&gt;5</title>
<path fill="none" stroke="grey" stroke-width="2" d="M253.114,-366.216C281.988,-354.732 328.014,-336.426 361.253,-323.206"/>
<polygon fill="grey" stroke="grey" points="362.695,-326.399 370.694,-319.451 360.108,-319.895 362.695,-326.399"/>
</g>
<!-- 9&#45;&gt;11 -->
<g id="edge31" class="edge"><title>9&#45;&gt;11</title>
<path fill="none" stroke="grey" stroke-width="2" d="M198.97,-361.983C180.659,-351.811 156.253,-338.252 136.259,-327.144"/>
<polygon fill="grey" stroke="grey" points="137.862,-324.03 127.42,-322.233 134.462,-330.149 137.862,-324.03"/>
</g>
<!-- 9&#45;&gt;13 -->
<g id="edge34" class="edge"><title>9&#45;&gt;13</title>
<path fill="none" stroke="grey" stroke-width="2" d="M214.135,-359.697C208.497,-351.474 201.646,-341.483 195.431,-332.421"/>
<polygon fill="grey" stroke="grey" points="198.271,-330.372 189.729,-324.104 192.497,-334.331 198.271,-330.372"/>
</g>
<!-- 10&#45;&gt;0 -->
<g id="edge19" class="edge"><title>10&#45;&gt;0</title>
<path fill="none" stroke="grey" stroke-width="2" d="M260.21,-143.836C264.912,-123.59 275.663,-90.3705 298,-72 350.385,-28.9166 432.271,-19.8809 479.666,-18.5358"/>
<polygon fill="grey" stroke="grey" points="479.865,-22.0329 489.8,-18.3512 479.738,-15.034 479.865,-22.0329"/>
</g>
<!-- 20 -->
<g id="node21" class="node"><title>20</title>
<path fill="none" stroke="#d8ac56" stroke-width="2" d="M233.25,-108C233.25,-108 166.75,-108 166.75,-108 160.75,-108 154.75,-102 154.75,-96 154.75,-96 154.75,-84 154.75,-84 154.75,-78 160.75,-72 166.75,-72 166.75,-72 233.25,-72 233.25,-72 239.25,-72 245.25,-78 245.25,-84 245.25,-84 245.25,-96 245.25,-96 245.25,-102 239.25,-108 233.25,-108"/>
<text text-anchor="middle" x="200" y="-87.5" font-family="sans" font-size="10.00">fraglength_plot</text>
</g>
<!-- 10&#45;&gt;20 -->
<g id="edge45" class="edge"><title>10&#45;&gt;20</title>
<path fill="none" stroke="grey" stroke-width="2" d="M242.91,-143.697C236.077,-135.305 227.743,-125.07 220.244,-115.861"/>
<polygon fill="grey" stroke="grey" points="222.956,-113.649 213.928,-108.104 217.528,-118.069 222.956,-113.649"/>
</g>
<!-- 11&#45;&gt;0 -->
<g id="edge9" class="edge"><title>11&#45;&gt;0</title>
<path fill="none" stroke="grey" stroke-width="2" d="M80.9609,-287.837C71.824,-278.3 61.8317,-265.624 57,-252 37.3878,-196.698 54.7752,-103.104 89,-72 145.821,-20.3601 386.309,-17.4453 479.702,-18.3279"/>
<polygon fill="grey" stroke="grey" points="479.786,-21.829 489.825,-18.4443 479.866,-14.8295 479.786,-21.829"/>
</g>
<!-- 22 -->
<g id="node23" class="node"><title>22</title>
<path fill="none" stroke="#78d856" stroke-width="2" d="M122,-252C122,-252 78,-252 78,-252 72,-252 66,-246 66,-240 66,-240 66,-228 66,-228 66,-222 72,-216 78,-216 78,-216 122,-216 122,-216 128,-216 134,-222 134,-228 134,-228 134,-240 134,-240 134,-246 128,-252 122,-252"/>
<text text-anchor="middle" x="100" y="-231.5" font-family="sans" font-size="10.00">merge_bw</text>
</g>
<!-- 11&#45;&gt;22 -->
<g id="edge47" class="edge"><title>11&#45;&gt;22</title>
<path fill="none" stroke="grey" stroke-width="2" d="M100,-287.697C100,-279.983 100,-270.712 100,-262.112"/>
<polygon fill="grey" stroke="grey" points="103.5,-262.104 100,-252.104 96.5001,-262.104 103.5,-262.104"/>
</g>
<!-- 12&#45;&gt;0 -->
<g id="edge4" class="edge"><title>12&#45;&gt;0</title>
<path fill="none" stroke="grey" stroke-width="2" d="M775.125,-143.982C774.308,-123.88 769.771,-90.8026 750,-72 722.196,-45.5572 612.912,-29.6555 554.422,-22.868"/>
<polygon fill="grey" stroke="grey" points="554.452,-19.3493 544.123,-21.7063 553.667,-26.3052 554.452,-19.3493"/>
</g>
<!-- 12&#45;&gt;15 -->
<g id="edge40" class="edge"><title>12&#45;&gt;15</title>
<path fill="none" stroke="grey" stroke-width="2" d="M792.303,-143.697C800.865,-135.135 811.344,-124.656 820.696,-115.304"/>
<polygon fill="grey" stroke="grey" points="823.299,-117.65 827.896,-108.104 818.35,-112.701 823.299,-117.65"/>
</g>
<!-- 13&#45;&gt;0 -->
<g id="edge5" class="edge"><title>13&#45;&gt;0</title>
<path fill="none" stroke="grey" stroke-width="2" d="M172.353,-287.93C156.912,-239.786 116.954,-104.325 145,-72 188.143,-22.2743 394.487,-18.0127 479.877,-18.4356"/>
<polygon fill="grey" stroke="grey" points="479.884,-21.9356 489.91,-18.51 479.936,-14.9358 479.884,-21.9356"/>
</g>
<!-- 14&#45;&gt;0 -->
<g id="edge15" class="edge"><title>14&#45;&gt;0</title>
<path fill="none" stroke="grey" stroke-width="2" d="M703.298,-143.984C724.05,-125.338 750.034,-95.0196 732,-72 710.339,-44.3515 610.066,-29.1706 554.437,-22.7453"/>
<polygon fill="grey" stroke="grey" points="554.597,-19.2416 544.271,-21.6111 553.821,-26.1984 554.597,-19.2416"/>
</g>
<!-- 14&#45;&gt;15 -->
<g id="edge37" class="edge"><title>14&#45;&gt;15</title>
<path fill="none" stroke="grey" stroke-width="2" d="M709.066,-148.056C712.071,-146.668 715.095,-145.291 718,-144 748.2,-130.576 782.843,-116.185 808.311,-105.791"/>
<polygon fill="grey" stroke="grey" points="809.651,-109.025 817.594,-102.014 807.012,-102.541 809.651,-109.025"/>
</g>
<!-- 21 -->
<g id="node22" class="node"><title>21</title>
<path fill="none" stroke="#566bd8" stroke-width="2" d="M711.25,-108C711.25,-108 678.75,-108 678.75,-108 672.75,-108 666.75,-102 666.75,-96 666.75,-96 666.75,-84 666.75,-84 666.75,-78 672.75,-72 678.75,-72 678.75,-72 711.25,-72 711.25,-72 717.25,-72 723.25,-78 723.25,-84 723.25,-84 723.25,-96 723.25,-96 723.25,-102 717.25,-108 711.25,-108"/>
<text text-anchor="middle" x="695" y="-87.5" font-family="sans" font-size="10.00">frip_plot</text>
</g>
<!-- 14&#45;&gt;21 -->
<g id="edge46" class="edge"><title>14&#45;&gt;21</title>
<path fill="none" stroke="grey" stroke-width="2" d="M685.213,-143.697C686.646,-135.983 688.368,-126.712 689.965,-118.112"/>
<polygon fill="grey" stroke="grey" points="693.439,-118.575 691.823,-108.104 686.556,-117.297 693.439,-118.575"/>
</g>
<!-- 15&#45;&gt;0 -->
<g id="edge2" class="edge"><title>15&#45;&gt;0</title>
<path fill="none" stroke="grey" stroke-width="2" d="M817.942,-76.845C813.348,-75.0527 808.581,-73.3562 804,-72 716.366,-46.0554 609.744,-30.3597 554.397,-23.3505"/>
<polygon fill="grey" stroke="grey" points="554.709,-19.8624 544.353,-22.1031 553.846,-26.809 554.709,-19.8624"/>
</g>
<!-- 16&#45;&gt;0 -->
<g id="edge16" class="edge"><title>16&#45;&gt;0</title>
<path fill="none" stroke="grey" stroke-width="2" d="M560.644,-143.697C575.022,-125.584 592.49,-96.4346 581,-72 574.825,-58.8685 563.622,-47.8739 552.295,-39.3642"/>
<polygon fill="grey" stroke="grey" points="554.293,-36.4901 544.096,-33.612 550.273,-42.2205 554.293,-36.4901"/>
</g>
<!-- 17 -->
<g id="node18" class="node"><title>17</title>
<path fill="none" stroke="#5692d8" stroke-width="2" d="M560,-108C560,-108 530,-108 530,-108 524,-108 518,-102 518,-96 518,-96 518,-84 518,-84 518,-78 524,-72 530,-72 530,-72 560,-72 560,-72 566,-72 572,-78 572,-84 572,-84 572,-96 572,-96 572,-102 566,-108 560,-108"/>
<text text-anchor="middle" x="545" y="-87.5" font-family="sans" font-size="10.00">homer</text>
</g>
<!-- 16&#45;&gt;17 -->
<g id="edge42" class="edge"><title>16&#45;&gt;17</title>
<path fill="none" stroke="grey" stroke-width="2" d="M545,-143.697C545,-135.983 545,-126.712 545,-118.112"/>
<polygon fill="grey" stroke="grey" points="548.5,-118.104 545,-108.104 541.5,-118.104 548.5,-118.104"/>
</g>
<!-- 17&#45;&gt;0 -->
<g id="edge18" class="edge"><title>17&#45;&gt;0</title>
<path fill="none" stroke="grey" stroke-width="2" d="M538.079,-71.6966C534.925,-63.8132 531.122,-54.3042 527.619,-45.5464"/>
<polygon fill="grey" stroke="grey" points="530.805,-44.0892 523.842,-36.1043 524.306,-46.689 530.805,-44.0892"/>
</g>
<!-- 18&#45;&gt;0 -->
<g id="edge12" class="edge"><title>18&#45;&gt;0</title>
<path fill="none" stroke="grey" stroke-width="2" d="M398.082,-143.694C377.534,-125.326 352.289,-95.7349 369,-72 393.847,-36.7095 444.473,-24.7948 479.547,-20.8424"/>
<polygon fill="grey" stroke="grey" points="480.265,-24.2898 489.887,-19.8544 479.599,-17.3216 480.265,-24.2898"/>
</g>
<!-- 19 -->
<g id="node20" class="node"><title>19</title>
<path fill="none" stroke="#56a9d8" stroke-width="2" d="M449.25,-108C449.25,-108 390.75,-108 390.75,-108 384.75,-108 378.75,-102 378.75,-96 378.75,-96 378.75,-84 378.75,-84 378.75,-78 384.75,-72 390.75,-72 390.75,-72 449.25,-72 449.25,-72 455.25,-72 461.25,-78 461.25,-84 461.25,-84 461.25,-96 461.25,-96 461.25,-102 455.25,-108 449.25,-108"/>
<text text-anchor="middle" x="420" y="-87.5" font-family="sans" font-size="10.00">diffbind_plots</text>
</g>
<!-- 18&#45;&gt;19 -->
<g id="edge44" class="edge"><title>18&#45;&gt;19</title>
<path fill="none" stroke="grey" stroke-width="2" d="M420,-143.697C420,-135.983 420,-126.712 420,-118.112"/>
<polygon fill="grey" stroke="grey" points="423.5,-118.104 420,-108.104 416.5,-118.104 423.5,-118.104"/>
</g>
<!-- 19&#45;&gt;0 -->
<g id="edge17" class="edge"><title>19&#45;&gt;0</title>
<path fill="none" stroke="grey" stroke-width="2" d="M443.978,-71.6966C456.311,-62.796 471.516,-51.8232 484.853,-42.1989"/>
<polygon fill="grey" stroke="grey" points="487.237,-44.7944 493.298,-36.1043 483.141,-39.1181 487.237,-44.7944"/>
</g>
<!-- 20&#45;&gt;0 -->
<g id="edge3" class="edge"><title>20&#45;&gt;0</title>
<path fill="none" stroke="grey" stroke-width="2" d="M245.445,-75.7488C250.345,-74.4323 255.267,-73.1568 260,-72 337.673,-53.0139 429.644,-35.1488 479.797,-25.7921"/>
<polygon fill="grey" stroke="grey" points="480.651,-29.1935 489.844,-23.9273 479.374,-22.311 480.651,-29.1935"/>
</g>
<!-- 21&#45;&gt;0 -->
<g id="edge20" class="edge"><title>21&#45;&gt;0</title>
<path fill="none" stroke="grey" stroke-width="2" d="M666.323,-77.6515C661.54,-75.7621 656.631,-73.8243 652,-72 618.722,-58.8893 580.807,-44.0094 553.649,-33.3607"/>
<polygon fill="grey" stroke="grey" points="554.746,-30.0315 544.158,-29.6401 552.191,-36.5485 554.746,-30.0315"/>
</g>
<!-- 22&#45;&gt;0 -->
<g id="edge8" class="edge"><title>22&#45;&gt;0</title>
<path fill="none" stroke="grey" stroke-width="2" d="M95.1326,-215.943C86.9472,-183.223 74.7327,-111.404 112,-72 137.126,-45.4328 384.691,-27.2698 479.93,-21.2156"/>
<polygon fill="grey" stroke="grey" points="480.217,-24.7045 489.978,-20.5859 479.779,-17.7182 480.217,-24.7045"/>
</g>
<!-- 23&#45;&gt;0 -->
<g id="edge13" class="edge"><title>23&#45;&gt;0</title>
<path fill="none" stroke="grey" stroke-width="2" d="M562.502,-215.668C584.489,-185.176 623.082,-120.566 597,-72 587.709,-54.6999 570.015,-42.0952 553.625,-33.5295"/>
<polygon fill="grey" stroke="grey" points="554.723,-30.1716 544.199,-28.9479 551.663,-36.4673 554.723,-30.1716"/>
</g>
</g>
</svg>
